<svg width="100" height="100" xmlns="http://www.w3.org/2000/svg">
 <!-- Created with Method Draw - http://github.com/duopixel/Method-Draw/ -->

 <g>
  <title>background</title>
  <rect fill="none" id="canvas_background" height="70px" width="70px" y="-1" x="-1"/>
  <g display="none" overflow="visible" y="0" x="0" height="100%" width="100%" id="canvasGrid">
   <rect fill="url(#gridpattern)" stroke-width="0" y="1" x="1" height="600" width="800"/>
  </g>
 </g>
 <g>
  <title>Layer 1</title>
  <metadata transform="matrix(0.0564351307306643,0,0,0.0564351307306643,0,0) " id="svg_145">image/svg+xml</metadata>

  <path stroke="null" fill="#ffffff" fill-rule="evenodd" d="m182.79732,25.37554c0,0.30188 -0.24342,0.58554 -0.73052,0.84933c-0.77032,0.45349 -1.62228,1.11491 -2.5556,1.98336c-0.81134,0.75567 -1.75475,1.7847 -2.82996,3.08752c-1.07479,1.30327 -2.24118,2.9749 -3.49901,5.01457c-1.29818,2.1526 -2.49468,4.19213 -3.59033,6.11873c-1.09524,1.92615 -2.04914,3.60674 -2.86035,5.04206c-0.97367,1.73735 -1.82549,3.32383 -2.55601,4.75915c-1.17606,2.03968 -2.36288,3.87173 -3.56021,5.4951c-1.1965,1.62427 -2.49454,3.00298 -3.89426,4.13641c-1.39971,1.13314 -2.96134,1.99218 -4.68584,2.57772c-1.72422,0.58569 -3.6815,0.87816 -5.87239,0.87816c-1.66316,0 -3.07337,-0.20778 -4.22967,-0.62318c-1.15589,-0.41585 -2.09889,-0.9633 -2.82955,-1.64294c-0.73052,-0.67994 -1.26833,-1.48237 -1.61287,-2.40788c-0.34468,-0.92521 -0.51695,-1.89822 -0.51695,-2.91828c0,-1.47251 0.24342,-2.98296 0.73052,-4.53225c0.48642,-1.54839 1.04427,-3.02105 1.67284,-4.41873c0.62899,-1.39723 1.26833,-2.64419 1.91748,-3.73923c0.64902,-1.09535 1.15589,-1.92645 1.52129,-2.49302c1.25756,-2.1526 2.39301,-4.2117 3.40797,-6.17549c0.4056,-0.83126 0.82102,-1.68059 1.24707,-2.54948c0.42618,-0.86845 0.7909,-1.71868 1.09565,-2.54934c0.30448,-0.83126 0.55784,-1.59589 0.76078,-2.29495c0.2028,-0.69817 0.30434,-1.31253 0.30434,-1.84101c0,-0.4154 -0.04048,-0.68935 -0.12198,-0.8214c-0.08164,-0.13264 -0.12144,-0.2744 -0.12144,-0.42511c0,-0.18896 0.08082,-0.38702 0.24342,-0.5945c0.16232,-0.20793 0.48642,-0.3688 0.97326,-0.48187c0.12171,-0.03764 0.37548,-0.07573 0.76105,-0.11352c0.38516,-0.03764 0.85182,-0.08499 1.3993,-0.14175c0.54789,-0.05631 1.12577,-0.10381 1.73472,-0.14101c0.60841,-0.03809 1.17633,-0.05676 1.70364,-0.05676c0.81134,0 1.50139,0.06557 2.06931,0.19777c0.56752,0.13249 0.85182,0.40644 0.85182,0.82185c0,0.52878 -0.12212,1.19916 -0.36512,2.01115c-0.24328,0.81214 -0.57828,1.7 -1.00406,2.66286c-0.42605,0.9633 -0.90239,1.98336 -1.43024,3.05929c-0.5269,1.07667 -1.05462,2.14379 -1.58234,3.20149c-1.29777,2.45448 -2.73837,5.06103 -4.32044,7.81829c-1.8259,2.94577 -3.23597,5.60907 -4.22967,7.98872c-0.9937,2.37905 -1.49048,4.30521 -1.49048,5.77876c0,1.0949 0.3241,2.02011 0.97326,2.77593c0.64943,0.75538 1.80573,1.13299 3.46889,1.13299c1.21695,0 2.38333,-0.31159 3.49901,-0.93492c1.11609,-0.62318 2.17085,-1.42561 3.16455,-2.40743c0.99356,-0.98197 1.90699,-2.08703 2.73837,-3.31457c0.83179,-1.22754 1.55195,-2.44567 2.15995,-3.65409c1.62337,-3.13502 3.10431,-6.15697 4.44337,-9.06495c0.56752,-1.24651 1.11486,-2.53126 1.64258,-3.85261c0.52704,-1.32194 1.0042,-2.60669 1.43024,-3.85276c0.42618,-1.24651 0.77073,-2.43626 1.03459,-3.56895c0.264,-1.13344 0.39484,-2.13453 0.39484,-3.00283c0,-0.71818 -0.0706,-1.21873 -0.21248,-1.50149c-0.14174,-0.28366 -0.21316,-0.5954 -0.21316,-0.93492c0,-0.18881 0.06106,-0.36835 0.18304,-0.53864c0.1213,-0.16969 0.34468,-0.25483 0.66878,-0.25483c1.09565,0 2.29256,-0.01867 3.59101,-0.05676c1.09497,-0.03719 2.35239,-0.06602 3.77296,-0.08469c1.41948,-0.01897 2.90028,-0.02838 4.44215,-0.02838c0.60854,0 0.91288,0.20793 0.91288,0.62333zm15.33497,42.37853c0,0.4154 -0.2535,0.83111 -0.76078,1.24651c-0.50687,0.41496 -1.15589,0.79302 -1.94747,1.13314c-0.79076,0.33952 -1.65281,0.61347 -2.58613,0.82095c-0.93346,0.20793 -1.80504,0.31159 -2.61666,0.31159c-1.21695,0 -2.36329,-0.16043 -3.43836,-0.48143c-1.07479,-0.32085 -2.00825,-0.80228 -2.79943,-1.44458c-0.7909,-0.642 -1.4098,-1.42576 -1.85602,-2.35127c-0.44622,-0.92521 -0.66919,-1.99218 -0.66919,-3.20105c0,-1.0577 0.24301,-2.28525 0.73025,-3.68292c0.48683,-1.39678 1.05462,-2.81313 1.70378,-4.24859c0.64943,-1.43532 1.30813,-2.80431 1.97759,-4.10788c0.6696,-1.30297 1.20741,-2.40758 1.61301,-3.31457c0.2028,-0.4154 0.4056,-0.83036 0.60841,-1.24576c0.16273,-0.34042 0.3346,-0.71803 0.51695,-1.13344c0.18318,-0.41585 0.335,-0.79347 0.45712,-1.13299c0.08068,-0.18896 0.1213,-0.41585 0.1213,-0.67964c0,-0.37806 -0.18236,-0.56702 -0.54748,-0.56702c-0.36553,0.07588 -0.68963,0.17028 -0.97394,0.28336c-0.16232,0.07573 -0.28362,0.17013 -0.36512,0.28366c-1.41975,1.24606 -2.78893,2.56845 -4.10755,3.96568c-1.31862,1.39738 -2.55601,2.7946 -3.71231,4.19228c-1.15589,1.39723 -2.19048,2.71962 -3.10349,3.96568c-0.91288,1.24666 -1.67352,2.34245 -2.28206,3.28664c-0.2028,0.33952 -0.4056,0.66052 -0.60841,0.96285c-0.20294,0.30188 -0.39565,0.59495 -0.57842,0.87816c-0.18236,0.28366 -0.35504,0.55716 -0.51695,0.8214c-0.44663,0.75538 -1.13613,1.2843 -2.06918,1.58663c-0.93305,0.30218 -1.84552,0.45305 -2.73837,0.45305c-0.52772,0 -1.08556,-0.07588 -1.67366,-0.2266c-0.58796,-0.15116 -0.88194,-0.43437 -0.88194,-0.85023c0,-0.18836 0.02003,-0.32055 0.06024,-0.39628c0,-0.07543 0.02044,-0.13219 0.06106,-0.16984c0.2028,-0.49069 0.47675,-1.11402 0.8217,-1.86939c0.34468,-0.75538 0.72984,-1.58648 1.15589,-2.49302c0.42618,-0.90654 0.8724,-1.85072 1.33906,-2.83269c0.4668,-0.98182 0.94314,-1.9638 1.43024,-2.94652c1.09524,-2.26568 2.29215,-4.68342 3.59033,-7.25187c0.3241,-0.642 0.62885,-1.30282 0.91288,-1.98292c0.2028,-0.52833 0.4056,-1.0949 0.60841,-1.69911c0.20294,-0.60466 0.30407,-1.11491 0.30407,-1.53032c-0.04021,-0.18881 -0.07101,-0.32085 -0.09118,-0.39673c-0.02044,-0.07484 -0.03012,-0.16969 -0.03012,-0.28276c0,-0.18896 0.05029,-0.37776 0.15224,-0.56657c0.10086,-0.18881 0.35504,-0.34042 0.76064,-0.45349c0.20294,-0.07573 0.75028,-0.16984 1.64272,-0.28321c0.89285,-0.11307 1.76525,-0.17028 2.61707,-0.17028c0.64902,0 1.20659,0.0478 1.67325,0.1419c0.46666,0.09485 0.69972,0.29292 0.69972,0.59525c0,0.67964 -0.22256,1.57647 -0.66919,2.69049c-0.44622,1.11476 -0.98362,2.27583 -1.6126,3.4847c-0.62858,1.20842 -1.25756,2.40788 -1.88641,3.59778c-0.62858,1.18975 -1.12618,2.18098 -1.4913,2.974c-0.04061,0.03809 -0.06106,0.07588 -0.06106,0.11397l0,0.16969c0,0.11307 0.06106,0.16984 0.18318,0.16984c0.12171,0 0.22243,-0.03764 0.30393,-0.11352c0.04061,-0.03719 0.08164,-0.0944 0.12212,-0.16969c0.04021,-0.07543 0.35436,-0.46276 0.94314,-1.16152c0.58837,-0.69906 1.33865,-1.56706 2.25153,-2.6061c0.91288,-1.03858 1.95715,-2.14379 3.13402,-3.31442c1.17633,-1.17078 2.38319,-2.26583 3.62072,-3.28574c1.23698,-1.02006 2.45475,-1.86013 3.65125,-2.52155c1.1965,-0.66097 2.28206,-0.99153 3.25573,-0.99153c0.6895,0 1.3486,0.1794 1.978,0.53849c0.62899,0.35864 0.94341,1.02932 0.94341,2.0113c0,0.45305 -0.0815,0.97256 -0.24369,1.55765c-0.16273,0.58569 -0.44622,1.27504 -0.85196,2.06806c-0.4056,0.83111 -0.84187,1.71912 -1.30853,2.66331c-0.46625,0.94373 -0.96344,1.94468 -1.49089,3.00238c-0.24328,0.52893 -0.66946,1.37871 -1.278,2.54993c-0.60841,1.17063 -1.2273,2.45448 -1.85588,3.85216c-0.62899,1.39723 -1.17647,2.79505 -1.64313,4.19228c-0.46666,1.39768 -0.69972,2.58742 -0.69972,3.5694c0,1.35959 0.4563,2.43641 1.36918,3.22987c0.91261,0.79302 2.22114,1.18975 3.92519,1.18975c0.48642,0 1.04427,-0.04735 1.67325,-0.1419c0.62858,-0.0944 1.2885,-0.29292 1.97813,-0.5948c0.04007,0 0.10113,-0.01867 0.18236,-0.05676c0.08109,0 0.14174,-0.00896 0.18263,-0.02838c0.04061,-0.01867 0.10126,-0.02838 0.18236,-0.02838c0.12171,0 0.2535,0.02838 0.39606,0.08514c0.14174,0.05676 0.21248,0.17955 0.21248,0.36835zm15.64013,-37.44955c0,1.17078 -0.46639,2.2001 -1.39971,3.08797c-0.93305,0.88712 -2.0287,1.3312 -3.28626,1.3312c-0.85182,0 -1.53137,-0.25528 -2.03865,-0.76464c-0.50687,-0.50981 -0.76037,-1.14285 -0.76037,-1.89822c0,-0.56657 0.14188,-1.11402 0.42618,-1.64324c0.28362,-0.52848 0.64861,-0.99123 1.09483,-1.38752c0.44622,-0.39673 0.94314,-0.71818 1.4913,-0.9633c0.54748,-0.24557 1.10532,-0.36835 1.67325,-0.36835c0.85182,0 1.53178,0.24557 2.03865,0.73626c0.50728,0.49114 0.76078,1.11447 0.76078,1.86984zm-4.01637,8.49838c0,0.26469 -0.2535,0.96285 -0.76078,2.09599c-0.50687,1.13344 -1.06471,2.34231 -1.67311,3.62616c-0.73066,1.51075 -1.54187,3.17267 -2.4343,4.9856c-0.81134,1.85132 -1.71386,3.68247 -2.70825,5.49555c-0.99411,1.81308 -1.67325,3.49411 -2.03878,5.04251c-0.08068,0.2269 -0.16219,0.45305 -0.24301,0.67964c-0.12212,0.4157 -0.18304,0.81214 -0.18304,1.18975c0,0.30278 -0.04021,0.63304 -0.1213,0.99213c-0.08164,0.35864 -0.32492,0.59435 -0.73066,0.70787c-0.36512,0.15116 -0.98321,0.29307 -1.85561,0.42467c-0.87227,0.13219 -1.71455,0.19867 -2.52589,0.19867c-0.6895,0 -1.28755,-0.07588 -1.79482,-0.2266c-0.50769,-0.15161 -0.76078,-0.43437 -0.76078,-0.85023c0,-0.18881 0.02017,-0.32055 0.06106,-0.39628c0,-0.07573 0.02017,-0.13205 0.06024,-0.16984c0.36553,-0.98227 0.91302,-2.26657 1.64354,-3.85306c0.72984,-1.58618 1.48081,-3.15355 2.25153,-4.70209c0.89244,-1.81308 1.84552,-3.70144 2.86008,-5.66524c0.36512,-0.71818 0.74061,-1.46385 1.12577,-2.23864c0.38557,-0.77405 0.74061,-1.52942 1.06485,-2.26568c0.32492,-0.7364 0.59832,-1.42561 0.8217,-2.06806c0.22325,-0.6423 0.335,-1.20887 0.335,-1.7c0,-0.18881 -0.02058,-0.32085 -0.06106,-0.39673c-0.04102,-0.07484 -0.06065,-0.18881 -0.06065,-0.33952c0,-0.15116 0.06065,-0.321 0.18236,-0.50981c0.12157,-0.18881 0.38557,-0.34042 0.79117,-0.45349c0,0 0.14174,-0.02793 0.42577,-0.08469c0.2843,-0.05676 0.62899,-0.10411 1.03459,-0.14175c0.4056,-0.03824 0.85182,-0.07543 1.33906,-0.11307c0.4867,-0.03809 0.97312,-0.05676 1.46036,-0.05676c0.68991,0 1.278,0.05676 1.7647,0.16984c0.48642,0.11337 0.73025,0.3213 0.73025,0.62318zm18.86451,-10.59467c0,0.22645 -0.1213,0.51011 -0.36472,0.84978c-0.48724,0.75538 -0.97353,1.60515 -1.46036,2.54934c-0.44663,0.79302 -0.95309,1.75632 -1.52183,2.8899c-0.56752,1.13299 -1.15589,2.36053 -1.7647,3.68247c0,0.22645 0.14215,0.33952 0.42605,0.33952l3.16496,0c0.36472,0 0.58796,0.06692 0.66865,0.19852c0.08164,0.13219 0.12212,0.25498 0.12212,0.3688c0,0.41496 -0.2133,0.78331 -0.63934,1.10431c-0.42577,0.32145 -0.76078,0.48187 -1.00338,0.48187l-3.46889,0c-0.2028,0 -0.38557,0.07528 -0.54816,0.22615l-0.18236,0.17058c-0.56793,1.20797 -1.17647,2.4736 -1.82549,3.79555c-0.64902,1.32224 -1.31862,2.73859 -2.00853,4.24934c-0.52704,1.13269 -1.1259,2.33215 -1.79496,3.59733c-0.6696,1.26563 -1.28809,2.53036 -1.85602,3.796c-0.56834,1.26563 -1.05503,2.51169 -1.46077,3.73923c-0.4056,1.22739 -0.60841,2.35157 -0.60841,3.37118c0,1.32194 0.4161,2.4267 1.24748,3.31412c0.83179,0.88787 2.18053,1.33165 4.0469,1.33165c0.4867,0 1.0245,-0.0475 1.6126,-0.1419c0.58878,-0.0944 1.2273,-0.27395 1.91694,-0.53774c0.04102,0 0.10126,-0.01897 0.18277,-0.05706c0.16191,-0.07543 0.3241,-0.11307 0.48683,-0.11307c0.12171,0 0.25337,0.02838 0.39511,0.08514c0.14256,0.05631 0.2133,0.15998 0.2133,0.31159c0,0.33997 -0.2028,0.71729 -0.60841,1.13299c-0.40574,0.4154 -0.96358,0.81214 -1.67366,1.1899c-0.71008,0.37761 -1.56204,0.68935 -2.55601,0.93492c-0.9937,0.24512 -2.07926,0.3679 -3.25573,0.3679c-2.59649,0 -4.70587,-0.67964 -6.32856,-2.03923c-1.62296,-1.36033 -2.4343,-3.19164 -2.4343,-5.49585c0,-1.39782 0.27354,-2.88019 0.8217,-4.44771c0.54748,-1.56736 1.26765,-3.27678 2.16008,-5.12705c0.89285,-1.85087 1.92702,-3.86202 3.10336,-6.03374c1.17688,-2.17172 2.37338,-4.58005 3.59101,-7.22349c0,-0.26469 -0.12198,-0.39673 -0.36581,-0.39673l-2.73837,0c-0.36472,0 -0.58796,-0.07588 -0.66919,-0.2266c-0.08109,-0.15146 -0.12157,-0.28366 -0.12157,-0.39673c0,-0.30233 0.08068,-0.5479 0.24328,-0.7367c0.16232,-0.18881 0.34468,-0.33997 0.54748,-0.45305c0.2028,-0.11352 0.39606,-0.19867 0.57842,-0.25528c0.18263,-0.05631 0.31442,-0.08514 0.39593,-0.08514l1.5206,0c0.2843,0 0.60922,-0.07498 0.97394,-0.22615c0.28362,-0.11337 0.59805,-0.31159 0.94355,-0.5948c0.34454,-0.28381 0.67914,-0.68935 1.00406,-1.21828c0.3241,-0.56657 0.84146,-1.35018 1.55154,-2.35127c0.71049,-1.00094 1.54187,-1.97306 2.49495,-2.91769c0.9539,-0.94418 1.95755,-1.76573 3.01231,-2.46479c1.05544,-0.69861 2.08962,-1.04785 3.10377,-1.04785c0.48724,0 0.72984,0.16969 0.72984,0.50981zm22.94221,10.4816c0,0.11307 -0.06065,0.30188 -0.18236,0.56657c-0.2843,0.52848 -0.67955,1.25592 -1.18683,2.18098c-0.50687,0.92566 -1.06471,1.9638 -1.67311,3.1159c-0.60895,1.15211 -1.22744,2.3792 -1.85602,3.68292c-0.62899,1.30282 -1.20727,2.57742 -1.73499,3.82393l-3.71163,8.6119c-0.81134,2.00144 -1.68361,3.94701 -2.61707,5.83552c-0.81134,1.62427 -1.70378,3.32338 -2.67731,5.09882c-0.97394,1.77484 -1.96805,3.28604 -2.98178,4.533c-0.85223,1.05696 -1.82617,2.02011 -2.921,2.88901c-1.09537,0.8689 -2.22196,1.61456 -3.37785,2.23774c-1.1563,0.62333 -2.27157,1.10476 -3.34677,1.44473c-1.07479,0.34042 -2.0182,0.51026 -2.82996,0.51026c-0.36512,0 -0.54748,-0.13249 -0.54748,-0.39673c0,-0.26469 0.22297,-0.58524 0.6696,-0.96285c0.77032,-0.45349 1.5619,-1.09579 2.37324,-1.92705c0.81134,-0.83021 1.6126,-1.76513 2.40377,-2.80387c0.7909,-1.03903 1.57199,-2.14379 2.34244,-3.31442c0.771,-1.17123 1.50125,-2.34201 2.19089,-3.51279c1.62255,-2.71917 3.18499,-5.66524 4.68584,-8.8379c0.12212,-0.26469 0.37548,-0.75582 0.76078,-1.47356c0.38516,-0.71729 0.77073,-1.48237 1.15671,-2.29451c0.38516,-0.81214 0.7297,-1.5581 1.03418,-2.23774c0.30407,-0.67994 0.4563,-1.13299 0.4563,-1.35959c0,-0.15116 -0.06106,-0.2269 -0.18236,-0.2269c-0.0815,0 -0.18277,0.05706 -0.30488,0.17013c-0.0398,0.07588 -0.08068,0.13175 -0.1213,0.16984c-0.04061,0.03764 -0.26386,0.31159 -0.66946,0.82185c-0.40574,0.50981 -0.94314,1.14195 -1.6126,1.89733c-0.6696,0.75582 -1.46036,1.56796 -2.37365,2.43641c-0.9122,0.86875 -1.8661,1.67118 -2.85967,2.40833c-0.99452,0.7364 -2.0287,1.34988 -3.1039,1.84101c-1.0752,0.49084 -2.0993,0.7364 -3.07324,0.7364c-0.36472,0 -0.72984,-0.04705 -1.09537,-0.14146c-0.36499,-0.0944 -0.69958,-0.25498 -1.00365,-0.48187c-0.30448,-0.2266 -0.55784,-0.53819 -0.76078,-0.93492c-0.2028,-0.39628 -0.30434,-0.89683 -0.30434,-1.50149c0,-1.47251 0.38516,-2.974 1.1563,-4.50342c0.77073,-1.53017 1.52142,-3.06885 2.25153,-4.61814c0.56752,-1.24576 1.1563,-2.41684 1.76484,-3.51234c0.60841,-1.0949 1.16638,-2.15305 1.67325,-3.17267c0.50728,-1.01991 0.92337,-2.02086 1.24748,-3.00283c0.32492,-0.98197 0.48711,-1.96424 0.48711,-2.94607c0,-0.30203 0.0507,-0.55686 0.15224,-0.76479c0.10126,-0.20748 0.3748,-0.34923 0.82143,-0.42511c0.5682,-0.11307 1.19678,-0.22645 1.886,-0.33952c0.69004,-0.11307 1.38009,-0.17028 2.06972,-0.17028c0.68923,0 1.278,0.0944 1.76429,0.28336c0.48724,0.18881 0.73066,0.51011 0.73066,0.9636c0,0.11307 -0.02058,0.24482 -0.06106,0.39643c-0.04061,0.15116 -0.08082,0.30188 -0.12171,0.45305c-0.08109,0.15072 -0.14215,0.30233 -0.18236,0.45349c-0.32492,1.01947 -0.83138,2.28465 -1.52142,3.79585c-0.69004,1.5103 -1.40012,2.96474 -2.12983,4.36241c-0.85196,1.66162 -1.76525,3.36162 -2.73837,5.09882c0,0 -0.0815,0.18896 -0.24342,0.56657c-0.16232,0.37776 -0.35545,0.80288 -0.57842,1.27444c-0.22325,0.47261 -0.41596,0.95404 -0.57828,1.44473c-0.16232,0.49114 -0.24342,0.8689 -0.24342,1.13344c0,0.71773 0.28403,1.07638 0.85196,1.07638c0.2843,-0.03809 0.58878,-0.13205 0.91288,-0.28321c0.16219,-0.07543 0.30434,-0.15072 0.42605,-0.2266c1.41988,-1.09535 2.85013,-2.47405 4.28991,-4.13597c1.44074,-1.66191 2.78975,-3.38985 4.04731,-5.18426c1.25756,-1.79396 2.40377,-3.55028 3.43809,-5.26851c1.03459,-1.71823 1.85629,-3.20105 2.46483,-4.44771c0.12198,-0.26454 0.26386,-0.47202 0.42564,-0.62318c0.16232,-0.15072 0.32492,-0.28291 0.48724,-0.39628c0.16219,-0.11352 0.36512,-0.20793 0.60841,-0.28336c0.68963,-0.18881 1.31862,-0.31159 1.88655,-0.36835c0.56752,-0.05676 1.01414,-0.08514 1.33865,-0.08514c0.56793,0 1.08529,0.06602 1.55195,0.19822c0.46666,0.13249 0.69958,0.34968 0.69958,0.65201z" id="svg_89"/>
  <g transform="matrix(1.3629144824184691,0,0,1.493721840563133,-9185.201350518999,-7597.383010376311) " stroke="null" id="svg_86">
   <path stroke="null" fill="#ffffff" fill-rule="evenodd" d="m6895.51708,5136.50482c0,0.0249 -0.0145,0.1548 -0.0437,0.39c-0.0292,0.2353 -0.131,0.563 -0.3059,0.9839c-0.1749,0.421 -0.4447,0.9284 -0.809,1.5225c-0.3639,0.5942 -0.8813,1.2504 -1.5517,1.9681c-0.0583,0.0743 -0.1312,0.1358 -0.2185,0.1857c-0.1454,0.1239 -0.3498,0.1857 -0.612,0.1857c-0.2911,0 -0.466,-0.0743 -0.5244,-0.2228c-0.0584,-0.1486 -0.0873,-0.6067 -0.0873,-1.374c0,-1.0148 -0.3064,-1.8071 -0.9182,-2.3763c-0.612,-0.5695 -1.5154,-0.8541 -2.7102,-0.8541c-1.0491,0 -2.0834,0.2662 -3.1033,0.7983c-1.0199,0.532 -1.9965,1.2501 -2.9291,2.1537c-0.9326,0.9034 -1.7994,1.9494 -2.6005,3.1374c-0.8016,1.1886 -1.4938,2.4509 -2.0766,3.7877c-0.5826,1.3368 -1.0418,2.7045 -1.3768,4.1028c-0.3354,1.3989 -0.5029,2.7417 -0.5029,4.0292c0,0.5445 0.0513,1.0828 0.1531,1.6149c0.102,0.5326 0.284,1.0026 0.5462,1.4114c0.2628,0.4085 0.6197,0.7364 1.0712,0.9842c0.4516,0.2471 1.0273,0.371 1.7266,0.371c0.2622,0 0.7503,-0.068 1.4647,-0.2041c0.7137,-0.1363 1.5372,-0.5077 2.4695,-1.114c0.9326,-0.6066 1.916,-1.5349 2.9503,-2.785c1.0347,-1.2501 1.9894,-2.9889 2.8633,-5.2169c0.0292,-0.0743 0.0876,-0.1485 0.1749,-0.2228c0.0584,-0.0496 0.1241,-0.1055 0.1967,-0.1675c0.0729,-0.0616 0.1675,-0.0927 0.2843,-0.0927c0.3787,0 0.6554,0.1797 0.8303,0.5386c0.1752,0.3591 0.2625,0.7489 0.2625,1.1698c0,0.3215 -0.1313,0.8167 -0.3935,1.4851c-0.2622,0.6684 -0.6559,1.4048 -1.1803,2.2093c-0.5244,0.8045 -1.173,1.6336 -1.9451,2.4877c-0.7725,0.8544 -1.6833,1.6342 -2.7321,2.3397c-1.0491,0.7053 -2.2291,1.2807 -3.5407,1.7266c-1.3113,0.4456 -2.7539,0.6684 -4.3274,0.6684c-1.5449,0 -2.7831,-0.2044 -3.7157,-0.6129c-0.9326,-0.4081 -1.6611,-0.9345 -2.1858,-1.5777c-0.5244,-0.6438 -0.8739,-1.3493 -1.0488,-2.1169c-0.1749,-0.7671 -0.2622,-1.5225 -0.2622,-2.2649c0,-0.7676 0.1454,-1.8196 0.4371,-3.1564c0.2911,-1.3365 0.7866,-2.7847 1.4859,-4.3444c0.6999,-1.5599 1.6101,-3.1439 2.7321,-4.7531c1.1222,-1.6089 2.5135,-3.0631 4.1748,-4.3628c1.6609,-1.2997 3.6063,-2.3644 5.8354,-3.1935c2.2292,-0.8294 4.8014,-1.2441 7.7154,-1.2441c0.2038,0 0.5462,0.0189 1.0273,0.0558c0.4807,0.0374 0.9615,0.1176 1.4422,0.2415c0.4811,0.1236 0.9111,0.3217 1.2895,0.5942c0.3793,0.2724 0.5684,0.6437 0.5684,1.1137zm15.8677,10.62c0,0.2477 -0.1751,0.4206 -0.5247,0.5196c-0.4371,0.1981 -0.8453,0.39 -1.224,0.5757c-0.3784,0.1857 -0.7064,0.4085 -0.9836,0.6687c-0.2766,0.2596 -0.5173,0.5689 -0.7211,0.9278c-0.2038,0.3591 -0.3495,0.7988 -0.4368,1.3186c-0.2625,1.6833 -0.7869,3.187 -1.5741,4.5114c-0.7866,1.3243 -1.7119,2.4508 -2.7754,3.3792c-1.0639,0.9283 -2.2221,1.6401 -3.4753,2.1347c-1.2532,0.4952 -2.4769,0.743 -3.6717,0.743c-1.0783,0 -1.9817,-0.1364 -2.7102,-0.4085c-0.7288,-0.2724 -1.3116,-0.6315 -1.7487,-1.0769c-0.4371,-0.4456 -0.7503,-0.9592 -0.9397,-1.5409c-0.1893,-0.5816 -0.284,-1.182 -0.284,-1.8011c0,-0.6931 0.1165,-1.4976 0.3498,-2.4134c0.233,-0.9159 0.5828,-1.863 1.0488,-2.8409c0.4666,-0.9774 1.0567,-1.9432 1.7705,-2.8962c0.7138,-0.953 1.5517,-1.8071 2.5135,-2.5619c0.9615,-0.7552 2.0472,-1.3677 3.2564,-1.8383c1.2093,-0.4703 2.5427,-0.7055 3.9997,-0.7055c0.1749,0 0.466,0.0187 0.8742,0.0558c0.4082,0.0371 0.8235,0.1052 1.2459,0.2041c0.4226,0.0989 0.7868,0.2412 1.093,0.4272c0.3056,0.1857 0.4586,0.4269 0.4586,0.724c0,0.1238 -0.036,0.2537 -0.1091,0.3897c-0.0728,0.1364 -0.2693,0.2044 -0.5902,0.2044c-0.1457,0 -0.2548,-0.0125 -0.3277,-0.0371c-0.0731,-0.025 -0.153,-0.0556 -0.2406,-0.093c-0.0873,-0.0369 -0.1965,-0.0743 -0.328,-0.1111c-0.1307,-0.0374 -0.3421,-0.0559 -0.6335,-0.0559c-1.0199,0 -2.0617,0.3836 -3.1255,1.1512c-1.0636,0.7676 -2.0472,1.7328 -2.9509,2.8961c-0.9031,1.1637 -1.639,2.4324 -2.2073,3.8064c-0.5681,1.3737 -0.8524,2.6549 -0.8524,3.8429c0,0.718 0.1752,1.3244 0.525,1.8196c0.3495,0.4952 0.947,0.7424 1.792,0.7424c0.6994,0 1.3842,-0.1976 2.0546,-0.5939c0.6701,-0.396 1.2821,-0.9346 1.8354,-1.6152c0.5539,-0.6808 0.9984,-1.4853 1.3334,-2.4137c0.3354,-0.928 0.5029,-1.9247 0.5029,-2.9891c0,-0.6437 -0.0731,-1.1511 -0.2188,-1.5225c-0.1454,-0.371 -0.2985,-0.6681 -0.4589,-0.8909c-0.1602,-0.2228 -0.3133,-0.3901 -0.4587,-0.5015c-0.146,-0.1114 -0.2188,-0.2415 -0.2188,-0.39c0,-0.0989 0.0289,-0.2228 0.0876,-0.3713c0.0584,-0.1486 0.2041,-0.2968 0.4368,-0.4454c0.7288,-0.4952 1.6319,-0.8849 2.7102,-1.1695c1.0786,-0.2849 2.2442,-0.4272 3.4971,-0.4272c0.2041,0 0.4442,0.006 0.7214,0.0184c0.2767,0.0125 0.5389,0.0434 0.7866,0.0927c0.2478,0.0496 0.4589,0.1179 0.6338,0.2044c0.1752,0.087 0.2625,0.2043 0.2625,0.3529zm18.7087,16.8208c0,0.2724 -0.1823,0.5448 -0.5462,0.8169c-0.3643,0.2724 -0.8309,0.5202 -1.3992,0.743c-0.5678,0.2225 -1.1875,0.4019 -1.8573,0.538c-0.6704,0.1363 -1.2971,0.2044 -1.8796,0.2044c-0.8745,0 -1.6977,-0.1055 -2.4701,-0.3155c-0.7722,-0.2104 -1.4423,-0.5264 -2.0107,-0.9471c-0.5683,-0.4206 -1.0125,-0.9346 -1.3334,-1.5409c-0.3206,-0.6063 -0.4804,-1.3059 -0.4804,-2.0979c0,-0.6934 0.1748,-1.4978 0.5244,-2.4134c0.3498,-0.9162 0.7577,-1.8445 1.224,-2.7854c0.4663,-0.9405 0.9396,-1.8377 1.4207,-2.6917c0.4805,-0.8541 0.8668,-1.5784 1.1579,-2.1722c0.146,-0.2724 0.2917,-0.5448 0.4377,-0.8173c0.1162,-0.2228 0.2401,-0.4702 0.3713,-0.7426c0.131,-0.2724 0.2404,-0.5196 0.328,-0.7424c0.0578,-0.1239 0.0873,-0.2724 0.0873,-0.4456c0,-0.2478 -0.1312,-0.3714 -0.3934,-0.3714c-0.2625,0.0494 -0.4955,0.1112 -0.6993,0.1854c-0.1165,0.0499 -0.2038,0.1117 -0.2625,0.186c-1.0199,0.8166 -2.0036,1.6832 -2.9506,2.5993c-0.9471,0.9156 -1.8357,1.8318 -2.6663,2.7477c-0.8305,0.9156 -1.5738,1.7821 -2.2291,2.5993c-0.656,0.8167 -1.2025,1.5347 -1.6396,2.1538c-0.1454,0.2228 -0.2914,0.4331 -0.4371,0.631c-0.146,0.1981 -0.284,0.39 -0.4153,0.5754c-0.1309,0.186 -0.2551,0.3651 -0.3713,0.5386c-0.3209,0.4952 -0.8164,0.8416 -1.4865,1.0398c-0.6698,0.1981 -1.3258,0.2967 -1.967,0.2967c-0.3787,0 -0.7795,-0.049 -1.2021,-0.1482c-0.4227,-0.0989 -0.6336,-0.2849 -0.6336,-0.5573c0,-0.1233 0.0145,-0.21 0.0434,-0.2597c0,-0.0496 0.0144,-0.0864 0.0439,-0.1116c0.1454,-0.3215 0.3425,-0.7302 0.5902,-1.2252c0.2477,-0.4952 0.5244,-1.0397 0.8303,-1.6336c0.3061,-0.5944 0.6267,-1.2132 0.9618,-1.8567c0.3353,-0.6437 0.6777,-1.2875 1.0272,-1.9312c0.7869,-1.4851 1.6464,-3.0694 2.579,-4.7529c0.2333,-0.4206 0.4516,-0.8538 0.6557,-1.2994c0.1459,-0.3466 0.2914,-0.7177 0.4371,-1.114c0.1459,-0.396 0.2188,-0.7302 0.2188,-1.0026c-0.0295,-0.1239 -0.0513,-0.2106 -0.0658,-0.2597c-0.0144,-0.0498 -0.0215,-0.1116 -0.0215,-0.1859c0,-0.1239 0.036,-0.2475 0.1091,-0.3713c0.0729,-0.1239 0.2549,-0.2228 0.5463,-0.2971c0.1457,-0.0496 0.5394,-0.1114 1.18,-0.1857c0.6415,-0.0743 1.268,-0.1111 1.8797,-0.1111c0.4666,0 0.8668,0.0306 1.2021,0.0927c0.3351,0.0618 0.5026,0.1919 0.5026,0.3898c0,0.4458 -0.1601,1.0337 -0.4804,1.764c-0.3206,0.7302 -0.707,1.491 -1.1586,2.2833c-0.4515,0.7922 -0.9037,1.5783 -1.3552,2.3581c-0.4516,0.7798 -0.8085,1.4295 -1.0709,1.9494c-0.0292,0.0246 -0.0437,0.0496 -0.0437,0.0743l0,0.1114c0,0.0742 0.0437,0.1114 0.1315,0.1114c0.0873,0 0.1599,-0.0247 0.2183,-0.0743c0.0289,-0.0247 0.0584,-0.0621 0.0873,-0.1114c0.0289,-0.0496 0.2551,-0.3033 0.6775,-0.7611c0.4226,-0.4581 0.9615,-1.0273 1.6174,-1.7085c0.656,-0.6806 1.4063,-1.4045 2.2513,-2.1721c0.8453,-0.7671 1.7121,-1.4851 2.6008,-2.1538c0.8889,-0.6681 1.7632,-1.2189 2.6229,-1.652c0.8595,-0.4332 1.639,-0.6497 2.3383,-0.6497c0.4955,0 0.9692,0.1173 1.4207,0.3523c0.4521,0.2356 0.6775,0.6749 0.6775,1.3184c0,0.2971 -0.0584,0.6375 -0.1746,1.021c-0.1165,0.3839 -0.3209,0.8354 -0.612,1.3556c-0.2917,0.5445 -0.6046,1.1262 -0.9397,1.7453c-0.3353,0.6185 -0.6922,1.2744 -1.0712,1.9678c-0.1749,0.3466 -0.4805,0.9037 -0.9182,1.671c-0.4371,0.7673 -0.8812,1.6089 -1.3328,2.5248c-0.4521,0.9162 -0.845,1.8318 -1.1803,2.7479c-0.3351,0.9159 -0.5026,1.696 -0.5026,2.3395c0,0.8912 0.3277,1.5967 0.9836,2.1166c0.6554,0.5196 1.595,0.7798 2.8193,0.7798c0.3498,0 0.7506,-0.0312 1.2022,-0.0933c0.4516,-0.0618 0.9252,-0.1916 1.4207,-0.3897c0.0289,0 0.0726,-0.0122 0.131,-0.0372c0.0584,0 0.1018,-0.006 0.1312,-0.0184c0.0289,-0.0125 0.0729,-0.0187 0.131,-0.0187c0.0873,0 0.182,0.0187 0.2843,0.0558c0.1021,0.0372 0.1528,0.1174 0.1528,0.2413zm16.086,-18.6404c0,0.1486 -0.0946,0.396 -0.284,0.7427c-0.1893,0.3464 -0.4008,0.7302 -0.6341,1.1512c-0.2327,0.4206 -0.4516,0.8416 -0.6554,1.2625c-0.2043,0.4209 -0.3206,0.7795 -0.3495,1.0769c0,0.1485 -0.0439,0.2721 -0.1315,0.3713c-0.1457,0.2228 -0.4371,0.3339 -0.8742,0.3339c-0.0584,0 -0.233,-0.0124 -0.5244,-0.0368c-0.2917,-0.0247 -0.5973,-0.093 -0.9179,-0.2044c-0.3209,-0.1117 -0.6046,-0.2849 -0.8524,-0.5199c-0.2477,-0.2349 -0.3719,-0.5754 -0.3719,-1.021c0,-0.2724 0.0511,-0.5386 0.1531,-0.7982c0.1018,-0.2603 0.2188,-0.5015 0.3495,-0.7243c0.1315,-0.2228 0.2478,-0.4269 0.3498,-0.6128c0.1023,-0.1854 0.1531,-0.3527 0.1531,-0.5012c0,-0.2228 -0.1381,-0.3529 -0.4153,-0.3898c-0.2769,-0.0374 -0.6191,-0.0558 -1.0273,-0.0558c-0.3495,0 -0.7282,0.0496 -1.1364,0.1485c-0.4079,0.099 -0.7721,0.26 -1.0927,0.4828c-0.3206,0.2228 -0.5902,0.5074 -0.8085,0.854c-0.2188,0.3464 -0.3279,0.7549 -0.3279,1.2255c0,0.3464 0.1165,0.7548 0.3495,1.2254c0.2333,0.4703 0.6993,0.9156 1.3986,1.3365c0.9326,0.5695 1.7416,1.2623 2.4264,2.0795c0.6846,0.817 1.027,1.7453 1.027,2.7848c0,0.3713 -0.1238,0.9221 -0.3716,1.6526c-0.2475,0.7302 -0.7067,1.4669 -1.3771,2.2093c-0.6701,0.7427 -1.6027,1.3861 -2.7975,1.931c-1.1948,0.5445 -2.7391,0.8169 -4.6332,0.8169c-2.1274,0 -3.7519,-0.3345 -4.8739,-1.0026c-1.1222,-0.6684 -1.6829,-1.5596 -1.6829,-2.6737c0,-0.8416 0.1893,-1.5468 0.5678,-2.1163c0.3792,-0.5695 0.86,-1.0338 1.4425,-1.3927c0.5831,-0.3591 1.2317,-0.6188 1.9454,-0.7795c0.7141,-0.1613 1.4063,-0.2418 2.0764,-0.2418c0.5536,0 0.8303,0.161 0.8303,0.483c0,0.099 -0.0363,0.1919 -0.1092,0.2784c-0.0728,0.0867 -0.138,0.1672 -0.1964,0.2415c-0.0876,0.0992 -0.1749,0.1735 -0.2622,0.2225c-0.8742,0.6438 -1.4426,1.2751 -1.7048,1.8939c-0.2624,0.619 -0.3937,1.1386 -0.3937,1.5596c0,0.718 0.2696,1.2563 0.809,1.6152c0.5389,0.3588 1.1001,0.5385 1.6824,0.5385c0.8164,0 1.4865,-0.1734 2.0112,-0.5198c0.5244,-0.3467 0.9396,-0.7552 1.2458,-1.2254c0.3058,-0.4703 0.5173,-0.9468 0.6335,-1.4296c0.1168,-0.4827 0.1749,-0.8603 0.1749,-1.1327c0,-0.47 -0.0947,-0.8787 -0.284,-1.2254c-0.1894,-0.3467 -0.4592,-0.6806 -0.8087,-1.0026c-0.3498,-0.3215 -0.7577,-0.6622 -1.224,-1.0211c-0.4663,-0.3588 -0.9763,-0.7982 -1.5299,-1.3181c-0.4955,-0.4456 -0.8379,-0.8849 -1.0273,-1.3181c-0.189,-0.4331 -0.2837,-0.8478 -0.2837,-1.2438c0,-0.8172 0.2548,-1.5534 0.7648,-2.2096c0.5099,-0.656 1.1877,-1.2067 2.0324,-1.6523c0.845,-0.4456 1.8071,-0.7923 2.8848,-1.0395c1.0786,-0.2478 2.2003,-0.3713 3.3662,-0.3713c0.6993,0 1.326,0.0368 1.8796,0.1111c0.5539,0.0742 1.0344,0.1485 1.4426,0.2228c0.4663,0.0992 0.8739,0.1981 1.2237,0.2971c0.4955,0.1485 0.7432,0.3588 0.7432,0.6312zm13.2449,-7.2779c0,0.1485 -0.0873,0.3342 -0.2622,0.557c-0.3498,0.4952 -0.6993,1.0522 -1.0491,1.671c-0.3206,0.5196 -0.6848,1.1512 -1.0927,1.8935c-0.4082,0.743 -0.8306,1.5475 -1.2677,2.414c0,0.1483 0.1018,0.2226 0.3061,0.2226l2.2729,0c0.2622,0 0.4223,0.043 0.4807,0.1301c0.0584,0.0867 0.0876,0.1669 0.0876,0.2412c0,0.2724 -0.1531,0.5136 -0.4589,0.7242c-0.3062,0.2104 -0.5465,0.3155 -0.7214,0.3155l-2.4914,0c-0.146,0 -0.2769,0.0496 -0.3937,0.1483l-0.131,0.1117c-0.4079,0.7923 -0.845,1.6214 -1.3116,2.4877c-0.466,0.8665 -0.947,1.7949 -1.4425,2.785c-0.3785,0.7427 -0.8085,1.5287 -1.2895,2.3581c-0.4805,0.8292 -0.9252,1.6586 -1.3329,2.4877c-0.4079,0.8292 -0.7577,1.6464 -1.0494,2.4509c-0.2911,0.8044 -0.4371,1.5409 -0.4371,2.2093c0,0.8665 0.2991,1.5905 0.8964,2.1722c0.5975,0.5819 1.5661,0.8728 2.9069,0.8728c0.3495,0 0.7356,-0.0312 1.1579,-0.0933c0.4227,-0.0615 0.8819,-0.1791 1.3774,-0.3526c0.0289,0 0.0726,-0.0125 0.131,-0.0372c0.1165,-0.0496 0.2332,-0.0742 0.3495,-0.0742c0.0876,0 0.1822,0.0187 0.2846,0.0558c0.1017,0.0371 0.1525,0.1052 0.1525,0.2044c0,0.2228 -0.1454,0.4703 -0.4371,0.7424c-0.2911,0.2724 -0.692,0.5323 -1.2019,0.7801c-0.51,0.2472 -1.122,0.4515 -1.8357,0.6123c-0.7144,0.161 -1.4936,0.2412 -2.3389,0.2412c-1.8649,0 -3.3806,-0.4453 -4.5459,-1.3365c-1.1656,-0.891 -1.7487,-2.0917 -1.7487,-3.6017c0,-0.9162 0.1967,-1.8876 0.5902,-2.9149c0.3937,-1.0273 0.9107,-2.1475 1.5516,-3.3608c0.6415,-1.2129 1.3842,-2.531 2.2292,-3.9546c0.8453,-1.423 1.705,-3.0013 2.5795,-4.7341c0,-0.1732 -0.0876,-0.26 -0.2622,-0.26l-1.9672,0c-0.2625,0 -0.4224,-0.0493 -0.4808,-0.1485c-0.0584,-0.0989 -0.0876,-0.1857 -0.0876,-0.2599c0,-0.1982 0.0584,-0.3589 0.1749,-0.4828c0.1165,-0.1238 0.2478,-0.2228 0.3935,-0.297c0.1454,-0.0743 0.284,-0.1299 0.415,-0.167c0.1312,-0.0371 0.2259,-0.0558 0.2843,-0.0558l1.093,0c0.2038,0 0.4371,-0.0497 0.6993,-0.1486c0.2038,-0.074 0.4298,-0.2041 0.6775,-0.39c0.2478,-0.1854 0.4881,-0.4516 0.7212,-0.7983c0.2332,-0.3713 0.6046,-0.8849 1.1145,-1.5409c0.51,-0.6559 1.1072,-1.2934 1.7921,-1.9122c0.6848,-0.6188 1.4063,-1.1574 2.164,-1.6155c0.7577,-0.4578 1.5009,-0.6865 2.2294,-0.6865c0.3495,0 0.5244,0.1111 0.5244,0.3339zm15.649,6.8323c0,0.1239 -0.1749,0.483 -0.5244,1.0769c-0.3498,0.5941 -0.7577,1.2747 -1.2243,2.0424c-0.466,0.7673 -0.9102,1.5468 -1.3329,2.3391c-0.4226,0.792 -0.6922,1.4482 -0.809,1.9684c0,0.1729 -0.0289,0.3093 -0.0873,0.4082c-0.1165,0.2477 -0.3206,0.371 -0.612,0.371c-0.0584,0 -0.2333,-0.0184 -0.5244,-0.0552c-0.2917,-0.0375 -0.6046,-0.1239 -0.9397,-0.2603c-0.3353,-0.136 -0.6415,-0.3404 -0.9181,-0.6122c-0.2767,-0.2725 -0.4153,-0.6438 -0.4153,-1.1143c0,-0.2725 0.051,-0.5755 0.1531,-0.9097c0.1017,-0.3342 0.2985,-0.7115 0.5901,-1.1324c0.0874,-0.1486 0.131,-0.2602 0.131,-0.3345c0,-0.0989 -0.0581,-0.1485 -0.1749,-0.1485c-0.0581,0 -0.131,0.0124 -0.2183,0.0374c-0.0876,0.0246 -0.1604,0.0493 -0.2188,0.0742c-0.0873,0.0494 -0.1604,0.0865 -0.2183,0.1112c-0.8161,0.5448 -1.6758,1.275 -2.5792,2.1911c-0.9031,0.9156 -1.7629,1.8564 -2.579,2.8219c-0.8161,0.9655 -1.5517,1.8939 -2.2076,2.7848c-0.6556,0.8915 -1.129,1.5967 -1.4207,2.1169c-0.1165,0.2228 -0.2327,0.4331 -0.3495,0.631c-0.1165,0.1981 -0.2333,0.39 -0.3498,0.5754c-0.1165,0.186 -0.2333,0.3651 -0.3495,0.5386c-0.5247,0.8666 -1.7048,1.2997 -3.5411,1.2997c-0.1454,0 -0.284,0 -0.4152,0c-0.131,0 -0.2696,-0.0122 -0.4148,-0.0374c-0.3792,-0.0244 -0.627,-0.1049 -0.7432,-0.2413c-0.1171,-0.136 -0.1749,-0.2661 -0.1749,-0.39c0,-0.1233 0.0145,-0.21 0.0434,-0.2597c0,-0.0496 0.0144,-0.0864 0.0439,-0.1116c0.3787,-0.9156 0.8308,-1.8689 1.3553,-2.8588c0.5244,-0.9904 1.0488,-1.9746 1.5732,-2.9523c0.5247,-0.9779 1.0494,-1.9369 1.5741,-2.8777c0.5244,-0.9405 0.9904,-1.8071 1.3986,-2.5994c0.4079,-0.792 0.7358,-1.4916 0.9836,-2.0979c0.2477,-0.6063 0.3713,-1.0828 0.3713,-1.4295c0,-0.1239 -0.0144,-0.2106 -0.0433,-0.2597c-0.0295,-0.0498 -0.044,-0.1238 -0.044,-0.2228c0,-0.0992 0.044,-0.2106 0.1313,-0.3344c0.0873,-0.1239 0.2766,-0.2228 0.568,-0.2971c0,0 0.1018,-0.0184 0.3062,-0.0556c0.2038,-0.0374 0.4515,-0.0683 0.7432,-0.0927c0.2911,-0.0252 0.6117,-0.0499 0.9615,-0.0742c0.3495,-0.0253 0.6993,-0.0375 1.0489,-0.0375c0.4954,0 0.9181,0.0375 1.2676,0.1117c0.3498,0.074 0.5247,0.2104 0.5247,0.4082c0,0.2724 -0.1749,0.7736 -0.5247,1.5038c-0.3495,0.7302 -0.7282,1.4916 -1.1361,2.2839c-0.4955,0.9156 -1.0494,1.906 -1.6614,2.9704c-0.0289,0.0247 -0.0434,0.0496 -0.0434,0.0743l0,0.1111c0,0.0748 0.0434,0.1117 0.1307,0.1117c0.0876,0 0.1604,-0.0247 0.2188,-0.0743c0.0289,-0.0247 0.0584,-0.0618 0.0873,-0.1114c0.146,-0.1485 0.4156,-0.4456 0.8088,-0.8912c0.3934,-0.4456 0.8815,-0.9468 1.4646,-1.5038c0.5823,-0.5567 1.2456,-1.1387 1.9888,-1.7453c0.743,-0.6063 1.5154,-1.1633 2.3165,-1.671c0.8016,-0.5074 1.6245,-0.9221 2.4698,-1.2438c0.845,-0.3221 1.6759,-0.4828 2.492,-0.4828c0.32,0 0.5751,0.0434 0.7647,0.1301c0.1894,0.0865 0.2841,0.2288 0.2841,0.4269zm17.8784,0.0372c0,0.1238 -0.1749,0.5136 -0.5247,1.1698c-0.3495,0.6559 -0.7722,1.4233 -1.2677,2.302c-0.4955,0.8791 -1.0125,1.8009 -1.5517,2.7666c-0.5394,0.9652 -1.0125,1.8071 -1.4207,2.5249c-0.1165,0.1978 -0.3206,0.5694 -0.612,1.114c-0.2914,0.5445 -0.5973,1.1755 -0.9179,1.8935c-0.3205,0.718 -0.6046,1.4732 -0.8523,2.2655c-0.2478,0.792 -0.3714,1.5222 -0.3714,2.1906c0,0.7177 0.1452,1.281 0.4369,1.6894c0.2914,0.4085 0.6338,0.7178 1.0272,0.9284c0.3938,0.2103 0.8014,0.3464 1.2237,0.4085c0.4227,0.062 0.7801,0.0926 1.0713,0.0926c0.3787,0 0.7866,-0.0306 1.2237,-0.0926c0.4371,-0.0621 0.9181,-0.1798 1.4425,-0.353c0.0295,0 0.0584,-0.0122 0.0876,-0.0371c0.0584,-0.0493 0.1457,-0.0743 0.2622,-0.0743c0.1168,0 0.2259,0.0312 0.3277,0.093c0.1021,0.0621 0.1531,0.1548 0.1531,0.2787c0,0.2721 -0.182,0.5383 -0.546,0.7982c-0.3648,0.2596 -0.8308,0.4949 -1.3992,0.7053c-0.568,0.2106 -1.1874,0.384 -1.8578,0.5201c-0.6704,0.1358 -1.3113,0.2038 -1.923,0.2038c-1.1075,0 -2.0472,-0.1233 -2.8193,-0.371c-0.7728,-0.2475 -1.3992,-0.5942 -1.8803,-1.0398c-0.4804,-0.4453 -0.83,-0.9652 -1.0488,-1.5596c-0.2183,-0.5941 -0.328,-1.2254 -0.328,-1.8935c0,-1.0894 0.226,-2.2221 0.6775,-3.3977c0.4522,-1.1758 1.0568,-2.296 1.8145,-3.3604l0,-0.0743c0,-0.0249 0.007,-0.0434 0.0218,-0.0556c0.0145,-0.0124 0.0216,-0.0311 0.0216,-0.0558c0,-0.0989 -0.0434,-0.1485 -0.1307,-0.1485c-0.0584,0 -0.1316,0.0368 -0.2189,0.1111c-0.0289,0.0496 -0.0584,0.087 -0.0873,0.1117c-0.0292,0.0246 -0.1893,0.2165 -0.481,0.5754c-0.2914,0.3592 -0.6922,0.8045 -1.2022,1.3365c-0.5099,0.5327 -1.1001,1.1019 -1.7702,1.7085c-0.6704,0.6066 -1.3771,1.1755 -2.1203,1.7081c-0.7427,0.5321 -1.5004,0.9715 -2.2726,1.3182c-0.7721,0.3466 -1.5083,0.5195 -2.2076,0.5195c-0.2622,0 -0.5244,-0.0306 -0.7872,-0.0927c-0.2622,-0.0617 -0.5023,-0.1669 -0.7208,-0.3154c-0.2189,-0.1489 -0.4008,-0.3527 -0.5463,-0.6129c-0.1459,-0.2599 -0.2188,-0.5879 -0.2188,-0.9842c0,-0.9652 0.2767,-1.9494 0.8306,-2.9517c0.5536,-1.0026 1.093,-2.0112 1.6174,-3.0263c0.4082,-0.8172 0.8306,-1.5843 1.2677,-2.3023c0.4371,-0.7177 0.8379,-1.4111 1.2021,-2.0795c0.364,-0.6681 0.6631,-1.324 0.8958,-1.9678c0.2333,-0.6437 0.3498,-1.2872 0.3498,-1.9309c0,-0.1982 0.0365,-0.3651 0.1094,-0.5015c0.0728,-0.1361 0.2696,-0.2287 0.5902,-0.2783c0.4076,-0.0743 0.8597,-0.1486 1.3552,-0.2229c0.4949,-0.0742 0.9904,-0.1111 1.4859,-0.1111c0.4955,0 0.9182,0.0618 1.2677,0.1854c0.3498,0.1239 0.5244,0.3342 0.5244,0.6313c0,0.0743 -0.0145,0.161 -0.0434,0.2602c-0.0295,0.0987 -0.0584,0.1976 -0.0873,0.2968c-0.0587,0.0989 -0.1026,0.1979 -0.1315,0.2971c-0.2333,0.6684 -0.5973,1.4978 -1.0928,2.4877c-0.4955,0.9904 -1.0054,1.9434 -1.5298,2.8593c-0.612,1.0893 -1.268,2.203 -1.9673,3.342c0,0 -0.0584,0.1176 -0.1746,0.3526c-0.1165,0.2353 -0.2551,0.5074 -0.4155,0.817c-0.1602,0.3095 -0.2982,0.6191 -0.4153,0.9283c-0.1162,0.3093 -0.1746,0.5508 -0.1746,0.724c0,0.4705 0.2041,0.7055 0.6117,0.7055c0.2044,-0.0246 0.4226,-0.0864 0.6559,-0.1856c0.1168,-0.0494 0.2186,-0.099 0.3062,-0.1486c1.0199,-0.718 2.0471,-1.6151 3.0815,-2.692c1.0344,-1.0769 2.0038,-2.1969 2.9069,-3.3605c0.9034,-1.1636 1.7263,-2.3083 2.4696,-3.4347c0.7432,-1.1265 1.3334,-2.098 1.7705,-2.9146c0.0873,-0.1735 0.1894,-0.3098 0.3061,-0.4088c0.1165,-0.0989 0.2328,-0.1856 0.3496,-0.2599c0.1165,-0.0743 0.2624,-0.1364 0.4371,-0.1857c0.4955,-0.1239 0.947,-0.2041 1.3552,-0.2415c0.4079,-0.0368 0.7282,-0.0553 0.9615,-0.0553c0.4082,0 0.7795,0.0431 1.1146,0.1296c0.3351,0.087 0.5029,0.2293 0.5029,0.4272zm16.0424,0.6686c0,0.0743 -0.029,0.1854 -0.0874,0.334c-0.3497,0.6681 -0.6848,1.2997 -1.0054,1.8935c-0.2622,0.4952 -0.5244,0.9964 -0.7869,1.5041c-0.2622,0.5074 -0.4663,0.8852 -0.6117,1.1324c-0.0295,0.0989 -0.0729,0.186 -0.1313,0.2602c-0.1749,0.1486 -0.3787,0.2228 -0.612,0.2228c-0.0289,0 -0.153,-0.019 -0.3713,-0.0558c-0.2188,-0.0374 -0.4592,-0.1301 -0.7214,-0.2786c-0.2625,-0.1486 -0.4955,-0.3652 -0.6993,-0.6498c-0.2038,-0.2845 -0.3062,-0.6743 -0.3062,-1.1695c0,-0.6684 0.2475,-1.4979 0.743,-2.4883c0,-0.0244 0.0147,-0.0615 0.0439,-0.1111c0.0581,-0.0992 0.0876,-0.1857 0.0876,-0.2599c0,-0.099 -0.0584,-0.167 -0.1749,-0.2044c-0.1168,-0.0369 -0.2477,-0.0553 -0.3934,-0.0553c-0.758,0 -1.6319,0.3895 -2.6229,1.1696c-0.991,0.7798 -1.9236,1.7575 -2.7978,2.933c-0.8739,1.1761 -1.6101,2.4508 -2.2074,3.8248c-0.5975,1.3739 -0.896,2.6674 -0.896,3.8803c0,0.5942 0.1454,1.0647 0.4371,1.4114c0.2914,0.3461 0.7869,0.5196 1.4862,0.5196c0.233,0 0.5684,-0.0496 1.0055,-0.1485c0.4371,-0.0993 0.9252,-0.3221 1.4641,-0.6682c0.5394,-0.3466 1.1145,-0.854 1.7271,-1.5227c0.6117,-0.6685 1.2093,-1.584 1.7921,-2.7479c0.0289,-0.0494 0.0728,-0.1112 0.1309,-0.1854c0.1168,-0.1486 0.2333,-0.2228 0.3496,-0.2228c0.0583,0 0.2043,0.0493 0.4376,0.1485c0.2327,0.0989 0.3495,0.3217 0.3495,0.6684c0,0.1485 -0.0439,0.3342 -0.1312,0.557c-0.7869,1.6336 -1.6832,2.8962 -2.6887,3.7874c-1.0049,0.8915 -1.974,1.5474 -2.9066,1.9678c-0.9326,0.4209 -1.7484,0.6749 -2.4475,0.7614c-0.6998,0.0867 -1.1225,0.1301 -1.2679,0.1301c-1.8071,0 -3.1036,-0.4025 -3.8903,-1.207c-0.7869,-0.8045 -1.1803,-1.8255 -1.1803,-3.0631c0,-0.8666 0.1746,-1.7949 0.5244,-2.7851c0.3495,-0.9904 0.845,-1.9802 1.4865,-2.9707c0.6409,-0.9901 1.4131,-1.9431 2.3165,-2.8593c0.9037,-0.9156 1.8941,-1.72 2.9727,-2.4134c1.0783,-0.6933 2.2362,-1.2501 3.475,-1.671c1.2384,-0.421 2.5131,-0.6313 3.8247,-0.6313c0.8159,0 1.5517,0.0434 2.2077,0.1301c0.6553,0.0865 1.1727,0.2166 1.5516,0.3898c0.0874,0.0496 0.1749,0.1114 0.2623,0.1857c0.1748,0.1485 0.2622,0.3344 0.2622,0.5572z" id="svg_88"/>
   <path stroke="null" fill="#ffffff" fill-rule="evenodd" d="m7021.93288,5138.02732c0,0.1485 -0.0873,0.3342 -0.2622,0.557c-0.3495,0.4952 -0.6993,1.0522 -1.0488,1.671c-0.3206,0.5196 -0.6849,1.1512 -1.0931,1.8935c-0.4079,0.743 -0.8305,1.5475 -1.2676,2.414c0,0.1483 0.102,0.2226 0.3061,0.2226l2.2728,0c0.2622,0 0.4227,0.043 0.4811,0.1301c0.0584,0.0867 0.0873,0.1669 0.0873,0.2412c0,0.2724 -0.1531,0.5136 -0.4587,0.7242c-0.3061,0.2104 -0.5468,0.3155 -0.7217,0.3155l-2.4913,0c-0.1457,0 -0.2767,0.0496 -0.3935,0.1483l-0.1309,0.1117c-0.4082,0.7923 -0.8453,1.6214 -1.3116,2.4877c-0.466,0.8665 -0.9471,1.7949 -1.4426,2.785c-0.3787,0.7427 -0.8084,1.5287 -1.2895,2.3581c-0.4804,0.8292 -0.9252,1.6586 -1.3328,2.4877c-0.4082,0.8292 -0.7577,1.6464 -1.0494,2.4509c-0.2914,0.8044 -0.4371,1.5409 -0.4371,2.2093c0,0.8665 0.2988,1.5905 0.8963,2.1722c0.5973,0.5819 1.5662,0.8728 2.9067,0.8728c0.3498,0 0.7356,-0.0312 1.1582,-0.0933c0.4226,-0.0615 0.8819,-0.1791 1.3774,-0.3526c0.0289,0 0.0722,-0.0125 0.1306,-0.0372c0.1165,-0.0496 0.2333,-0.0742 0.3498,-0.0742c0.0873,0 0.182,0.0187 0.2843,0.0558c0.1021,0.0371 0.1528,0.1052 0.1528,0.2044c0,0.2228 -0.1454,0.4703 -0.4371,0.7424c-0.2914,0.2724 -0.6922,0.5323 -1.2021,0.7801c-0.51,0.2472 -1.1217,0.4515 -1.8355,0.6123c-0.7143,0.161 -1.4938,0.2412 -2.3388,0.2412c-1.8652,0 -3.3806,-0.4453 -4.546,-1.3365c-1.1659,-0.891 -1.7487,-2.0917 -1.7487,-3.6017c0,-0.9162 0.1965,-1.8876 0.5902,-2.9149c0.3935,-1.0273 0.9108,-2.1475 1.5517,-3.3608c0.6412,-1.2129 1.3842,-2.531 2.2292,-3.9546c0.845,-1.423 1.7047,-3.0013 2.5792,-4.7341c0,-0.1732 -0.0873,-0.26 -0.2622,-0.26l-1.967,0c-0.2627,0 -0.4226,-0.0493 -0.481,-0.1485c-0.0584,-0.0989 -0.0873,-0.1857 -0.0873,-0.2599c0,-0.1982 0.0584,-0.3589 0.1749,-0.4828c0.1162,-0.1238 0.2477,-0.2228 0.3934,-0.297c0.1455,-0.0743 0.2841,-0.1299 0.415,-0.167c0.1313,-0.0371 0.226,-0.0558 0.2843,-0.0558l1.0928,0c0.2038,0 0.4371,-0.0497 0.6993,-0.1486c0.2038,-0.074 0.43,-0.2041 0.6778,-0.39c0.2477,-0.1854 0.4881,-0.4516 0.7208,-0.7983c0.2333,-0.3713 0.6047,-0.8849 1.1146,-1.5409c0.5102,-0.6559 1.1075,-1.2934 1.7924,-1.9122c0.6848,-0.6188 1.4062,-1.1574 2.1639,-1.6155c0.7577,-0.4578 1.501,-0.6865 2.2292,-0.6865c0.3498,0 0.5244,0.1111 0.5244,0.3339zm8.8302,1.3739c0,0.7674 -0.3353,1.442 -1.0054,2.0237c-0.6704,0.5816 -1.4573,0.8725 -2.3607,0.8725c-0.612,0 -1.1002,-0.167 -1.4644,-0.5012c-0.364,-0.3342 -0.5463,-0.7489 -0.5463,-1.2438c0,-0.3714 0.1021,-0.7305 0.3059,-1.0769c0.2041,-0.3464 0.4666,-0.65 0.7866,-0.9096c0.3206,-0.2603 0.6778,-0.4706 1.0712,-0.6313c0.3935,-0.161 0.794,-0.2412 1.2019,-0.2412c0.612,0 1.1001,0.1607 1.4644,0.4824c0.3645,0.322 0.5468,0.7302 0.5468,1.2254zm-2.8851,5.5698c0,0.1735 -0.1823,0.6313 -0.5468,1.3737c-0.364,0.743 -0.7648,1.5352 -1.2019,2.3766c-0.5244,0.9904 -1.1075,2.0795 -1.7484,3.268c-0.5828,1.2127 -1.2314,2.4134 -1.9451,3.6014c-0.7144,1.1886 -1.2022,2.2899 -1.4644,3.305c-0.0584,0.1485 -0.1168,0.297 -0.1746,0.4456c-0.0876,0.2724 -0.1316,0.5323 -0.1316,0.7798c0,0.1981 -0.0289,0.4147 -0.0873,0.6497c-0.0584,0.2352 -0.2333,0.3897 -0.5244,0.4643c-0.2622,0.0989 -0.7069,0.1916 -1.3334,0.2783c-0.6264,0.0868 -1.2311,0.1299 -1.8139,0.1299c-0.4955,0 -0.9255,-0.0496 -1.2895,-0.1483c-0.3645,-0.0989 -0.5468,-0.2849 -0.5468,-0.5573c0,-0.1233 0.0148,-0.2103 0.044,-0.2596c0,-0.0496 0.0144,-0.0865 0.0436,-0.1114c0.2622,-0.6438 0.6557,-1.4854 1.1804,-2.5251c0.5244,-1.0398 1.0638,-2.0668 1.6171,-3.0819c0.6415,-1.1882 1.3261,-2.4261 2.0546,-3.7133c0.2622,-0.4703 0.5321,-0.9593 0.8087,-1.4667c0.277,-0.5074 0.5318,-1.0026 0.7651,-1.4853c0.2333,-0.4825 0.4297,-0.9346 0.5902,-1.3553c0.1601,-0.4209 0.2403,-0.792 0.2403,-1.114c0,-0.1239 -0.0147,-0.2106 -0.0439,-0.2597c-0.0289,-0.0498 -0.0434,-0.1238 -0.0434,-0.2228c0,-0.0992 0.0434,-0.2106 0.131,-0.3344c0.0873,-0.1239 0.2767,-0.2228 0.5683,-0.2971c0,0 0.1018,-0.0184 0.3056,-0.0556c0.2044,-0.0374 0.4521,-0.0683 0.7433,-0.0927c0.2916,-0.0252 0.612,-0.0499 0.9615,-0.0742c0.35,-0.0253 0.6998,-0.0375 1.0494,-0.0375c0.4954,0 0.9181,0.0375 1.2679,0.1117c0.3495,0.074 0.5244,0.2104 0.5244,0.4082zm19.1024,2.1538c0,0.2477 -0.1752,0.4206 -0.525,0.5196c-0.4371,0.1981 -0.845,0.39 -1.2237,0.5757c-0.3787,0.1857 -0.7067,0.4085 -0.9836,0.6687c-0.277,0.2596 -0.5173,0.5689 -0.7212,0.9278c-0.2038,0.3591 -0.3498,0.7988 -0.4371,1.3186c-0.2622,1.6833 -0.7866,3.187 -1.5738,4.5114c-0.7866,1.3243 -1.7121,2.4508 -2.7754,3.3792c-1.0638,0.9283 -2.222,1.6401 -3.4752,2.1347c-1.2532,0.4952 -2.4769,0.743 -3.6717,0.743c-1.0783,0 -1.982,-0.1364 -2.7103,-0.4085c-0.7287,-0.2724 -1.3115,-0.6315 -1.7486,-1.0769c-0.4371,-0.4456 -0.7507,-0.9592 -0.94,-1.5409c-0.1891,-0.5816 -0.2838,-1.182 -0.2838,-1.8011c0,-0.6931 0.1163,-1.4976 0.3496,-2.4134c0.2332,-0.9159 0.5828,-1.863 1.0491,-2.8409c0.4663,-0.9774 1.0564,-1.9432 1.7702,-2.8962c0.7138,-0.953 1.5517,-1.8071 2.5138,-2.5619c0.9615,-0.7552 2.0471,-1.3677 3.2564,-1.8383c1.2093,-0.4703 2.5427,-0.7055 3.9997,-0.7055c0.1749,0 0.466,0.0187 0.8739,0.0558c0.4082,0.0371 0.8235,0.1052 1.2461,0.2041c0.4227,0.0989 0.7866,0.2412 1.0928,0.4272c0.3058,0.1857 0.4589,0.4269 0.4589,0.724c0,0.1238 -0.0363,0.2537 -0.1091,0.3897c-0.0729,0.1364 -0.2696,0.2044 -0.5902,0.2044c-0.146,0 -0.2551,-0.0125 -0.328,-0.0371c-0.0728,-0.025 -0.1531,-0.0556 -0.2404,-0.093c-0.0875,-0.0369 -0.1967,-0.0743 -0.3279,-0.1111c-0.131,-0.0374 -0.3425,-0.0559 -0.6336,-0.0559c-1.0202,0 -2.0616,0.3836 -3.1257,1.1512c-1.0633,0.7676 -2.0469,1.7328 -2.9506,2.8961c-0.9031,1.1637 -1.639,2.4324 -2.2076,3.8064c-0.5678,1.3737 -0.8524,2.6549 -0.8524,3.8429c0,0.718 0.1754,1.3244 0.525,1.8196c0.3498,0.4952 0.947,0.7424 1.7923,0.7424c0.6993,0 1.3839,-0.1976 2.0543,-0.5939c0.6704,-0.396 1.2821,-0.9346 1.8357,-1.6152c0.5539,-0.6808 0.9981,-1.4853 1.3334,-2.4137c0.3351,-0.928 0.5026,-1.9247 0.5026,-2.9891c0,-0.6437 -0.0729,-1.1511 -0.2186,-1.5225c-0.1454,-0.371 -0.2984,-0.6681 -0.4589,-0.8909c-0.1604,-0.2228 -0.3135,-0.3901 -0.4589,-0.5015c-0.1457,-0.1114 -0.2186,-0.2415 -0.2186,-0.39c0,-0.0989 0.0289,-0.2228 0.0873,-0.3713c0.0584,-0.1486 0.2044,-0.2968 0.4371,-0.4454c0.7288,-0.4952 1.6319,-0.8849 2.7102,-1.1695c1.0783,-0.2849 2.2442,-0.4272 3.4969,-0.4272c0.2043,0 0.4444,0.006 0.7217,0.0184c0.2766,0.0125 0.5388,0.0434 0.7866,0.0927c0.2477,0.0496 0.4589,0.1179 0.6335,0.2044c0.1755,0.087 0.2628,0.2043 0.2628,0.3529zm18.7084,16.8208c0,0.2724 -0.182,0.5448 -0.5463,0.8169c-0.3639,0.2724 -0.8305,0.5202 -1.3989,0.743c-0.568,0.2225 -1.1877,0.4019 -1.8575,0.538c-0.6701,0.1363 -1.2971,0.2044 -1.8797,0.2044c-0.8744,0 -1.6973,-0.1055 -2.4701,-0.3155c-0.7721,-0.2104 -1.442,-0.5264 -2.0103,-0.9471c-0.5683,-0.4206 -1.0128,-0.9346 -1.3334,-1.5409c-0.3206,-0.6063 -0.4805,-1.3059 -0.4805,-2.0979c0,-0.6934 0.1746,-1.4978 0.5244,-2.4134c0.3495,-0.9162 0.7577,-1.8445 1.2237,-2.7854c0.4666,-0.9405 0.9397,-1.8377 1.4208,-2.6917c0.4807,-0.8541 0.8668,-1.5784 1.1582,-2.1722c0.1457,-0.2724 0.2917,-0.5448 0.4374,-0.8173c0.1165,-0.2228 0.2401,-0.4702 0.3713,-0.7426c0.131,-0.2724 0.2407,-0.5196 0.328,-0.7424c0.0581,-0.1239 0.0876,-0.2724 0.0876,-0.4456c0,-0.2478 -0.1315,-0.3714 -0.3938,-0.3714c-0.2622,0.0494 -0.4954,0.1112 -0.6993,0.1854c-0.1165,0.0499 -0.2038,0.1117 -0.2622,0.186c-1.0199,0.8166 -2.0035,1.6832 -2.9505,2.5993c-0.9471,0.9156 -1.8358,1.8318 -2.6666,2.7477c-0.8305,0.9156 -1.5738,1.7821 -2.2292,2.5993c-0.6556,0.8167 -1.2024,1.5347 -1.6395,2.1538c-0.1454,0.2228 -0.2911,0.4331 -0.4371,0.631c-0.1457,0.1981 -0.2838,0.39 -0.4153,0.5754c-0.1307,0.186 -0.2548,0.3651 -0.3713,0.5386c-0.3206,0.4952 -0.8161,0.8416 -1.4865,1.0398c-0.6699,0.1981 -1.3255,0.2967 -1.967,0.2967c-0.3787,0 -0.7795,-0.049 -1.2019,-0.1482c-0.4226,-0.0989 -0.6338,-0.2849 -0.6338,-0.5573c0,-0.1233 0.0145,-0.21 0.0436,-0.2597c0,-0.0496 0.0145,-0.0864 0.044,-0.1116c0.1454,-0.3215 0.3424,-0.7302 0.5902,-1.2252c0.2477,-0.4952 0.5244,-1.0397 0.8299,-1.6336c0.3062,-0.5944 0.6271,-1.2132 0.9621,-1.8567c0.3351,-0.6437 0.6775,-1.2875 1.0273,-1.9312c0.7866,-1.4851 1.6464,-3.0694 2.5787,-4.7529c0.2333,-0.4206 0.4515,-0.8538 0.6559,-1.2994c0.1457,-0.3466 0.2911,-0.7177 0.4371,-1.114c0.1457,-0.396 0.2188,-0.7302 0.2188,-1.0026c-0.0294,-0.1239 -0.0513,-0.2106 -0.0657,-0.2597c-0.0145,-0.0498 -0.0218,-0.1116 -0.0218,-0.1859c0,-0.1239 0.0362,-0.2475 0.1091,-0.3713c0.0728,-0.1239 0.2551,-0.2228 0.5462,-0.2971c0.146,-0.0496 0.5395,-0.1114 1.1804,-0.1857c0.6412,-0.0743 1.2676,-0.1111 1.8796,-0.1111c0.4663,0 0.8669,0.0306 1.2019,0.0927c0.3354,0.0618 0.5029,0.1919 0.5029,0.3898c0,0.4458 -0.1605,1.0337 -0.4808,1.764c-0.3206,0.7302 -0.7069,1.491 -1.1585,2.2833c-0.4516,0.7922 -0.9034,1.5783 -1.355,2.3581c-0.4515,0.7798 -0.8084,1.4295 -1.0712,1.9494c-0.0289,0.0246 -0.0433,0.0496 -0.0433,0.0743l0,0.1114c0,0.0742 0.0433,0.1114 0.1312,0.1114c0.0873,0 0.1599,-0.0247 0.2183,-0.0743c0.0292,-0.0247 0.0584,-0.0621 0.0876,-0.1114c0.0289,-0.0496 0.2548,-0.3033 0.6774,-0.7611c0.4227,-0.4581 0.9616,-1.0273 1.6175,-1.7085c0.6557,-0.6806 1.4063,-1.4045 2.2513,-2.1721c0.845,-0.7671 1.7121,-1.4851 2.6005,-2.1538c0.8892,-0.6681 1.7634,-1.2189 2.6229,-1.652c0.8597,-0.4332 1.6392,-0.6497 2.3383,-0.6497c0.4955,0 0.9694,0.1173 1.421,0.3523c0.4518,0.2356 0.6775,0.6749 0.6775,1.3184c0,0.2971 -0.0584,0.6375 -0.1749,1.021c-0.1163,0.3839 -0.3206,0.8354 -0.6118,1.3556c-0.2916,0.5445 -0.6046,1.1262 -0.9399,1.7453c-0.3351,0.6185 -0.692,1.2744 -1.071,1.9678c-0.1748,0.3466 -0.4807,0.9037 -0.9181,1.671c-0.4371,0.7673 -0.8813,1.6089 -1.3328,2.5248c-0.4522,0.9162 -0.8453,1.8318 -1.1804,2.7479c-0.3353,0.9159 -0.5029,1.696 -0.5029,2.3395c0,0.8912 0.328,1.5967 0.984,2.1166c0.6553,0.5196 1.595,0.7798 2.8193,0.7798c0.3495,0 0.7503,-0.0312 1.2019,-0.0933c0.4515,-0.0618 0.9252,-0.1916 1.4207,-0.3897c0.0292,0 0.0726,-0.0122 0.131,-0.0372c0.0584,0 0.102,-0.006 0.1315,-0.0184c0.0289,-0.0125 0.0728,-0.0187 0.1307,-0.0187c0.0876,0 0.1822,0.0187 0.2846,0.0558c0.1017,0.0372 0.1525,0.1174 0.1525,0.2413z" id="svg_87"/>
  </g>
  <g transform="matrix(1.3629144824184691,0,0,1.493721840563133,-9185.201350518999,-7597.383010376311) " stroke="null" id="svg_75">
   <g stroke="null" id="svg_80">
    <path stroke="null" fill="#1b1918" fill-rule="evenodd" d="m6796.63598,5088.66172l-14.6293,0l0,4.269l14.6293,0l0,-4.269z" id="svg_83"/>
    <path stroke="null" fill="#1b1918" fill-rule="evenodd" d="m6795.40958,5160.72752c-13.9364,-3.548 -24.2108,-15.4081 -24.2108,-30.6115c0,-11.6497 6.8092,-21.0682 16.8698,-26.3502l0,-5.7238c-14.4585,4.7344 -24.8256,16.9577 -24.8256,32.074c0,7.4752 1.9486,13.3152 5.3443,18.5467c-8.9396,-1.571 -12.7923,-7.8076 -12.7923,-18.5467l0,-41.4766l-0.0101,0l-16.0336,0l0,4.2704l7.6676,0l0,37.2062c0,14.9066 9.7167,22.648 24.5074,22.8934c5.6558,6.288 13.6608,10.6768 22.7544,11.9736l0.7289,-4.2555z" id="svg_82"/>
    <path stroke="null" fill="#1b1918" fill-rule="evenodd" d="m6788.06358,5130.11602c0,5.8571 0.5832,10.4873 4.2786,14.5646c3.3592,-4.1305 4.307,-8.0014 4.307,-14.5646l-0.0315,-33.7378c1.5643,-0.1872 3.1552,-0.2834 4.7709,-0.2834c6.589,0 13.2207,0.7211 21.1235,4.6964l0.5354,-3.2033l4.3806,0.8519l-2.5778,15.0144l-3.6805,-0.7225c-0.3198,-6.7453 -6.2539,-12.6298 -16.1471,-12.6298l0,30.0141c0,8.7506 -2.9811,14.3318 -8.8889,18.6907c6.9882,6.5399 18.4257,5.8713 24.0601,2.9963l1.0522,1.5727c-4.1742,2.8394 -9.8947,4.0508 -14.8547,4.0508c-14.4501,0 -26.2929,-11.9753 -26.2929,-27.3105c0,-7.3297 3.0667,-13.2224 7.9701,-17.9659c0,0 -0.005,14.8456 -0.005,17.9659z" id="svg_81"/>
   </g>
   <g stroke="null" id="svg_76">
    <path stroke="null" fill="#f8a941" fill-rule="evenodd" d="m6795.53358,5088.24052l-14.6293,0l0,4.269l14.6293,0l0,-4.269z" id="svg_79"/>
    <path stroke="null" fill="#f8a941" fill-rule="evenodd" d="m6794.30718,5160.30622c-13.9364,-3.5479 -24.2108,-15.408 -24.2108,-30.6114c0,-11.6497 6.8092,-21.0682 16.8699,-26.3502l0,-5.7238c-14.4586,4.7343 -24.8257,16.9576 -24.8257,32.074c0,7.4752 1.9486,13.3151 5.3444,18.5467c-8.9397,-1.571 -12.7924,-7.8076 -12.7924,-18.5467l0,-41.4767l-0.0101,0l-16.0336,0l0,4.2705l7.6676,0l0,37.2062c0,14.9066 9.7167,22.648 24.5074,22.8933c5.6558,6.2881 13.6608,10.6769 22.7544,11.9737l0.7289,-4.2556z" id="svg_78"/>
    <path stroke="null" fill="#f8a941" fill-rule="evenodd" d="m6786.96118,5129.69482c0,5.857 0.5832,10.4873 4.2786,14.5646c3.3592,-4.1305 4.307,-8.0014 4.307,-14.5646l-0.0315,-33.7379c1.5643,-0.1871 3.1552,-0.2833 4.7709,-0.2833c6.589,0 13.2207,0.7211 21.1235,4.6964l0.5354,-3.2033l4.3806,0.8519l-2.5778,15.0143l-3.6804,-0.7225c-0.3199,-6.7452 -6.2539,-12.6297 -16.1472,-12.6297l0,30.0141c0,8.7506 -2.9811,14.3318 -8.8889,18.6907c6.9882,6.5399 18.4257,5.8713 24.0601,2.9962l1.0522,1.5727c-4.1742,2.8394 -9.8947,4.0509 -14.8547,4.0509c-14.4501,0 -26.2929,-11.9753 -26.2929,-27.3105c0,-7.3297 3.0667,-13.2224 7.9702,-17.9659c0,0 -0.0051,14.8455 -0.0051,17.9659z" id="svg_77"/>
   </g>
  </g>
 </g>
</svg>