<?xml version="1.0" encoding="UTF-8"?>
<svg version="1.1" viewBox="0 0 1600 1192" width="170" height="150" xmlns="http://www.w3.org/2000/svg">
<path transform="translate(488 116)" d="m0 0c0.951-0.00175 1.9-0.00351 2.88-0.00531 3.17-0.00464 6.35-0.0022 9.52 2.34e-4 2.3-0.00187 4.61-0.00417 6.91-0.00687 6.32-0.00611 12.6-0.00599 19-0.00481 6.12 6.69e-4 12.2-0.00431 18.4-0.00861 14.1-0.00966 28.1-0.0125 42.2-0.0131 10.9-4.6e-4 21.7-0.00252 32.6-0.0057 3.13-8.98e-4 6.26-0.00179 9.38-0.00267 0.778-2.21e-4 1.56-4.42e-4 2.36-6.7e-4 21.9-0.00615 43.7-0.0101 65.6-0.00966 0.824 1.56e-5 1.65 3.12e-5 2.5 4.72e-5 4.18 8.31e-5 8.35 1.82e-4 12.5 2.85e-4 0.83 1.99e-5 1.66 3.99e-5 2.51 6.04e-5 1.68 4.04e-5 3.36 8.22e-5 5.03 1.25e-4 26.1 6.13e-4 52.2-0.00689 78.3-0.0206 29.3-0.0154 58.7-0.024 88-0.023 3.13 7.46e-5 6.26 1.23e-4 9.39 1.54e-4 1.16 1.75e-5 1.16 1.75e-5 2.34 3.53e-5 12.4 3.07e-5 24.8-0.00635 37.2-0.015 12.5-0.00849 24.9-0.00946 37.4-0.00289 6.74 0.00336 13.5 0.00333 20.2-0.00535 6.18-0.00787 12.4-0.00642 18.5 0.00228 2.23 0.00153 4.46-2.74e-4 6.69-0.00586 28.1-0.0658 52.2 3.03 73.2 23.6 13.5 13.8 20.7 32.7 20.7 51.9 0.00308 1.06 0.00308 1.06 0.00622 2.13 0.00564 2.35 0.00422 4.71 0.00279 7.06 0.00259 1.71 0.0056 3.41 9e-3 5.12 0.00806 4.69 0.00986 9.37 0.0106 14.1 0.00185 5.06 0.0094 10.1 0.0161 15.2 0.0136 11.1 0.0196 22.1 0.024 33.2 0.00276 6.91 7e-3 13.8 0.0115 20.7 0.0122 19.1 0.0225 38.3 0.0259 57.4 2.2e-4 1.22 4.39e-4 2.45 6.65e-4 3.71 2.18e-4 1.23 4.37e-4 2.45 6.61e-4 3.72 4.43e-4 2.49 8.9e-4 4.97 0.00134 7.46 2.21e-4 1.23 4.43e-4 2.47 6.71e-4 3.74 0.00395 20 0.0214 39.9 0.0447 59.9 0.0237 20.5 0.0362 41 0.0373 61.6 9.16e-4 11.5 0.00664 23 0.0248 34.5 0.0154 9.81 0.0205 19.6 0.0123 29.4-0.0039 5-0.00302 10 0.0111 15 0.0128 4.59 0.0115 9.17-5.91e-4 13.8-0.00195 1.65 0.00108 3.3 0.00984 4.95 0.123 24.8-6.71 45.1-24.4 63.1-0.614 0.638-1.23 1.28-1.86 1.93-12.4 11.9-30.9 17.3-47.7 17.2-0.835 8.54e-4 -1.67 0.00171-2.53 0.00259-2.78 0.00164-5.57-0.00384-8.35-0.00932-2-2.82e-4 -4-1.23e-4 -6 4.43e-4 -5.42 2.87e-4 -10.8-0.00559-16.3-0.0126-5.67-0.00626-11.3-0.00684-17-0.00803-10.7-0.00311-21.5-0.0113-32.2-0.0213-12.2-0.0112-24.4-0.0167-36.7-0.0217-25.1-0.0104-50.3-0.028-75.4-0.0503 1.71 4.11 3.44 8.21 5.16 12.3 0.479 1.15 0.958 2.29 1.45 3.48 9.8 23.3 22.4 43.6 39.4 62.2 0.82 0.904 1.64 1.81 2.48 2.74 6.99 7.34 15 12.9 23.4 18.5 4.8 3.29 7.42 6.04 9.1 11.7 0.9 5.34 0.598 9.63-2.12 14.4-4.33 6.01-9.7 8.42-16.9 9.62-4.02 0.277-8.03 0.27-12.1 0.254-1.2 0.00312-2.4 0.00624-3.64 0.00945-3.32 0.00658-6.63 0.00424-9.95-0.00197-3.58-0.00454-7.17 0.00247-10.8 0.00796-7.01 0.00888-14 0.00698-21 0.00117-5.7-0.00452-11.4-0.00513-17.1-0.00295-0.812 3.06e-4 -1.62 6.13e-4 -2.46 9.29e-4 -1.65 6.39e-4 -3.3 0.00129-4.95 0.00195-15.5 0.0057-30.9-8.5e-4 -46.4-0.0116-13.3-0.00893-26.5-0.00738-39.8 0.00184-15.4 0.0107-30.8 0.0149-46.2 0.00878-1.64-6.37e-4 -3.29-0.00127-4.93-0.00189-0.809-3.09e-4 -1.62-6.17e-4 -2.45-9.35e-4 -5.69-0.00172-11.4 0.00118-17.1 0.00589-6.94 0.00562-13.9 0.00407-20.8-0.00656-3.54-0.00524-7.08-0.00733-10.6-7.02e-4 -3.84 0.00709-7.68-0.00139-11.5-0.0114-1.11 0.00446-2.22 0.00892-3.37 0.0135-8.68-0.0436-17-0.381-23.8-6.27-4.35-5.38-4.63-10.1-4.37-17 0.506-4.16 1.39-6.04 4.37-9.02 3.23-2.49 6.6-4.75 10-7 13.4-9.01 25.4-20 35-33 0.723-0.969 1.45-1.94 2.19-2.94 12.1-16.8 20.9-35.4 27.9-54.9 0.353-0.976 0.706-1.95 1.07-2.96 0.265-0.736 0.531-1.47 0.804-2.23-1.04 0.00369-2.09 0.00737-3.16 0.0112-25.4 0.089-50.8 0.155-76.2 0.196-12.3 0.0206-24.6 0.0486-36.9 0.0945-10.7 0.04-21.4 0.0657-32.2 0.0746-5.67 0.0052-11.3 0.0173-17 0.0466-5.35 0.0273-10.7 0.0355-16 0.0295-1.95 0.00109-3.91 0.00894-5.86 0.0244-14.6 0.11-27.8-1.27-41-8.16-0.663-0.34-1.33-0.679-2.01-1.03-6.06-3.24-10.9-7.39-15.7-12.3l-1.84-1.6c-11.8-10.5-19-28.3-20.4-43.8-0.124-2.91-0.245-5.82-0.351-8.74-0.0421-1.14-0.0843-2.28-0.128-3.46-0.486-14.6-0.46-29.2-0.449-43.8 0.0023-4.24-0.00125-8.48-0.00398-12.7-0.00441-8.28-0.0035-16.6-5.87e-4 -24.8 0.00228-6.75 0.00256-13.5 0.00148-20.2-1.53e-4 -0.967-3.06e-4 -1.93-4.64e-4 -2.93-3.2e-4 -1.97-6.44e-4 -3.93-9.73e-4 -5.9-0.00284-18.4 4.09e-4 -36.7 0.0058-55.1 0.00446-15.7 0.0037-31.3-9.19e-4 -47-0.00539-18.3-0.00744-36.6-0.00439-54.9 3.18e-4 -1.96 6.33e-4 -3.93 9.43e-4 -5.89 1.54e-4 -0.965 3.09e-4 -1.93 4.68e-4 -2.92 8.53e-4 -6.71-5.99e-4 -13.4-0.00295-20.1-0.00714-23 0.0115-46.1 0.136-69.1 0.00644-1.22 0.0129-2.44 0.0195-3.69 0.0362-6.11 0.0935-12.2 0.198-18.3 0.0263-1.63 0.047-3.26 0.0608-4.88 0.127-13.4 2.1-26.9 8.72-38.8 0.382-0.699 0.765-1.4 1.16-2.12 10.2-17.7 26.8-30 46.4-35.4 9.04-2.42 18-2.9 27.4-2.88zm-38.3 52.1c-9.96 12.7-8.73 28.7-8.7 44-0.00116 1.35-0.00275 2.7-0.00473 4.05-0.00413 3.67-0.00213 7.34 9.86e-4 11 0.00228 3.97-0.00124 7.95-0.00398 11.9-0.00443 7.76-0.00349 15.5-5.87e-4 23.3 0.00226 6.31 0.00256 12.6 0.00148 18.9-1.53e-4 0.9-3.06e-4 1.8-4.64e-4 2.73-3.2e-4 1.83-6.44e-4 3.66-9.73e-4 5.48-0.00285 17.1 4.19e-4 34.2 0.0058 51.3 0.00448 14.7 0.00368 29.4-9.19e-4 44-0.00535 17.1-0.00746 34.1-0.00439 51.2 3.19e-4 1.82 6.33e-4 3.63 9.43e-4 5.45 1.54e-4 0.894 3.09e-4 1.79 4.68e-4 2.71 8.64e-4 6.31-5.96e-4 12.6-0.00295 18.9-0.0028 7.67-0.00206 15.3 0.00328 23 0.00264 3.92 0.00364 7.83 3.51e-4 11.8-0.00351 4.24 6.68e-4 8.47 0.00568 12.7-0.00223 1.25-0.00446 2.5-0.00676 3.79 0.00261 1.13 0.00522 2.25 0.0079 3.42 1.62e-4 0.979 3.25e-4 1.96 4.92e-4 2.97-0.0274 2.34-0.0274 2.34 1.13 4.32 60 0.0171 120 0.033 180 0.0423 0.887 1.38e-4 1.77 2.76e-4 2.69 4.18e-4 19.3 0.00299 38.5 0.00576 57.8 0.0083 9.45 0.00125 18.9 0.00254 28.3 0.00387 1.41 1.96e-4 1.41 1.96e-4 2.85 3.96e-4 30.5 0.00427 61 0.0118 91.5 0.021 31.3 0.00942 62.7 0.0156 94 0.0176 4.42 2.88e-4 8.84 6.14e-4 13.3 9.62e-4 1.3 1.01e-4 1.3 1.01e-4 2.64 2.04e-4 14 0.00118 28.1 0.00583 42.1 0.0118 14.1 0.00587 28.2 0.00814 42.3 0.00667 8.38-7.64e-4 16.8 0.00129 25.1 0.0073 6.24 0.00417 12.5 0.00318 18.7 1.01e-4 2.54-4.26e-4 5.08 8.72e-4 7.62 0.00398 3.43 0.00396 6.85 0.00188 10.3-0.00184 1.01 0.00263 2.01 0.00525 3.05 0.00796 1.36-0.00337 1.36-0.00337 2.74-0.00681 0.785 1.56e-4 1.57 3.12e-4 2.38 4.73e-4 1.8 0.0691 1.8 0.0691 2.78-1.12 0.101-1.8 0.131-3.6 0.134-5.41 0.00446-1.18 0.00892-2.36 0.0135-3.58-1.84e-4 -1.31-3.69e-4 -2.63-5.59e-4 -3.98 0.0033-1.4 0.00702-2.79 0.0111-4.19 0.0101-3.85 0.0137-7.71 0.0164-11.6 0.00389-4.15 0.0135-8.3 0.0222-12.5 0.0198-10 0.0298-20.1 0.0387-30.1 0.00438-4.72 0.00975-9.45 0.015-14.2 0.017-15.7 0.0315-31.4 0.0387-47.1 0.00191-4.08 0.00383-8.16 0.00579-12.2 4.84e-4 -1.01 9.67e-4 -2.03 0.00147-3.07 0.0083-16.4 0.0336-32.8 0.0661-49.2 0.0331-16.8 0.0511-33.7 0.0543-50.5 0.00217-9.46 0.0109-18.9 0.0365-28.4 0.0217-8.06 0.0298-16.1 0.02-24.2-0.00454-4.11-0.00266-8.22 0.0168-12.3 0.0176-3.77 0.0166-7.53 0.0011-11.3-0.00349-2 0.0126-4 0.0296-6-0.0863-12.1-3.6-21.3-12.2-29.9-9.41-8.44-18.7-10.6-31.2-10.6-1.44-0.00481-1.44-0.00481-2.91-0.00972-3.22-0.00829-6.43-0.00238-9.65 0.0035-2.33-0.00302-4.66-0.00691-6.99-0.0116-5.73-0.00922-11.5-0.00913-17.2-0.00509-6.87 0.00433-13.7-0.00294-20.6-0.0105-14.2-0.0152-28.5-0.0169-42.7-0.0145-11 0.00183-22 7.28e-5 -33-0.00422-1.58-6.02e-4 -3.16-0.0012-4.74-0.0018-2.38-9.07e-4 -4.76-0.00182-7.14-0.00273-22.1-0.00843-44.3-0.0128-66.4-0.00859-1.25 2.35e-4 -1.25 2.35e-4 -2.53 4.74e-4 -4.23 8.06e-4 -8.46 0.00165-12.7 0.00251-0.84 1.71e-4 -1.68 3.42e-4 -2.54 5.18e-4 -1.7 3.47e-4 -3.4 6.95e-4 -5.09 0.00105-26.4 0.00536-52.8-0.00258-79.3-0.021-29.7-0.0207-59.4-0.0314-89.1-0.0274-3.17 3.95e-4 -6.33 7.57e-4 -9.5 0.0011-0.779 9.07e-5 -1.56 1.81e-4 -2.36 2.75e-4 -11.8 0.00117-23.5-0.00548-35.3-0.0161-13.4-0.012-26.8-0.0136-40.1-0.00121-6.83 0.00605-13.7 0.00735-20.5-5e-3 -6.25-0.0108-12.5-0.0078-18.8 0.00626-2.26 0.00266-4.52 2.46e-4 -6.79-0.00774-3.07-0.0101-6.15-0.00169-9.22 0.0113-1.32-0.011-1.32-0.011-2.66-0.0221-12.8 0.112-23 5.23-31.8 14.4zm-8.57 393c-1.81 26.9-1.81 26.9 8 51 0.743 1.07 1.49 2.14 2.25 3.25 7.48 7.48 17.3 12.1 27.9 12.2 1.34-0.0101 1.34-0.0101 2.7-0.0204 1.45 0.00699 1.45 0.00699 2.94 0.0141 3.25 0.012 6.5 0.00255 9.75-0.00676 2.35 0.00417 4.71 0.00965 7.06 0.0163 5.79 0.013 11.6 0.012 17.4 0.00504 6.94-0.00752 13.9 0.00236 20.8 0.0127 13.6 0.0197 27.2 0.022 40.8 0.0168 11.9-0.00456 23.8-0.00396 35.7 0.00184 1.6 7.57e-4 3.19 0.00151 4.79 0.00227 2.41 0.00115 4.81 0.0023 7.22 0.00346 22.4 0.0107 44.7 0.0154 67.1 0.00753 0.843-2.97e-4 1.69-5.94e-4 2.56-9.01e-4 6.85-0.00245 13.7-0.00506 20.5-0.00768 26.7-0.0101 53.4-0.00175 80.1 0.0215 30 0.0261 60 0.0389 90 0.0318 3.2-7.16e-4 6.4-0.00139 9.6-0.00204 1.18-2.55e-4 1.18-2.55e-4 2.39-5.15e-4 11.9-0.0023 23.8 0.00567 35.7 0.0188 13.5 0.0149 27.1 0.0158 40.6-0.00207 6.9-0.00872 13.8-0.0111 20.7 0.00465 6.32 0.0138 12.6 0.00914 19-0.0102 2.29-0.00377 4.57-8.01e-4 6.86 0.00961 15.7 0.0665 28.1-0.528 40.2-11.8 5.36-5.52 8.51-12.1 8.49-19.9-7.55e-5 -0.801-1.51e-4 -1.6-2.29e-4 -2.43-0.00516-0.854-0.0103-1.71-0.0156-2.59-0.00141-0.882-0.00283-1.76-0.00429-2.67-0.00559-2.81-0.0181-5.62-0.0309-8.44-0.00502-1.91-0.00958-3.82-0.0137-5.73-0.011-4.67-0.0283-9.35-0.0488-14-60-0.0171-120-0.033-180-0.0423-0.888-1.38e-4 -1.78-2.76e-4 -2.69-4.18e-4 -19.3-0.00299-38.6-0.00576-57.9-0.0083-9.46-0.00125-18.9-0.00254-28.4-0.00387-0.942-1.31e-4 -1.88-2.62e-4 -2.85-3.96e-4 -30.5-0.00427-61.1-0.0118-91.6-0.021-31.4-0.00942-62.8-0.0156-94.1-0.0176-4.43-2.88e-4 -8.85-6.14e-4 -13.3-9.62e-4 -0.871-6.74e-5 -1.74-1.35e-4 -2.64-2.04e-4 -14.1-0.00118-28.1-0.00583-42.2-0.0118-14.1-0.00587-28.2-0.00814-42.3-0.00667-8.4 7.64e-4 -16.8-0.00129-25.2-0.0073-6.25-0.00417-12.5-0.00318-18.8-1.01e-4 -2.54 4.26e-4 -5.08-8.72e-4 -7.63-0.00398-3.43-0.00396-6.86-0.00188-10.3 0.00184-1.51-0.00394-1.51-0.00394-3.05-0.00796-1.36 0.00337-1.36 0.00337-2.74 0.00681-0.786-1.56e-4 -1.57-3.12e-4 -2.38-4.73e-4 -1.81-0.0694-1.81-0.0694-2.78 1.12zm270 104c-0.986 2.37-0.986 2.37-1.85 5.3-0.53 1.67-0.53 1.67-1.07 3.37-0.378 1.2-0.755 2.4-1.14 3.64-8.53 26.3-20.7 50-37.2 72.2-0.508 0.683-1.02 1.37-1.54 2.07-2.08 2.77-4.11 5.33-6.57 7.77-1.88 1.5-1.88 1.5-1.64 3.66h194c-2.74-4.12-5.41-7.81-8.5-11.6-10.3-13.2-18.5-28.2-25.5-43.4-0.519-1.11-1.04-2.22-1.57-3.36-4.21-9.4-7.39-19.1-10.5-28.9-0.804-2.47-1.62-4.93-2.44-7.4-0.406-1.22-0.406-1.22-0.819-2.46-0.309-0.927-0.309-0.927-0.625-1.87-11.8-0.0231-23.7-0.0409-35.5-0.0518-5.49-0.00523-11-0.0123-16.5-0.0236-5.3-0.0108-10.6-0.0168-15.9-0.0194-2.02-0.00185-4.05-0.00547-6.07-0.0109-2.83-0.00722-5.66-0.00826-8.48-0.0078-0.844-0.0036-1.69-0.00719-2.56-0.0109-4.14-0.102-4.14-0.102-8.02 1.12z" fill="#000102"/>
<path transform="translate(1054 726)" d="m0 0c4.16 2.92 8.18 6.01 12.2 9.17 1.96 1.55 3.92 3.08 5.9 4.61 2.39 1.85 4.76 3.72 7.12 5.6 1.7 1.35 3.4 2.7 5.13 4.02 8.18 6.47 15 16 16.9 26.4 1.9 19.5-1.85 34.1-14.3 49.6-2.74 3.33-5.55 6.59-8.37 9.84-2.03 2.36-4 4.77-5.96 7.18-0.728 0.893-1.46 1.79-2.21 2.71-1.44 1.77-2.87 3.54-4.3 5.3-4.74 5.83-9.58 11.6-14.5 17.2-3.54 4.12-6.95 8.31-10.3 12.6-2.9 3.6-5.9 7.12-8.9 10.6-2.3 2.7-4.57 5.42-6.79 8.19-0.802 1-1.6 2.01-2.43 3.04-0.713 0.904-1.43 1.81-2.16 2.74-0.587 0.643-1.17 1.29-1.78 1.95h-2c-1.69 2.74-1.69 2.74-1.72 5.87 0.829 2.44 1.95 4.28 3.37 6.43 0.555 0.842 1.11 1.68 1.68 2.55 0.604 0.904 1.21 1.81 1.83 2.74 0.623 0.943 1.25 1.89 1.89 2.86 2 3.02 4.01 6.04 6.01 9.05 1.33 2 2.65 4 3.97 6 3.65 5.5 7.3 11 11 16.5 0.446 0.669 0.891 1.34 1.35 2.03 2.21 3.33 4.43 6.65 6.65 9.97 0.896 1.34 1.79 2.69 2.69 4.03 1.2 1.79 2.39 3.59 3.59 5.38 1.91 2.87 3.82 5.73 5.71 8.61 3.24 4.91 6.55 9.76 9.97 14.6 6.73 9.43 13.2 19 19.5 28.7 1.68 2.56 3.36 5.12 5.05 7.67 1.08 1.64 2.16 3.28 3.23 4.92 0.499 0.757 0.998 1.51 1.51 2.29 0.462 0.706 0.923 1.41 1.4 2.14 0.605 0.922 0.605 0.922 1.22 1.86 2.76 4.5 3.57 7.41 3.11 12.8-2.17 5.7-5.48 9.49-10.7 12.6-3.79 1.59-6.55 1.78-10.7 1.82-0.725 0.0102-1.45 0.0204-2.2 0.0309-2.44 0.0305-4.88 0.0397-7.32 0.0487-1.78 0.0171-3.55 0.0354-5.33 0.0547-4.92 0.0492-9.84 0.0784-14.8 0.104-4.27 0.0241-8.54 0.0587-12.8 0.0926-58.5 0.458-117 0.324-175 0.238-10.6-0.0155-21.2-0.0292-31.8-0.0423-27.3-0.0338-54.6-0.0695-81.9-0.113-0.862-0.00137-1.72-0.00275-2.61-0.00416-3.49-0.00556-6.98-0.0111-10.5-0.0167-2.62-0.00419-5.25-0.00838-7.87-0.0126-0.867-0.00139-1.73-0.00277-2.63-0.0042-28.4-0.0452-56.7-0.0776-85.1-0.103-30.2-0.0267-60.4-0.0641-90.6-0.114-3.31-0.00544-6.61-0.0108-9.92-0.0162-0.814-0.00133-1.63-0.00265-2.47-0.00402-13.1-0.0211-26.1-0.0324-39.2-0.0402-13.1-0.00808-26.1-0.0272-39.2-0.0577-7.76-0.0178-15.5-0.0272-23.3-0.0248-5.78 8.97e-4 -11.6-0.0137-17.3-0.0345-2.34-0.00599-4.68-0.00688-7.03-0.00227-3.17 0.00551-6.34-0.00725-9.52-0.0247-0.918 0.00599-1.84 0.012-2.78 0.0182-6.21-0.0618-10.3-1.27-15.3-5.16-3.2-4.11-3.99-8.57-4-13.7 1.08-8.15 6.72-14.9 11.2-21.6 1.04-1.55 2.09-3.1 3.13-4.66 5.72-8.46 11.6-16.8 17.5-25.2 5.2-7.35 10.3-14.8 15.4-22.2 0.518-0.757 1.04-1.51 1.57-2.29 16.2-23.7 32.2-47.4 48.2-71.2 1.71-2.53 3.42-5.06 5.12-7.59 0.561-0.831 1.12-1.66 1.7-2.52 1.13-1.67 2.26-3.34 3.38-5.01 3.3-4.88 6.59-9.77 9.89-14.7 2.07-3.07 4.14-6.14 6.21-9.21 0.956-1.42 1.91-2.83 2.86-4.25 2.58-3.83 5.16-7.64 7.77-11.4 0.862-1.26 1.72-2.52 2.57-3.79 1.29-1.91 2.6-3.81 3.91-5.71 0.378-0.567 0.756-1.13 1.15-1.72 4.45-6.37 9.24-9.69 16.9-11.3 5.79-0.8 11.6-0.649 17.4-0.624 1.48-8.73e-4 2.97-0.00263 4.45-0.00518 4.06-0.00446 8.12 0.00351 12.2 0.0136 4.39 0.00866 8.77 0.00571 13.2 0.0042 7.59-0.00105 15.2 0.00521 22.8 0.0165 11 0.0163 22 0.0215 32.9 0.024 17.8 0.00437 35.6 0.0177 53.4 0.0366 17.3 0.0184 34.6 0.0325 51.9 0.041 1.07 5.25e-4 2.13 0.00105 3.23 0.00159 5.35 0.00261 10.7 0.00514 16.1 0.00762 44.4 0.0207 88.8 0.0559 133 0.101 0.302-0.622 0.604-1.24 0.914-1.88 1.14-2.22 2.43-3.93 4.03-5.84 0.579-0.698 1.16-1.4 1.75-2.11 0.924-1.1 0.924-1.1 1.87-2.23 1.28-1.54 2.56-3.08 3.84-4.61 0.621-0.745 1.24-1.49 1.88-2.26 2.15-2.59 4.28-5.2 6.41-7.82 3.63-4.45 7.35-8.83 11.1-13.2 3.37-3.98 6.6-8.05 9.79-12.2 4.12-5.31 8.47-10.3 13-15.2 2.35-2.58 4.57-5.23 6.77-7.95 19.8-24.5 52.2-56 85.5-33.5zm-42.8 39.8c-1.04 1.64-2.05 3.31-3 5 0.643 0.522 1.29 1.04 1.95 1.58 5.23 4.26 10.4 8.55 15.6 12.9 5.78 4.9 11.6 9.74 17.5 14.5 0.851 0.697 1.7 1.39 2.58 2.11 0.799 0.643 1.6 1.29 2.42 1.95 0.701 0.568 1.4 1.14 2.12 1.72 1.92 1.49 1.92 1.49 4.88 1.21 5.4-6.07 11.3-13.5 12.2-21.8-0.424-5.13-2.83-8.12-6.61-11.5-3.47-2.92-7.07-5.66-10.7-8.36-1.8-1.33-3.58-2.68-5.36-4.04-13.9-10.5-21.9-8.6-33.5 4.67zm-27.8 36.8c-4.71 5.34-9.3 10.8-13.8 16.3-2.55 3.12-5.14 6.21-7.75 9.29-0.46 0.542-0.92 1.08-1.39 1.64-1.88 2.22-3.76 4.43-5.65 6.65-1.4 1.65-2.81 3.31-4.21 4.96-0.457 0.539-0.915 1.08-1.39 1.63-2.91 3.44-5.77 6.92-8.61 10.4-2.89 3.55-5.85 6.99-8.94 10.4-3.58 3.93-6.92 8-10.2 12.2-6.83 8.48-14 16.7-21.4 24.7-0.607 0.688-1.21 1.38-1.84 2.09-0.536 0.501-1.07 1-1.62 1.52-2.2 3.97-1.52 7.84-1.23 12.3 0.0486 0.949 0.0973 1.9 0.147 2.88 0.159 3.03 0.339 6.05 0.521 9.08 0.111 2.05 0.222 4.11 0.33 6.16 0.269 5.03 0.558 10.1 0.857 15.1 1.73-0.194 1.73-0.194 3.5-0.391 1.58-0.176 3.15-0.351 4.73-0.527 0.821-0.0918 1.64-0.184 2.49-0.278 4.63-0.516 9.26-1.01 13.9-1.48 1.9-0.211 3.8-0.423 5.7-0.637 0.974-0.0922 1.95-0.184 2.95-0.279 4.44-0.521 7.04-0.854 10.6-3.68 0.705-0.9 1.41-1.8 2.14-2.73 0.802-0.862 1.6-1.72 2.43-2.61 7.52-8.31 14.9-16.7 22.2-25.3 2.64-3.08 5.29-6.15 7.97-9.2 2.99-3.4 5.9-6.85 8.81-10.3 3.35-3.98 6.75-7.9 10.2-11.8 3.87-4.26 7.5-8.68 11.1-13.2 2.91-3.52 5.98-6.87 9.05-10.2 2.94-3.32 5.67-6.8 8.4-10.3 1.53-1.86 3.08-3.46 4.86-5.07 0.639-0.701 1.28-1.4 1.94-2.12-0.495-4.73-3.91-6.86-7.38-9.69-0.951-0.796-0.951-0.796-1.92-1.61-1.89-1.58-3.8-3.14-5.7-4.71-0.963-0.791-1.93-1.58-2.92-2.4-1.76-1.44-3.52-2.87-5.28-4.3-3.84-3.15-7.62-6.36-11.4-9.58-5.76-6.15-5.76-6.15-12.3-4.92zm-429 71.2c-1.17 1.65-2.3 3.32-3.41 5.02-0.663 1.01-1.33 2.01-2.01 3.05-1.36 2.08-2.72 4.16-4.08 6.23-3.81 5.78-7.72 11.4-11.8 17-5.85 7.9-11.3 16-16.7 24.2-0.925 1.39-1.85 2.79-2.78 4.18-1.84 2.77-3.67 5.53-5.5 8.3-2.91 4.39-5.83 8.78-8.76 13.2-2.85 4.27-5.7 8.55-8.55 12.8-2.2 3.31-4.41 6.63-6.62 9.94-1.12 1.68-2.24 3.36-3.35 5.04-6.61 9.94-13.3 19.8-20.1 29.7-2.63 3.81-5.22 7.65-7.77 11.5-0.394 0.593-0.788 1.19-1.19 1.8-1.12 1.69-2.25 3.39-3.37 5.08-0.387 0.558-0.774 1.12-1.17 1.69-2.16 2.88-2.16 2.88-2.83 6.31h610c-1.8-4.49-3.92-8.11-6.62-12.1-0.91-1.35-1.82-2.69-2.73-4.04-0.45-0.663-0.901-1.33-1.36-2.01-1.76-2.6-3.49-5.21-5.22-7.83-3.9-5.85-7.87-11.6-11.9-17.4-0.474-0.688-0.948-1.38-1.44-2.08-0.964-1.4-1.93-2.8-2.9-4.19-5.36-7.74-10.7-15.5-15.9-23.4-1.5-2.24-2.99-4.49-4.49-6.73-1.02-1.54-2.04-3.08-3.06-4.62-1.49-2.26-3-4.52-4.51-6.77-0.68-1.04-0.68-1.04-1.37-2.1-1.11-1.65-2.33-3.22-3.56-4.77h-3c-1.86 1.91-3.52 3.81-5.19 5.88-0.736 0.891-0.736 0.891-1.49 1.8-2.81 3.41-5.57 6.87-8.33 10.3-0.633 0.784-1.27 1.57-1.92 2.38-1.59 2-3.11 4.01-4.63 6.06-0.92 1.19-1.84 2.38-2.76 3.56-0.402 0.565-0.803 1.13-1.22 1.71-4.71 5.94-11.5 5.81-18.6 6.66-3.35 0.356-6.71 0.682-10.1 1-2.55 0.265-5.1 0.532-7.64 0.801-3.95 0.415-7.89 0.82-11.8 1.19-17.2 1.62-31.4 4.74-46.9 12.5-30.7 14.5-68.5 15.1-100 4.25-23.1-8.37-43.1-21.1-63-35.2-22-15.5-41.9-24.7-69-20.8-20.4 3.74-36.1 16.2-48.2 32.7-3.62 4.86-6.74 8.79-12.9 10.1-6.87 0.987-11.4 0.143-17-4-3.86-3.7-5.82-6.66-6.12-11.9 0.767-13.5 15.2-26.8 24.6-35.3 25.3-20.8 55.5-29.7 88-26.5 24.6 3.28 44.2 16.1 64.3 29.7 29.8 20.1 62.3 39.6 99.7 32.6 18.5-3.04 18.5-3.04 34.5-11.5 0.851-9.26-0.321-18.8-1-28.1-2.46-36.4-2.46-36.4 2.93-42.8 0.682-0.712 1.36-1.42 2.07-2.16 1.47-1.7 2.91-3.42 4.36-5.14 1-1.18 2.01-2.36 3.04-3.52 2.73-2.76 2.73-2.76 3.61-6.34-40.5-0.0686-80.9-0.122-121-0.153-4.77-0.00375-9.55-0.00764-14.3-0.0116-0.95-7.87e-4 -1.9-0.00157-2.88-0.00238-15.4-0.0131-30.8-0.0367-46.2-0.0643-15.8-0.028-31.6-0.0447-47.4-0.0508-9.75-0.00412-19.5-0.0172-29.3-0.0415-6.68-0.0158-13.4-0.0207-20-0.0168-3.86 0.00193-7.72-0.0011-11.6-0.0171-4.18-0.0172-8.35-0.0114-12.5-0.00315-1.23-0.00874-2.46-0.0175-3.72-0.0265-1.11 0.00597-2.23 0.0119-3.37 0.0181-0.965-0.00114-1.93-0.00228-2.92-0.00345-2.86 0.441-3.66 1.13-5.41 3.37z" fill="#000102"/>
<path transform="translate(560 293)" d="m0 0c1.35-0.00407 2.71-0.00942 4.06-0.0159 3.66-0.0136 7.32-0.0084 11 0.00114 3.84 0.00763 7.69 5.41e-4 11.5-0.00416 6.45-0.00545 12.9 0.00171 19.4 0.016 7.44 0.0163 14.9 0.011 22.3-0.00548 6.41-0.0137 12.8-0.0155 19.2-0.00768 3.82 0.00466 7.64 0.00536 11.5-0.00461 3.59-0.00873 7.19-0.00254 10.8 0.0147 1.93 0.0058 3.87-3e-3 5.8-0.0124 16 0.115 16 0.115 21.6 4.75 4.22 4.76 5.6 9.41 5.62 15.6 0.00708 1.2 0.0142 2.4 0.0215 3.64-0.00248 1.31-0.00495 2.62-0.00751 3.96 0.00435 1.4 0.00953 2.8 0.0155 4.19 0.0134 3.79 0.014 7.58 0.0114 11.4-0.00107 3.17 0.00382 6.34 0.00861 9.51 0.0111 7.48 0.0115 15 0.00549 22.4-0.00604 7.71 0.00627 15.4 0.0276 23.1 0.0176 6.62 0.0236 13.2 0.0204 19.9-0.00181 3.95 8e-4 7.9 0.0147 11.9 0.0126 3.72 0.0106 7.44-0.00241 11.2-0.00348 2.01 0.0078 4.02 0.0196 6.03-0.0468 8.04-0.449 13.4-5.77 19.7-4.29 3.57-7.92 4.43-13.4 4.48-1.16 0.0141-2.33 0.0281-3.53 0.0426-1.27 0.0053-2.54 0.0106-3.84 0.0161-1.36 0.0126-2.71 0.026-4.07 0.0402-3.68 0.0358-7.35 0.0592-11 0.0798-3.07 0.0184-6.15 0.0432-9.22 0.068-7.26 0.0585-14.5 0.107-21.8 0.149-7.47 0.0436-14.9 0.102-22.4 0.167-6.43 0.056-12.9 0.104-19.3 0.145-3.83 0.0247-7.67 0.0521-11.5 0.0869-3.61 0.0324-7.22 0.0545-10.8 0.069-1.94 0.0102-3.89 0.0305-5.83 0.0512-17.6 0.0415-17.6 0.0415-23.9-5.21-6.99-8.6-6.15-18.3-6.15-28.9-0.00336-1.27-0.00672-2.55-0.0102-3.86-0.00879-3.48-0.0112-6.95-0.0118-10.4-7.13e-4 -2.18-0.00285-4.35-0.0055-6.53-0.00923-7.6-0.0133-15.2-0.0125-22.8 6.01e-4 -7.07-0.00996-14.1-0.0257-21.2-0.0131-6.09-0.0184-12.2-0.0178-18.3 2.54e-4 -3.63-0.00254-7.25-0.0132-10.9-0.0115-4.05-0.00692-8.09-8.95e-4 -12.1-0.00562-1.19-0.0112-2.38-0.017-3.6 0.0637-16.9 0.0637-16.9 4.88-22.3 0.446-0.534 0.892-1.07 1.35-1.62 7.13-5.32 15-4.94 23.5-4.9zm7.49 38.4v97h98v-97h-98z" fill="#000102"/>
<path transform="translate(948 319)" d="m0 0c1.61 1.35 3.21 2.7 4.81 4.06 1.02 0.797 1.02 0.797 2.05 1.61 17 13.8 27 36.1 29.9 57.4 1.93 25.4-2.58 47.5-18 68-0.62 0.857-1.24 1.71-1.88 2.6-6.02 7.89-13.1 13.7-21.1 19.4-0.833 0.598-1.67 1.2-2.52 1.81-19.2 12.6-45.9 16.5-68.3 12.1-25.3-5.82-46.9-21.2-61-42.9-13.4-21.9-17.3-47.1-11.3-72.2 6.92-25.6 24.4-46.6 47.2-59.8 30.7-16.7 72.5-13.8 100 7.93zm-99.1 35.7c-3.2 3.52-5.77 7.2-8.12 11.3-0.567 0.969-0.567 0.969-1.14 1.96-7.19 13.2-7.98 29.1-4.29 43.5 2.16 6.54 5.35 12 9.44 17.5 0.473 0.656 0.946 1.31 1.43 1.99 7.42 9.48 20 16.5 31.8 18.7 17.6 1.82 33.1-0.564 47.3-11.8 11.4-9.68 19-22.2 21.2-37.1 1.27-16.9-3.93-30.4-13.9-43.7-0.629-0.722-1.26-1.44-1.91-2.19h-2v-2c-23.7-19.7-57.4-20.1-79.9 1.68z" fill="#000102"/>
<path transform="translate(752 197)" d="m0 0c1.22-0.00998 2.43-0.02 3.69-0.0302 1.34-8.96e-4 2.67-0.00156 4.01-0.00201 1.42-0.00763 2.83-0.0161 4.25-0.0252 3.84-0.0219 7.67-0.0307 11.5-0.0358 2.4-0.00365 4.8-0.00989 7.2-0.017 8.38-0.0245 16.8-0.0375 25.1-0.0411 7.8-0.00364 15.6-0.0335 23.4-0.0754 6.71-0.0347 13.4-0.0501 20.1-0.0508 4-7.92e-4 8-0.00948 12-0.038 3.76-0.0262 7.53-0.0284 11.3-0.0123 2.03 0.00267 4.06-0.0193 6.09-0.0422 7.34 0.0586 12.5 0.686 18.1 5.64 3.5 3.73 6 8.61 6.2 13.8-0.945 10.7-10.9 18.6-18 25.7-1.32 1.32-2.64 2.64-3.95 3.96-3.56 3.57-7.13 7.12-10.7 10.7-3.74 3.72-7.48 7.45-11.2 11.2-6.26 6.26-12.5 12.5-18.8 18.7-7.26 7.22-14.5 14.5-21.8 21.7-7.71 7.71-15.4 15.4-23.2 23.1-2.23 2.22-4.45 4.44-6.68 6.67-3.49 3.48-6.98 6.96-10.5 10.4-1.29 1.28-2.57 2.56-3.85 3.84-1.74 1.74-3.49 3.48-5.25 5.21-0.512 0.515-1.02 1.03-1.55 1.56-3.51 3.46-3.51 3.46-5.74 3.46v2c-3.5 3.24-7.18 5.64-12 6-1.11 0.103-2.23 0.206-3.38 0.312-5.79-0.499-9.68-2.99-13.4-7.25-3.37-4.72-4.44-8.29-4.45-14.1-0.00853-1.21-0.0171-2.41-0.0258-3.66 9.06e-4 -1.32 0.00181-2.63 0.00275-3.99-0.00599-1.41-0.0128-2.81-0.0204-4.22-0.0176-3.81-0.0224-7.63-0.0236-11.4-0.00142-2.39-0.0057-4.77-0.011-7.16-0.0185-8.33-0.0267-16.7-0.0251-25 0.0012-7.75-0.0199-15.5-0.0515-23.3-0.0262-6.66-0.0369-13.3-0.0356-20 5.09e-4 -3.98-0.00513-7.95-0.0264-11.9-0.0194-3.74-0.0195-7.48-0.00497-11.2 0.00307-2.02-0.0136-4.04-0.0309-6.06 0.0576-8.35 0.755-14.3 6.89-20.5 4.79-2.97 9.21-3.87 14.8-3.9zm15.8 37.3c-0.0943 2.18-0.117 4.36-0.114 6.54-1.46e-4 0.683-2.92e-4 1.37-4.43e-4 2.07 6.99e-4 2.27 0.00849 4.53 0.0163 6.8 0.00186 1.57 0.00329 3.14 0.00429 4.7 0.00383 4.13 0.0137 8.27 0.0247 12.4 0.0102 4.22 0.0148 8.43 0.0198 12.6 0.0107 8.28 0.0278 16.6 0.0488 24.8 1.12-0.956 2.24-1.91 3.37-2.87 0.625-0.533 1.25-1.07 1.89-1.61 2.63-2.29 5.03-4.78 7.46-7.29 1.86-1.81 3.75-3.48 5.72-5.17 5.52-4.81 10.7-10 15.8-15.2 1.06-1.06 2.13-2.12 3.19-3.18 2.21-2.21 4.43-4.42 6.64-6.63 2.84-2.84 5.68-5.67 8.53-8.5 2.19-2.18 4.38-4.37 6.57-6.55 1.05-1.05 2.1-2.09 3.15-3.14 1.46-1.45 2.91-2.91 4.37-4.36 1.24-1.24 1.24-1.24 2.51-2.51 1.99-1.82 1.99-1.82 1.77-4.02-9.11-0.0231-18.2-0.0409-27.3-0.0518-4.23-0.00523-8.46-0.0123-12.7-0.0236-4.08-0.0108-8.16-0.0168-12.2-0.0194-1.56-0.00185-3.12-0.00547-4.68-0.0109-2.18-0.00721-4.35-0.00826-6.53-0.0078-1.24-0.00222-2.48-0.00444-3.76-0.00673-2.69-0.197-2.69-0.197-3.78 1.12z" fill="#000102"/>
</svg>
