<svg preserveAspectRatio="xMidYMid meet" data-bbox="28.39 12.89 304.119 69.36" height="50" viewBox="28.39 12.89 304.119 69.36" width="50" xmlns="http://www.w3.org/2000/svg" data-type="color" role="img" aria-label="ARISS Smart Home Automation solution www.ARISS.io">
    <g>
        <defs>
            <clipPath id="8bcc2d9f-5a55-4b80-8043-b8bcc569975a_comp-lklalgfj">
                <path d="M126.34 49.95h16.469v6.6h-16.47Zm0 0"/>
            </clipPath>
        </defs>
        <path d="m57.795 12.89 29.188 68.485h-7.438l-21.75-51.984-21.969 51.984H28.39Zm0 0" fill="#000" data-color="1"/>
        <path d="M120.417 81.375h-6.828V15.953H136.9c2.102 0 4.14.164 6.11.485 1.968.312 3.785.898 5.453 1.75 3.125 1.542 5.656 3.855 7.594 6.937 1.937 3.074 2.906 6.684 2.906 10.828 0 2.969-.469 5.668-1.406 8.094-.93 2.418-2.122 4.496-3.579 6.234-1.46 1.742-3.117 3.102-4.968 4.078-1.856.97-3.715 1.543-5.578 1.72a2147.97 2147.97 0 0 1 8.171 12.671 3563.35 3563.35 0 0 1 8.063 12.625h-8.14a4420.26 4420.26 0 0 1-7.86-12.36 19982.29 19982.29 0 0 0-7.86-12.453v-5.828c1.989 0 3.567-.035 4.735-.109 1.164-.07 2.437-.313 3.812-.719 1.133-.343 2.176-.953 3.125-1.828a12.897 12.897 0 0 0 2.453-3.125c.688-1.219 1.223-2.594 1.61-4.125.394-1.531.594-3.098.594-4.703 0-3.063-.586-5.633-1.75-7.719-1.168-2.093-2.758-3.707-4.766-4.843-1.2-.633-2.54-1.094-4.016-1.375a25.015 25.015 0 0 0-4.703-.422h-16.484Zm0 0" fill="#000" data-color="1"/>
        <path d="M187.056 15.953h6.828v65.422h-6.828Zm0 0" fill="#000" data-color="1"/>
        <path d="M243.583 82.25c-4.23 0-8.2-.805-11.907-2.406-3.699-1.602-6.921-4.114-9.671-7.531l4.906-4.11c1.926 2.512 4.336 4.527 7.234 6.047 2.906 1.512 6.11 2.266 9.61 2.266 2.101 0 4.007-.344 5.718-1.032 1.707-.687 3.156-1.613 4.344-2.78a12.262 12.262 0 0 0 2.781-4.11c.656-1.57.985-3.266.985-5.078 0-1.657-.297-3.098-.891-4.328a11.198 11.198 0 0 0-2.39-3.266c-.993-.945-2.172-1.77-3.547-2.469a49.167 49.167 0 0 0-4.282-1.922l-7.703-2.984a40.24 40.24 0 0 1-5.219-2.438 18.29 18.29 0 0 1-4.375-3.422 16.138 16.138 0 0 1-3.015-4.656c-.75-1.77-1.125-3.847-1.125-6.234 0-2.363.492-4.567 1.484-6.61a16.513 16.513 0 0 1 4.047-5.296c1.707-1.489 3.719-2.672 6.031-3.547 2.32-.875 4.844-1.313 7.563-1.313 3.875 0 7.11.559 9.703 1.672 2.601 1.106 5.039 2.649 7.312 4.625l-4.109 4.735c-1.75-1.665-3.656-2.942-5.719-3.829-2.054-.894-4.449-1.343-7.187-1.343-1.75 0-3.36.265-4.828.797-1.461.523-2.743 1.28-3.844 2.28a11.058 11.058 0 0 0-2.61 3.454c-.624 1.312-.937 2.742-.937 4.281 0 1.461.27 2.735.813 3.828a10.404 10.404 0 0 0 2.14 2.922c.895.844 1.953 1.594 3.172 2.25a33.01 33.01 0 0 0 3.906 1.766l7.438 2.984a44.857 44.857 0 0 1 5.578 2.625 21.185 21.185 0 0 1 4.781 3.594c1.406 1.398 2.524 3.055 3.36 4.969.832 1.906 1.25 4.172 1.25 6.797 0 2.656-.54 5.132-1.61 7.421a18.625 18.625 0 0 1-4.422 5.985c-1.875 1.71-4.086 3.039-6.625 3.984-2.543.945-5.258 1.422-8.14 1.422Zm0 0" fill="#000" data-color="1"/>
        <path d="M311.712 82.25c-4.23 0-8.2-.805-11.907-2.406-3.699-1.602-6.921-4.114-9.671-7.531l4.906-4.11c1.926 2.512 4.336 4.527 7.234 6.047 2.906 1.512 6.11 2.266 9.61 2.266 2.101 0 4.007-.344 5.718-1.032 1.707-.687 3.157-1.613 4.344-2.78a12.262 12.262 0 0 0 2.781-4.11c.657-1.57.985-3.266.985-5.078 0-1.657-.297-3.098-.891-4.328a11.198 11.198 0 0 0-2.39-3.266c-.993-.945-2.172-1.77-3.547-2.469a49.167 49.167 0 0 0-4.282-1.922l-7.703-2.984a40.24 40.24 0 0 1-5.219-2.438 18.29 18.29 0 0 1-4.375-3.422 16.138 16.138 0 0 1-3.015-4.656c-.75-1.77-1.125-3.847-1.125-6.234 0-2.363.492-4.567 1.484-6.61a16.513 16.513 0 0 1 4.047-5.296c1.707-1.489 3.719-2.672 6.031-3.547 2.32-.875 4.844-1.313 7.563-1.313 3.875 0 7.11.559 9.703 1.672 2.601 1.106 5.039 2.649 7.312 4.625l-4.109 4.735c-1.75-1.665-3.656-2.942-5.719-3.829-2.054-.894-4.449-1.343-7.187-1.343-1.75 0-3.36.265-4.828.797-1.461.523-2.743 1.28-3.844 2.28a11.058 11.058 0 0 0-2.61 3.454c-.624 1.312-.937 2.742-.937 4.281 0 1.461.27 2.735.813 3.828a10.404 10.404 0 0 0 2.14 2.922c.895.844 1.953 1.594 3.172 2.25a33.01 33.01 0 0 0 3.906 1.766l7.438 2.984a44.857 44.857 0 0 1 5.578 2.625 21.185 21.185 0 0 1 4.781 3.594c1.406 1.398 2.524 3.055 3.36 4.969.832 1.906 1.25 4.172 1.25 6.797 0 2.656-.54 5.132-1.61 7.421a18.625 18.625 0 0 1-4.422 5.985c-1.875 1.71-4.086 3.039-6.625 3.984-2.543.945-5.258 1.422-8.14 1.422Zm0 0" fill="#000" data-color="1"/>
        <g clip-path="url(#8bcc2d9f-5a55-4b80-8043-b8bcc569975a_comp-lklalgfj)">
            <path d="M126.34 49.95h16.597v6.866H126.34Zm0 0" fill="#000" data-color="1"/>
        </g>
    </g>
</svg>