<?xml version="1.0" encoding="UTF-8"?>
<svg version="1.1" viewBox="0 0 1600 1192" width="150" height="150" xmlns="http://www.w3.org/2000/svg">
<path transform="translate(497 38.9)" d="m0 0c1.1-0.00175 2.21-0.00351 3.34-0.00531 3.7-0.00465 7.4-0.0022 11.1 2.34e-4 2.68-0.00187 5.35-0.00413 8.03-0.00687 5.82-0.00515 11.6-0.00657 17.5-0.00554 8.66 0.00153 17.3-0.00264 26-0.00787 16.4-0.00967 32.7-0.0125 49.1-0.0131 12.6-4.6e-4 25.3-0.00252 37.9-0.0057 3.64-8.98e-4 7.28-0.00179 10.9-0.00267 0.905-2.21e-4 1.81-4.42e-4 2.74-6.7e-4 25.4-0.00615 50.9-0.0101 76.3-0.00966 0.959 1.56e-5 1.92 3.12e-5 2.91 4.72e-5 4.86 8.31e-5 9.73 1.82e-4 14.6 2.85e-4 0.966 1.99e-5 1.93 3.99e-5 2.93 6.04e-5 1.95 4.04e-5 3.91 8.22e-5 5.86 1.25e-4 30.4 6.13e-4 60.8-0.00689 91.1-0.0206 34.1-0.0154 68.3-0.024 102-0.023 3.64 7.46e-5 7.28 1.23e-4 10.9 1.54e-4 1.34 1.75e-5 1.34 1.75e-5 2.72 3.53e-5 14.4 3.07e-5 28.8-0.00635 43.3-0.015 14.5-0.00849 29-0.00946 43.5-0.00289 8.61 0.00369 17.2 0.00188 25.8-0.00794 5.76-0.00601 11.5-0.00469 17.3 0.00247 3.27 0.00387 6.55 0.00357 9.82-0.00346 34-0.0681 34-0.0681 47.9 4.94 0.747 0.261 1.49 0.521 2.26 0.79 24 8.66 41.9 26.2 52.7 49.1 3.96 8.96 7.37 19.6 6.87 29.4 4.4-2.34 7.67-5.44 11.1-8.99 0.573-0.581 1.15-1.16 1.74-1.76 2.44-2.47 4.86-4.95 7.29-7.43 8.56-8.74 16.6-16.6 27.7-22 0.699-0.342 1.4-0.683 2.12-1.04 16.8-8 35.4-8.78 53.1-2.95 18.1 6.47 32.1 19.1 41 36.2 7.92 17.2 9.95 36.8 4 55-1.06 2.75-2.24 5.41-3.5 8.06-0.277 0.6-0.554 1.2-0.84 1.82-6.21 12.1-17.4 22.1-26.9 31.6-1.19 1.19-2.37 2.37-3.56 3.56-3.18 3.18-6.36 6.36-9.55 9.54-3.35 3.34-6.69 6.69-10 10-5.61 5.61-11.2 11.2-16.8 16.8-6.48 6.47-13 12.9-19.4 19.4-6.92 6.92-13.8 13.8-20.8 20.7-1.99 1.98-3.97 3.97-5.96 5.96-3.12 3.12-6.24 6.23-9.36 9.35-1.14 1.14-2.29 2.28-3.43 3.42-1.56 1.56-3.12 3.12-4.69 4.68-1.31 1.31-1.31 1.31-2.65 2.64-2.47 2.35-2.47 2.35-5.23 4.53-2.32 1.62-2.32 1.62-3.24 3.81-0.101 2.27-0.134 4.55-0.139 6.82-0.00284 0.713-0.00568 1.43-0.00861 2.16-0.00839 2.41-0.00962 4.83-0.0109 7.24-0.00456 1.74-0.00956 3.48-0.015 5.21-0.0136 4.8-0.021 9.59-0.0274 14.4-0.00798 5.16-0.0217 10.3-0.0347 15.5-0.0218 8.95-0.0399 17.9-0.0556 26.9-0.0227 12.9-0.0508 25.9-0.0803 38.8-0.0477 21-0.091 42-0.131 63-0.0393 20.4-0.0808 40.8-0.125 61.2-0.00409 1.89-0.00409 1.89-0.00826 3.81-0.0137 6.31-0.0274 12.6-0.0411 18.9-0.114 52.3-0.221 105-0.323 157 0.689-0.00277 1.38-0.00553 2.09-0.00838 16.8-0.0663 33.6-0.116 50.4-0.147 8.12-0.0155 16.2-0.0365 24.4-0.0709 7.08-0.0299 14.2-0.0493 21.2-0.0559 3.75-0.00391 7.49-0.0131 11.2-0.0349 4.18-0.0242 8.37-0.0248 12.6-0.0234 1.86-0.0162 1.86-0.0162 3.75-0.0327 7.1 0.0256 12.8 0.193 18.4 5.06 0.458 0.579 0.915 1.16 1.39 1.75 0.471 0.576 0.941 1.15 1.43 1.75 2.89 4.17 3.51 7.09 3.53 12.2 0.00853 1.31 0.0171 2.63 0.0258 3.98-6.99e-4 1.46-0.00162 2.91-0.00275 4.37 0.00599 1.53 0.0128 3.07 0.0204 4.6 0.0177 4.17 0.0224 8.33 0.0236 12.5 0.00142 2.61 0.00569 5.21 0.011 7.82 0.0185 9.09 0.0267 18.2 0.0251 27.3-0.0012 8.47 0.0199 16.9 0.0515 25.4 0.0262 7.28 0.0369 14.6 0.0356 21.8-5.09e-4 4.34 0.00515 8.69 0.0264 13 0.0194 4.09 0.0195 8.17 0.00497 12.3-0.00209 1.5 0.0026 2.99 0.0147 4.49 0.0675 8.91 0.00494 15.9-6.07 22.8-5.94 5.42-12.3 5.03-20 4.9-1.36-0.00169-2.72-7.38e-4 -4.08 0.00266-3.67 0.00171-7.35-0.0334-11-0.0754-3.85-0.0376-7.69-0.041-11.5-0.0482-7.27-0.0186-14.5-0.0678-21.8-0.128-8.29-0.0672-16.6-0.1-24.9-0.13-17-0.0626-34.1-0.168-51.1-0.302 0.00622 0.799 0.0124 1.6 0.0188 2.42 0.0249 3.66 0.0402 7.33 0.0554 11 0.0149 1.89 0.0149 1.89 0.0302 3.81 0.0846 27.2-9.06 49.5-28.1 68.8-0.581 0.654-1.16 1.31-1.76 1.98-14.9 16.4-38.9 23.6-60.2 25-9.15 0.332-18.3 0.259-27.5 0.232-3.71-0.00873-7.41-0.00571-11.1-0.0042-6.4 0.00104-12.8-0.00517-19.2-0.0165-9.26-0.0163-18.5-0.0215-27.8-0.024-15-0.00436-30.1-0.0176-45.1-0.0366-14.6-0.0184-29.2-0.0325-43.8-0.041-0.901-5.25e-4 -1.8-0.00105-2.73-0.00159-4.52-0.00261-9.04-0.00514-13.6-0.00762-37.4-0.0207-74.9-0.0564-112-0.101v-38c3.83-0.00365 7.65-0.00729 11.6-0.011 35.1-0.0353 70.2-0.0904 105-0.167 4.61-0.01 9.21-0.0199 13.8-0.0296 0.917-0.00194 1.83-0.00388 2.78-0.00588 14.8-0.031 29.7-0.048 44.5-0.0598 15.2-0.0124 30.5-0.04 45.7-0.0814 9.39-0.0251 18.8-0.0385 28.2-0.0368 6.45 2.99e-5 12.9-0.0147 19.3-0.0407 3.71-0.0146 7.43-0.0229 11.1-0.0136 27.1 0.203 27.1 0.203 51.6-10.6 0.718-0.722 1.44-1.44 2.18-2.19 1.82-1.81 1.82-1.81 3.82-1.81 0.271-0.583 0.541-1.17 0.82-1.77 1.17-2.22 2.49-4.02 4.05-5.98 9.27-12.2 10.2-25.4 10.7-40.2 0.0432-1.16 0.0864-2.31 0.131-3.5 0.105-2.83 0.207-5.66 0.307-8.5-1.39 0.00342-1.39 0.00342-2.8 0.0069-54.7 0.134-109 0.237-164 0.299-6.57 0.0075-13.1 0.0153-19.7 0.0232-1.31 0.00157-2.62 0.00315-3.96 0.00477-21.2 0.0261-42.4 0.0734-63.6 0.129-21.7 0.0561-43.5 0.0894-65.2 0.102-13.4 0.00824-26.8 0.0343-40.2 0.083-9.19 0.0317-18.4 0.0413-27.6 0.0335-5.31-0.00385-10.6 0.00212-15.9 0.0342-4.86 0.0292-9.72 0.0307-14.6 0.0102-1.76-0.00254-3.52 0.00509-5.27 0.0239-15.9 0.16-15.9 0.16-21.6-5.13-6.35-7.51-5.96-15.3-5.92-24.8-0.00871-1.53-0.0191-3.07-0.031-4.6-0.0267-4.15-0.0279-8.29-0.0229-12.4 0.00215-3.47-0.00764-6.94-0.0172-10.4-0.0222-8.19-0.0231-16.4-0.011-24.6 0.0121-8.43-0.0126-16.9-0.0551-25.3-0.0353-7.25-0.0472-14.5-0.0407-21.8 0.00362-4.33-0.00156-8.65-0.0294-13-0.0252-4.07-0.0212-8.14 0.00482-12.2 0.00471-1.49-6.74e-4 -2.98-0.0172-4.46-0.0783-7.58 0.149-13.8 4.7-20.2 0.682-0.633 1.36-1.27 2.07-1.92 0.686-0.657 0.686-0.657 1.38-1.33 6.92-5.48 15.8-4.35 24.1-4.27 1.81-0.00218 3.61-0.00656 5.42-0.0129 4.95-0.0112 9.91 0.00881 14.9 0.0339 5.34 0.0216 10.7 0.0143 16 0.0105 9.26-0.00262 18.5 0.0131 27.8 0.0412 13.4 0.0406 26.8 0.0537 40.2 0.0599 21.7 0.0109 43.4 0.0442 65.1 0.0915 21.1 0.0459 42.2 0.0812 63.3 0.103 1.31 0.00134 2.63 0.00268 3.98 0.00406 10.3 0.0104 20.5 0.0202 30.8 0.0298 50.3 0.0472 101 0.148 151 0.241v-383c-4.77 4.17-9.32 8.2-13.8 12.6-0.497 0.496-0.994 0.992-1.51 1.5-1.03 1.03-2.06 2.06-3.09 3.1-1.58 1.59-3.17 3.17-4.75 4.75-1.01 1.01-2.02 2.02-3.03 3.03-0.907 0.909-1.81 1.82-2.75 2.75-2.13 2.04-2.13 2.04-3.1 4.23h-2v2h-2v2c-1.38 1.62-1.38 1.62-3 3h-2v2h-2v2h-2c-0.33 0.99-0.66 1.98-1 3h-2v2h-2v2h-2v2c-1.5 1.48-1.5 1.48-3.56 3.19-3.41 2.9-6.58 5.92-9.7 9.12-2.29 2.22-4.79 4.14-7.36 6.04-3.74 4.46-2.52 12.4-2.5 18-0.00106 1.55-0.00106 1.55-0.00214 3.14-0.00131 3.47 0.00436 6.94 0.00987 10.4 2.42e-4 2.49-3.51e-5 4.98-7.93e-4 7.47-9.63e-4 4.67-4.8e-4 9.33 0.0022 14 0.00513 9.17-0.00324 18.3-0.0166 27.5-0.00205 1.44-0.00409 2.89-0.00613 4.33-0.00416 2.93-0.00837 5.85-0.0126 8.78-0.0108 7.51-0.0206 15-0.029 22.5-8.51e-4 0.754-0.0017 1.51-0.00258 2.28-0.0132 12.2-0.0082 24.4 0.00265 36.6 0.0106 12.6-0.00157 25.1-0.0341 37.7-0.0193 7.74-0.0203 15.5 0.00216 23.2 0.0154 5.93-6.47e-4 11.9-0.0283 17.8-0.00637 2.43-0.00251 4.86 0.0124 7.29 0.0189 3.32 7.5e-4 6.64-0.0264 9.96 0.0214 1.44 0.0214 1.44 0.0432 2.9-0.115 6.99-2.24 11.5-6.8 16.8-5.23 4.08-10.7 4.13-17.1 4.13-1.06 0.00353-1.06 0.00353-2.15 0.00713-2.38 0.00667-4.76 0.00623-7.15 0.00582-1.72 0.0033-3.45 0.00703-5.17 0.0111-4.74 0.01-9.48 0.0137-14.2 0.0164-5.11 0.0039-10.2 0.0135-15.3 0.0222-12.3 0.0198-24.7 0.0298-37 0.0387-5.81 0.00438-11.6 0.00975-17.4 0.015-19.3 0.017-38.6 0.0315-57.9 0.0387-5.01 0.00191-10 0.00383-15 0.00579-1.25 4.84e-4 -2.49 9.67e-4 -3.77 0.00147-20.2 0.00831-40.4 0.0337-60.5 0.0661-20.7 0.033-41.4 0.0511-62.1 0.0543-11.6 0.00217-23.3 0.0109-34.9 0.0365-9.9 0.0217-19.8 0.0298-29.7 0.02-5.05-0.00455-10.1-0.0026-15.2 0.0168-4.63 0.0176-9.25 0.0167-13.9 0.0011-1.67-0.00238-3.35 0.00199-5.02 0.0138-17.4 0.116-17.4 0.116-23.8-5.92-4.83-5.36-5.8-10.3-5.82-17.3-0.01-0.762-0.0201-1.52-0.0304-2.31-0.0308-2.51-0.0479-5.01-0.0648-7.52-0.0187-1.74-0.0383-3.48-0.0587-5.22-0.0513-4.58-0.0909-9.15-0.128-13.7-0.0401-4.67-0.0911-9.34-0.141-14-0.0967-9.16-0.181-18.3-0.258-27.5-0.676-0.109-1.35-0.218-2.05-0.33-3.11-0.505-6.23-1.01-9.34-1.52-1.06-0.171-2.12-0.343-3.22-0.519-22.4-3.68-43.4-10.9-63.4-21.6-0.902-0.481-0.902-0.481-1.82-0.972-15.5-8.35-30.7-18.9-42.8-31.7-1.33-1.43-1.33-1.43-3.34-2.31v-2h-2c-1.48-1.47-1.48-1.47-3.19-3.5-2.68-3.18-2.68-3.18-5.44-6.29-27.1-29.7-42.2-67.9-48.4-107-0.113-0.71-0.225-1.42-0.342-2.15-6.63-49.4 6.49-103 36.4-143 4.4-5.74 9.1-11.2 14.1-16.4 1.91-1.9 1.91-1.9 2.86-4.04h2c0.259-0.584 0.518-1.17 0.785-1.77 4.32-7.94 13.3-13.7 20.2-19.2 0.966-0.794 1.93-1.59 2.93-2.41 35-28.1 79.9-41.8 124-41.8 0.798-0.00101 1.6-0.00201 2.42-0.00305 13 0.0111 25.6 0.72 38.3 3.25 1.12 0.217 1.12 0.217 2.26 0.438 39 7.77 72.9 27.2 102 53.9 0.664 0.607 1.33 1.21 2.01 1.84 0.617 0.576 1.23 1.15 1.87 1.75 0.553 0.514 1.11 1.03 1.68 1.56 1.32 1.48 1.32 1.48 2.32 4.48h2c2.76 2.97 5.22 6.2 7.72 9.39 1.22 1.54 2.46 3.05 3.71 4.57 10.7 13.3 18.5 28 25.1 43.7 1.12 3.15 1.12 3.15 2.46 4.37 1.66 0.0983 3.33 0.126 5 0.127 1.08 0.00282 2.17 0.00564 3.28 0.00854 1.2-0.00202 2.4-0.00405 3.63-0.00613 1.26 0.00175 2.51 0.0035 3.8 0.00531 3.45 0.00458 6.91 0.00278 10.4-3.79e-4 3.62-0.00253 7.23-1.85e-4 10.8 0.00139 6.08 0.00182 12.2-5.85e-4 18.2-0.00534 7.02-0.00543 14-0.00369 21.1 0.00183 6.03 0.00455 12.1 0.00517 18.1 0.00256 3.6-0.00155 7.2-0.00178 10.8 0.00154 4.02 0.00345 8.04-0.00134 12.1-0.0069 1.19 0.00202 2.37 0.00405 3.59 0.00613 10.4 0.456 10.4 0.456 19.8-2.85 0.722-0.744 1.44-1.49 2.19-2.25 0.834-0.841 1.67-1.68 2.53-2.55 0.871-0.914 1.74-1.83 2.64-2.77 1.4-1.42 2.8-2.84 4.2-4.27 1.95-1.99 3.88-3.99 5.81-5.99 3.4-3.51 6.82-7 10.2-10.5 1.82-1.86 3.63-3.72 5.44-5.59 0.815-0.838 1.63-1.68 2.47-2.54 0.718-0.743 1.44-1.49 2.17-2.25 1.78-1.59 1.78-1.59 3.78-1.59v-2c1.44-1.41 1.44-1.41 3.45-3.07 5.58-4.74 10.6-9.98 15.7-15.2 0.724-0.735 1.45-1.47 2.2-2.23 0.651-0.668 1.3-1.34 1.97-2.02 1.66-1.45 1.66-1.45 3.66-1.45 0.227-0.557 0.454-1.11 0.688-1.69 1.69-2.97 3.78-5.03 6.31-7.31h2v-2h2c0.33-0.99 0.66-1.98 1-3h2v-2h2v-2h2v-2h2c0.33-0.99 0.66-1.98 1-3h2v-2h2v-2h2v-2c2.38-2.63 2.38-2.63 5-5h2v-2h2v-2c1.61-1.55 1.61-1.55 3.75-3.31 3.17-2.68 5.68-5.43 8.25-8.69h2v-2c1.37-1.39 1.37-1.39 3.32-3.03 0.735-0.625 1.47-1.25 2.23-1.9 0.809-0.684 1.62-1.37 2.45-2.07 32.2-24.9 32.2-24.9 49.3-59.2 0.108-7.83-1.31-15.3-3.28-22.8-0.372-1.89-0.733-3.78-1.08-5.67-2.9-14.3-11.1-26.1-22.9-34.4-9.81-6.3-19.9-9.07-31.5-9.55-0.809-0.0376-1.62-0.0752-2.45-0.114-11.3-0.47-22.6-0.411-33.9-0.403-2.57-0.00187-5.15-0.00417-7.72-0.00687-5.56-0.00512-11.1-0.00658-16.7-0.00554-8.27 0.00153-16.5-0.00266-24.8-0.00787-15.6-0.00964-31.3-0.0125-46.9-0.0131-12.1-4.61e-4 -24.2-0.00252-36.2-0.0057-3.48-8.98e-4 -6.97-0.00179-10.5-0.00267-0.866-2.21e-4 -1.73-4.42e-4 -2.62-6.7e-4 -24.3-0.00615-48.7-0.0101-73-0.00966-1.37 2.34e-5 -1.37 2.34e-5 -2.78 4.72e-5 -4.64 8.31e-5 -9.29 1.82e-4 -13.9 2.85e-4 -0.922 1.99e-5 -1.84 3.99e-5 -2.79 6.04e-5 -1.86 4.04e-5 -3.73 8.22e-5 -5.59 1.25e-4 -29 6.13e-4 -58-0.0069-87.1-0.0206-32.6-0.0154-65.3-0.024-97.9-0.023-3.48 7.46e-5 -6.97 1.23e-4 -10.5 1.54e-4 -0.858 1.17e-5 -1.72 2.33e-5 -2.6 3.53e-5 -13.8 3.07e-5 -27.5-0.00634-41.3-0.015-13.8-0.00849-27.7-0.00945-41.5-0.00289-8.22 0.00368-16.4 0.0019-24.7-0.00794-6.15-0.00674-12.3-0.00292-18.4 0.00487-2.48 0.00153-4.95-2.69e-4 -7.43-0.00586-11-0.0232-21.9 0.021-32.9 1.14-1.13 0.115-1.13 0.115-2.28 0.232-14 1.64-26.1 9.57-35.2 20.3-11.8 16.7-12 33.7-12 53.2-0.00457 2.01-0.00957 4.02-0.015 6.03-0.0135 5.51-0.021 11-0.0274 16.5-0.00802 5.94-0.0217 11.9-0.0347 17.8-0.0232 11-0.042 21.9-0.0587 32.9-0.0155 10.1-0.0332 20.2-0.0531 30.4-0.00132 0.672-0.00264 1.34-0.00399 2.04-0.0067 3.41-0.0134 6.82-0.0202 10.2-0.0477 24.1-0.0909 48.3-0.131 72.4-0.0394 23.5-0.0808 46.9-0.125 70.4-0.00136 0.723-0.00273 1.45-0.00413 2.19-0.0137 7.26-0.0274 14.5-0.0412 21.8-0.028 14.8-0.0558 29.6-0.0833 44.4-0.00127 0.68-0.00254 1.36-0.00384 2.06-0.0846 45.4-0.163 90.8-0.24 136h-36c-0.744-5.21-1.14-10-1.13-15.2-0.00145-0.803-0.00291-1.61-0.0044-2.43-0.00365-2.69-1.79e-4 -5.38 0.00326-8.07-0.00115-1.95-0.00274-3.9-0.00473-5.85-0.00418-5.36-0.00211-10.7 9.86e-4 -16.1 0.00226-5.78-0.00123-11.6-0.00398-17.3-0.00445-11.3-0.00348-22.6-5.87e-4 -34 0.00226-9.2 0.00256-18.4 0.00148-27.6-1.53e-4 -1.31-3.06e-4 -2.62-4.64e-4 -3.97-3.2e-4 -2.66-6.44e-4 -5.32-9.73e-4 -7.98-0.00287-24.3 1.05e-4 -48.5 0.00534-72.8 0.00474-22.1 0.00433-44.2-4.61e-4 -66.3-0.00536-24.9-0.00747-49.7-0.00439-74.6 3.19e-4 -2.65 6.33e-4 -5.31 9.43e-4 -7.96 1.54e-4 -1.31 3.09e-4 -2.61 4.68e-4 -3.96 8.62e-4 -9.18-5.91e-4 -18.4-0.00295-27.6-0.00281-11.2-0.00203-22.4 0.00328-33.6 0.00262-5.71 0.00367-11.4 3.51e-4 -17.1-3e-3 -5.24-0.00131-10.5 0.00398-15.7 0.00111-1.89 5.68e-4 -3.77-0.00188-5.66-0.0416-34.8 4.97-63.8 30.4-89.5 18.9-17.6 42.6-23.9 67.9-23.8zm780 85.1c-1.05 0.884-1.05 0.884-2.12 1.79-1.64 1.39-3.26 2.8-4.88 4.21 1.53 3.62 3.68 5.92 6.45 8.68 0.921 0.921 1.84 1.84 2.79 2.79 1.01 0.996 2.01 1.99 3.02 2.99 1.03 1.03 2.06 2.05 3.09 3.08 2.7 2.69 5.41 5.38 8.12 8.07 2.77 2.74 5.52 5.5 8.28 8.25 5.41 5.39 10.8 10.8 16.3 16.2 1.12-0.959 2.25-1.92 3.37-2.88 0.626-0.534 1.25-1.07 1.9-1.62 7.77-6.75 13.2-15.1 14.7-25.4 0.513-9.8-2.71-18.6-9-26.1-6.22-6.87-13.2-10.4-22.5-11.4-12.4-0.419-20.3 3.42-29.5 11.4zm-37.6 37.4c-1.09 1.09-2.17 2.19-3.24 3.29-0.577 0.583-1.15 1.17-1.75 1.77-1.86 1.87-3.71 3.75-5.55 5.64-1.83 1.86-3.66 3.71-5.49 5.56-1.14 1.15-2.28 2.31-3.41 3.47-2.79 2.83-5.64 5.52-8.66 8.1-4.41 3.84-8.55 7.91-12.7 12.1-1.19 1.19-1.19 1.19-2.4 2.4-2.6 2.6-5.19 5.2-7.78 7.8-1.81 1.82-3.63 3.63-5.45 5.45-4.28 4.28-8.55 8.56-12.8 12.8-4.85 4.86-9.7 9.72-14.6 14.6-8.3 8.31-16.6 16.6-24.9 24.9-1.33 1.33-2.66 2.67-4 4-1.09 1.1-2.19 2.2-3.28 3.3-2.17 2.19-4.34 4.24-6.77 6.14-1.33 1.14-1.33 1.14-2.69 2.31v2h-2c-2.67 2.33-2.67 2.33-5 5v2h-2c-1.69 1.98-3.35 3.98-5 6-0.66 0.33-1.32 0.66-2 1v2h-2v2h-2c-1.67 1.33-1.67 1.33-3 3v2h-2v2h-2v2h-2c-1.67 1.33-1.67 1.33-3 3v2h-2v2h-2v2c-0.99 0.33-1.98 0.66-3 1v2h-2v2h-2v2c-0.897 0.402-0.897 0.402-1.81 0.812-2.19 1.19-3.6 2.28-5.19 4.19v2h-2v2h-2v2c-0.99 0.33-1.98 0.66-3 1v2c-1.98 0.99-1.98 0.99-4 2v2c-0.885 0.398-0.885 0.398-1.79 0.804-2.28 1.23-3.77 2.51-5.6 4.34-0.649 0.646-1.3 1.29-1.97 1.96-0.701 0.708-1.4 1.42-2.12 2.15-0.747 0.746-1.49 1.49-2.26 2.26-2.47 2.47-4.93 4.95-7.39 7.42-1.71 1.72-3.43 3.43-5.14 5.15-4.51 4.52-9.02 9.05-13.5 13.6-4.59 4.61-9.18 9.21-13.8 13.8-8.63 8.65-17.3 17.3-25.9 26-1.52 1.52-3.04 3.04-4.56 4.57 15.8 15.8 31.7 31.7 48 48 3.3-1.65 4.84-2.59 7.31-5.07 0.637-0.633 1.27-1.27 1.93-1.92 0.691-0.697 1.38-1.39 2.09-2.11 0.74-0.739 1.48-1.48 2.24-2.24 2.49-2.49 4.97-4.98 7.45-7.47 1.78-1.78 3.56-3.56 5.34-5.34 3.83-3.84 7.66-7.68 11.5-11.5 5.54-5.56 11.1-11.1 16.6-16.7 9-9.01 18-18 27-27 0.538-0.54 1.08-1.08 1.63-1.64 0.539-0.54 1.08-1.08 1.63-1.64 7.64-7.66 15.3-15.3 22.9-23 0.538-0.539 1.08-1.08 1.63-1.63 8.96-8.98 17.9-18 26.9-26.9 5.53-5.54 11.1-11.1 16.6-16.6 4.23-4.24 8.47-8.49 12.7-12.7 1.74-1.74 3.48-3.49 5.22-5.23 2.37-2.37 4.73-4.75 7.1-7.12 0.693-0.697 1.39-1.39 2.1-2.11 0.634-0.633 1.27-1.27 1.92-1.92 0.547-0.548 1.09-1.1 1.66-1.66 1.53-1.41 1.53-1.41 4.53-3.41v-2c0.589-0.262 1.18-0.523 1.79-0.793 2.33-1.27 3.82-2.61 5.65-4.52 0.606-0.623 1.21-1.25 1.84-1.89 0.57-0.594 1.14-1.19 1.73-1.8 3.5-3.59 7.15-6.79 11-10 2.81-2.56 2.81-2.56 5-5v-2h2c1.69-1.98 3.35-3.98 5-6 0.66-0.33 1.32-0.66 2-1v-2h2v-2h2c1.67-1.33 1.67-1.33 3-3v-2h2v-2h2v-2h2c1.67-1.33 1.67-1.33 3-3v-2h2v-2h2v-2h2v-2c1.49-0.495 1.49-0.495 3-1v-2h2v-2h2v-2h2v-2c1.49-0.495 1.49-0.495 3-1v-2h2v-2h2v-2h2c1.67-1.33 1.67-1.33 3-3v-2h2v-2c0.619-0.248 1.24-0.495 1.88-0.75 2.5-1.47 2.96-2.66 4.12-5.25-0.583-0.51-1.17-1.02-1.77-1.55-5.66-5.02-11.1-10.2-16.3-15.6-1.28-1.31-2.6-2.56-3.94-3.81h-2v-2c-1.5-1.52-1.5-1.52-3.48-3.1-5.34-4.54-10.2-9.53-15.1-14.6-0.679-0.69-1.36-1.38-2.06-2.09-0.609-0.626-1.22-1.25-1.85-1.9-2.81-2.43-3.46-1.46-6.15 1.01zm-651 109c-0.947 0.657-1.89 1.31-2.87 1.99-2.75 1.96-5.44 3.97-8.13 6.01-0.785 0.579-1.57 1.16-2.38 1.75-34.3 26.1-56.9 67.5-62.7 110-5.01 42.7 5.79 87.9 32.4 122 3.69 4.59 7.54 8.97 11.6 13.2 0.794 0.857 1.59 1.71 2.41 2.6 26.4 27.6 62.3 43.9 99.6 50.4h4c0.00147-1.16 0.00293-2.33 0.00444-3.52 0.0357-27.6 0.092-55.2 0.173-82.8 0.01-3.4 0.0199-6.8 0.0296-10.2 0.00291-1.02 0.00291-1.02 0.00588-2.05 0.031-11 0.048-21.9 0.0598-32.9 0.0124-11.2 0.0402-22.5 0.0814-33.7 0.0226-6.31 0.0383-12.6 0.0373-18.9-7.45e-4 -5.94 0.0171-11.9 0.0493-17.8 0.00851-2.18 0.0102-4.36 0.00463-6.54-0.00664-2.98 0.0113-5.96 0.0352-8.94-0.00776-0.86-0.0155-1.72-0.0235-2.61 0.0914-6.44 1.67-11.7 5.96-16.6 5.47-5.26 13.7-4.07 20.8-4.03 1.55-0.00846 3.1-0.0191 4.64-0.0318 4.19-0.0281 8.37-0.0257 12.6-0.0177 4.38 0.00313 8.76-0.0219 13.1-0.044 8.29-0.0374 16.6-0.0496 24.9-0.0526 9.44-0.00469 18.9-0.0376 28.3-0.0729 19.4-0.0719 38.8-0.108 58.2-0.122-1.5-4.7-3.39-8.79-5.94-13-0.392-0.649-0.784-1.3-1.19-1.97-24.3-39.3-63.2-64.6-107-75.5-42.8-10.1-92.2-1.72-128 23.4zm111 104v204c40-6.15 72.2-21.9 102-49 0.917-0.831 1.83-1.66 2.78-2.52 29.2-27.8 44.7-70.2 46.2-110 0.286-13.7-0.843-28.2-3.98-41.6-1.05-1.27-1.05-1.27-3.4-1.12-1.08 9.22e-4 -2.15 0.00184-3.26 0.00279-1.84-0.00207-1.84-0.00207-3.72-0.00417-1.38 0.00355-2.76 0.00719-4.13 0.0109-1.46 3.06e-4 -2.92 1.73e-4 -4.39-3.65e-4 -3.93-2.27e-4 -7.86 0.00559-11.8 0.0126-3.68 0.00568-7.36 0.00596-11 0.00668-10.8 0.00526-21.6 0.0192-32.3 0.0321-24.1 0.0206-48.1 0.0412-72.9 0.0625zm184 0c0.99 8.91 0.99 8.91 2 18 0.176 3.17 0.325 6.25 0.336 9.41 0.0126 1.16 0.0126 1.16 0.0255 2.34 0.0192 2.44 0.0198 4.87 0.0135 7.31-8.76e-4 0.846-0.00175 1.69-0.00266 2.56-0.164 48.3-17.5 98.2-51.4 133-1.19 1.37-2.38 2.74-3.56 4.12-7.21 8.21-15.1 15-23.8 21.6-1.46 1.11-2.91 2.24-4.36 3.38-29.3 22.3-64.1 32.9-100 38.4-2.27 0.225-2.27 0.225-3.32 1.46-0.0937 1.75-0.117 3.5-0.114 5.25 7.55e-5 1.12 1.51e-4 2.24 2.29e-4 3.4 0.00516 1.22 0.0103 2.44 0.0156 3.7 0.00141 1.24 0.00283 2.48 0.00429 3.76 0.00466 3.31 0.0137 6.61 0.0247 9.92 0.0102 3.37 0.0148 6.74 0.0198 10.1 0.0111 6.62 0.0278 13.2 0.0488 19.9 47.5 0.15 95 0.295 142 0.433 5.6 0.0163 11.2 0.0326 16.8 0.0489 1.11 0.00325 2.23 0.00651 3.38 0.00986 18.1 0.0528 36.2 0.109 54.2 0.167 18.5 0.0591 37.1 0.114 55.6 0.166 11.4 0.0321 22.9 0.0671 34.3 0.106 7.84 0.0263 15.7 0.049 23.5 0.0687 4.53 0.0115 9.06 0.0247 13.6 0.0422 4.14 0.016 8.28 0.0274 12.4 0.035 1.5 0.0036 3.01 0.00893 4.51 0.0161 2.03 0.00944 4.07 0.0122 6.1 0.0145 1.13 0.00342 2.26 0.00683 3.43 0.0104 2.62 0.0626 2.62 0.0626 4.64-1.12 1.26-4.22 1.14-8.52 1.12-12.9 8.54e-4 -0.788 0.00171-1.58 0.00259-2.39 0.00165-2.64-0.00385-5.28-0.00932-7.91-2.82e-4 -1.89-1.24e-4 -3.78 4.43e-4 -5.68 2.87e-4 -5.14-0.0056-10.3-0.0126-15.4-0.00625-5.37-0.00684-10.7-0.00803-16.1-0.00311-10.2-0.0113-20.3-0.0213-30.5-0.0112-11.6-0.0167-23.1-0.0217-34.7-0.0105-23.8-0.028-47.6-0.0503-71.4-3.51 2.05-6.29 4.06-9.14 6.96-0.781 0.791-1.56 1.58-2.37 2.4-0.83 0.85-1.66 1.7-2.52 2.58-1.78 1.8-3.56 3.6-5.34 5.4-2.79 2.84-5.58 5.67-8.37 8.51-2.7 2.74-5.4 5.48-8.11 8.21-0.828 0.85-1.66 1.7-2.51 2.58-7.74 7.81-14.3 9.96-24.9 12.1-1.22 0.255-2.45 0.51-3.71 0.773-2.64 0.547-5.27 1.09-7.91 1.63-3.41 0.697-6.82 1.4-10.2 2.11-6.99 1.45-14 2.89-21 4.3-3.59 0.726-7.18 1.46-10.8 2.2-3.56 0.737-7.13 1.46-10.7 2.18-1.96 0.398-3.93 0.807-5.89 1.22-8.54 1.7-17.6 3.5-26.1 0.641-4.29-3.11-7.07-6.69-8.5-11.8-0.242-5.92 0.419-11.2 1.6-17 0.171-0.865 0.341-1.73 0.517-2.62 0.562-2.84 1.14-5.67 1.71-8.51 0.397-1.98 0.793-3.97 1.19-5.95 0.83-4.15 1.67-8.3 2.5-12.5 1.07-5.3 2.13-10.6 3.19-15.9 0.817-4.1 1.64-8.19 2.46-12.3 0.393-1.95 0.784-3.91 1.17-5.86 0.547-2.74 1.1-5.48 1.66-8.22 0.158-0.797 0.315-1.59 0.477-2.41 3.08-15 3.08-15 8.07-20.2 0.795-0.833 1.59-1.67 2.41-2.52 1.01-1.02 2.02-2.03 3.03-3.04 0.631-0.638 1.26-1.28 1.91-1.93 5.35-5.41 10.7-10.8 16.1-16.1 3.2-3.18 6.4-6.35 9.6-9.54 1.11-1.09 1.11-1.09 2.23-2.21 0.672-0.668 1.34-1.34 2.04-2.03 0.595-0.589 1.19-1.18 1.8-1.79 1.38-1.19 1.38-1.19 1.27-2.38h-89zm71 94c-0.884 3.91-1.76 7.83-2.62 11.7-0.295 1.33-0.592 2.66-0.894 3.99-0.433 1.91-0.853 3.83-1.27 5.75-0.257 1.15-0.513 2.3-0.778 3.49-0.659 3.21-0.659 3.21 0.563 7.02 14.9-2.97 14.9-2.97 30-6 0-3.6-1.02-4.37-3.46-6.85-0.497-0.488-0.994-0.975-1.51-1.48-0.506-0.506-1.01-1.01-1.53-1.53-1.07-1.07-2.15-2.13-3.22-3.19-1.65-1.63-3.29-3.27-4.93-4.92-1.04-1.04-2.08-2.07-3.12-3.1-0.493-0.494-0.986-0.987-1.49-1.5-2.42-2.66-2.42-2.66-5.73-3.43zm-105 316c-0.0886 2.74-0.115 5.45-0.0977 8.19 0.00101 0.726 0.00201 1.45 0.00305 2.2 0.00525 2.72 0.0192 5.45 0.0321 8.17 0.0206 6.08 0.0412 12.2 0.0625 18.4h-37v-37h-38v112h563v-112h-38v37c-11.9-0.33-23.8-0.66-36-1-0.33-11.9-0.66-23.8-1-36-5.25-0.165-10.5-0.328-15.8-0.482-1.79-0.0535-3.58-0.109-5.36-0.166-2.56-0.0817-5.13-0.157-7.69-0.231-0.804-0.027-1.61-0.0541-2.44-0.0819-1.92-0.052-3.84-0.051-5.75-0.0392-1.41 1.18-1.41 1.18-1.11 4.51 2.51e-4 1.56 0.00581 3.12 0.0159 4.68 0.00101 0.726 0.00201 1.45 0.00305 2.2 0.00525 2.72 0.0192 5.45 0.0321 8.17l0.0625 18.4h-37v-37h-38v37h-37v-37h-38v37h-37v-37c-6.08-0.186-12.2-0.371-18.4-0.562-1.92-0.0613-3.85-0.123-5.83-0.186-1.52-0.0439-3.03-0.0875-4.55-0.131-0.794-0.0267-1.59-0.0534-2.41-0.0809-1.93-0.0524-3.86-0.0521-5.79-0.0402-1.41 1.18-1.41 1.18-1.11 4.51 2.51e-4 1.56 0.00581 3.12 0.0159 4.68 0.00101 0.726 0.00201 1.45 0.00305 2.2 0.00525 2.72 0.0192 5.45 0.0321 8.17 0.0309 9.13 0.0309 9.13 0.0625 18.4h-37v-37c-6.08-0.186-12.2-0.371-18.4-0.562-1.92-0.0613-3.85-0.123-5.83-0.186-1.52-0.0439-3.03-0.0875-4.55-0.131-0.794-0.0267-1.59-0.0534-2.41-0.0809-1.93-0.0524-3.86-0.0521-5.79-0.0402-1.41 1.18-1.41 1.18-1.11 4.51 2.51e-4 1.56 0.00581 3.12 0.0159 4.68 0.00101 0.726 0.00201 1.45 0.00305 2.2 0.00525 2.72 0.0192 5.45 0.0321 8.17 0.0309 9.13 0.0309 9.13 0.0625 18.4h-37v-37c-6.08-0.186-12.2-0.371-18.4-0.562-2.88-0.092-2.88-0.092-5.83-0.186-1.52-0.0439-3.03-0.0875-4.55-0.131-0.794-0.0267-1.59-0.0534-2.41-0.0809-3.69-0.469-3.69-0.469-6.79 0.96z" fill="#000100"/>
<path transform="translate(282,547)" d="m0 0c3.02 2.74 5.88 5.63 8.75 8.52 0.869 0.868 1.74 1.74 2.63 2.63 2.4 2.4 4.8 4.81 7.2 7.22 2.59 2.6 5.18 5.19 7.78 7.79 4.49 4.5 8.98 9 13.5 13.5 6.5 6.52 13 13 19.5 19.5 10.6 10.6 21.1 21.1 31.7 31.7 0.632 0.633 1.26 1.27 1.91 1.92 0.632 0.634 1.26 1.27 1.92 1.92 8.96 8.98 17.9 18 26.9 26.9 0.945 0.947 0.945 0.947 1.91 1.91 10.5 10.5 21 21.1 31.6 31.6 6.48 6.49 13 13 19.4 19.5 4.44 4.45 8.89 8.91 13.3 13.4 2.56 2.57 5.12 5.13 7.68 7.7 2.78 2.79 5.56 5.58 8.35 8.36 0.801 0.806 1.6 1.61 2.43 2.44 4.17 4.16 8.42 8.17 12.9 12 2.28 1.98 4.42 4.08 6.56 6.21 0.864 0.864 1.73 1.73 2.62 2.62 0.905 0.911 1.81 1.82 2.74 2.76 0.963 0.965 1.93 1.93 2.89 2.89 2.51 2.52 5.02 5.04 7.53 7.56 2.55 2.56 5.1 5.12 7.66 7.68 3.74 3.75 7.47 7.49 11.2 11.2 0.789 0.791 1.58 1.58 2.39 2.4 1.24 1.24 2.47 2.49 3.7 3.73 2.06 2.08 4.11 3.95 6.39 5.8 2.25 1.92 3.92 3.56 5.75 5.81 1.96 2.77 1.96 2.77 4.25 3.75v2h2c2.62 2.38 2.62 2.38 5 5v2h2v2h2c1.69 1.98 3.35 3.98 5 6 0.66 0.33 1.32 0.66 2 1v2h2c2.62 2.38 2.62 2.38 5 5v2h2v2h2v2c0.99 0.33 1.98 0.66 3 1v2h2v2h2v2h2v2c0.99 0.33 1.98 0.66 3 1v2h2v2h2v2c0.598 0.268 1.2 0.536 1.81 0.812 2.19 1.19 3.6 2.28 5.19 4.19v2h2v2c0.598 0.268 1.2 0.536 1.81 0.812 2.19 1.19 3.6 2.28 5.19 4.19v2c0.598 0.268 1.2 0.536 1.81 0.812 2.19 1.19 3.6 2.28 5.19 4.19v2h2v2l1.69 0.688c2.97 1.69 5.03 3.78 7.31 6.31v2c0.579 0.254 1.16 0.508 1.75 0.769 2.5 1.37 4.16 2.9 6.17 4.92 0.768 0.767 1.54 1.53 2.33 2.32 0.833 0.842 1.67 1.68 2.53 2.55 0.885 0.886 1.77 1.77 2.68 2.69 1.92 1.93 3.84 3.85 5.76 5.78 3.03 3.05 6.06 6.09 9.1 9.14 4.8 4.81 9.6 9.63 14.4 14.4 8.59 8.63 17.2 17.3 25.8 25.9 3.02 3.03 6.04 6.06 9.05 9.09 2.31 2.32 4.63 4.65 6.94 6.97 0.837 0.844 1.67 1.69 2.54 2.56 0.763 0.764 1.53 1.53 2.31 2.32 0.664 0.668 1.33 1.34 2.01 2.02 1.59 1.62 1.59 1.62 3.66 2.54v2c0.837 0.35 0.837 0.35 1.69 0.708 2.9 1.62 4.89 3.62 7.24 5.97 0.482 0.479 0.965 0.957 1.46 1.45 1.61 1.6 3.22 3.21 4.83 4.82 1.16 1.15 2.31 2.3 3.47 3.45 3.14 3.13 6.28 6.26 9.41 9.4 2.62 2.62 5.24 5.23 7.86 7.85 6.18 6.17 12.4 12.4 18.5 18.5 6.37 6.37 12.7 12.7 19.1 19.1 5.48 5.46 11 10.9 16.4 16.4 3.27 3.27 6.53 6.53 9.81 9.79 3.08 3.07 6.15 6.14 9.22 9.22 1.12 1.13 2.25 2.25 3.38 3.37 1.55 1.54 3.08 3.08 4.62 4.63 0.861 0.861 1.72 1.72 2.61 2.61 4.42 5.13 7.75 10.6 7.68 17.5-0.868 5.5-5.06 10.8-9.35 14.2-5.33 2.31-10.2 2.28-15.9 2.26-1 0.00351-2 0.00701-3.03 0.0106-3.37 0.00934-6.74 0.00438-10.1-4.68e-4 -2.43 0.00374-4.87 0.00834-7.3 0.0137-5.3 0.0097-10.6 0.0131-15.9 0.0111-7.88-0.00305-15.8 0.00527-23.6 0.0157-14.9 0.0194-29.8 0.025-44.7 0.0261-11.5 9.19e-4 -23 0.00503-34.5 0.0114-3.31 0.0018-6.62 0.00357-9.93 0.00535-0.822 4.42e-4 -1.64 8.84e-4 -2.49 0.00134-23.1 0.0123-46.3 0.0202-69.4 0.0193-1.31-4.67e-5 -1.31-4.67e-5 -2.64-9.44e-5 -4.42-1.66e-4 -8.84-3.64e-4 -13.3-5.69e-4 -0.878-3.99e-5 -1.76-7.98e-5 -2.66-1.21e-4 -1.78-8.09e-5 -3.55-1.64e-4 -5.33-2.51e-4 -27.6-0.00123-55.3 0.0138-82.9 0.0411-31 0.0307-62.1 0.0479-93.1 0.0461-3.31-1.49e-4 -6.62-2.47e-4 -9.93-3.09e-4 -0.815-2.33e-5 -1.63-4.66e-5 -2.47-7.06e-5 -13.1-6.16e-5 -26.2 0.0127-39.4 0.0299-13.2 0.0169-26.4 0.0189-39.5 0.00578-7.83-0.0074-15.7-0.00369-23.5 0.0159-5.84 0.0134-11.7 0.00592-17.5-0.00975-2.37-0.00309-4.74 6.33e-4 -7.11 0.0117-3.21 0.014-6.42 0.0036-9.63-0.0131-0.926 0.00994-1.85 0.0199-2.81 0.0301-7.43-0.0821-11.7-1.99-17.1-7.28-4.43-6.58-4.48-13.6-4.44-21.3-0.00321-0.984-0.00641-1.97-0.00972-2.98-0.00831-3.3-0.00237-6.6 0.0035-9.9-0.00302-2.39-0.00691-4.78-0.0116-7.17-0.00815-5.19-0.0101-10.4-0.0065-15.6 0.00531-7.72-7.91e-4 -15.4-0.00908-23.2-0.0152-14.6-0.0169-29.2-0.0145-43.8 0.00183-11.3 7.38e-5 -22.5-0.00422-33.8-6.02e-4 -1.62-0.0012-3.24-0.0018-4.86-9.07e-4 -2.44-0.00182-4.88-0.00273-7.32-0.00843-22.7-0.0128-45.4-0.00859-68.1 1.56e-4 -0.855 3.13e-4 -1.71 4.74e-4 -2.59 8.06e-4 -4.34 0.00165-8.67 0.00251-13 1.71e-4 -0.861 3.42e-4 -1.72 5.18e-4 -2.61 3.47e-4 -1.74 6.95e-4 -3.48 0.00105-5.22 0.00536-27.1-0.00258-54.2-0.021-81.3-0.0207-30.4-0.0314-60.9-0.0274-91.3 3.95e-4 -3.25 7.57e-4 -6.49 0.0011-9.74 9.07e-5 -0.799 1.81e-4 -1.6 2.75e-4 -2.42 0.00117-12.1-0.00548-24.1-0.0161-36.2-0.012-13.7-0.0136-27.4-0.00121-41.2 0.00663-7.68 0.00498-15.4-0.00859-23-0.0092-5.73-0.00274-11.5 0.00985-17.2 0.00266-2.32 2.38e-4 -4.64-0.00774-6.96-0.0101-3.15-0.00171-6.3 0.0113-9.45-0.00731-0.903-0.0146-1.81-0.0221-2.74 0.0606-7.08 1.4-13.2 5.21-19.3 8.62-8.38 19.2-7.03 28.2-0.125zm4 59v513h517c-4.76-5.59-4.76-5.59-9.76-10.9-0.686-0.69-1.37-1.38-2.08-2.09-0.736-0.734-1.47-1.47-2.23-2.23-0.796-0.798-1.59-1.6-2.41-2.42-2.66-2.66-5.31-5.32-7.97-7.98-1.91-1.91-3.82-3.82-5.73-5.74-4.64-4.65-9.28-9.29-13.9-13.9-3.77-3.77-7.54-7.54-11.3-11.3-10.7-10.7-21.4-21.4-32.1-32.1-0.576-0.576-1.15-1.15-1.74-1.74-0.576-0.576-1.15-1.15-1.75-1.75-9.36-9.36-18.7-18.7-28.1-28.1-9.6-9.62-19.2-19.2-28.8-28.8-5.4-5.4-10.8-10.8-16.2-16.2-4.58-4.59-9.17-9.18-13.8-13.8-2.34-2.34-4.69-4.68-7.02-7.03-2.53-2.54-5.07-5.07-7.6-7.6-1.12-1.13-1.12-1.13-2.26-2.27-0.676-0.671-1.35-1.34-2.05-2.03-0.585-0.586-1.17-1.17-1.77-1.77-1.42-1.45-1.42-1.45-3.49-1.24-0.266-0.592-0.531-1.18-0.805-1.79-3.18-5.87-9.27-10.2-14.3-14.5-1.85-1.65-3.58-3.36-5.3-5.15-2.25-2.8-2.25-2.8-4.62-2.56v-2h-2c-0.268-0.598-0.536-1.2-0.812-1.81-1.19-2.19-2.28-3.6-4.19-5.19h-2v-2h-2c-0.268-0.598-0.536-1.2-0.812-1.81-1.19-2.19-2.28-3.6-4.19-5.19h-2v-2h-2v-2h-2c-0.33-0.99-0.66-1.98-1-3h-2v-2h-2v-2h-2v-2h-2c-0.33-0.99-0.66-1.98-1-3h-2v-2h-2v-2h-2v-2h-2c-0.33-0.99-0.66-1.98-1-3h-2v-2h-2v-2h-2v-2c-1.33-1.67-1.33-1.67-3-3h-2v-2h-2v-2h-2v-2c-1.33-1.67-1.33-1.67-3-3h-2v-2c-1.76-1.74-1.76-1.74-3.94-3.5-3.96-3.3-3.96-3.3-5.06-5.5h-2v-2c-1.62-1.64-1.62-1.64-3.69-3.31-3.28-2.75-6.3-5.65-9.31-8.69-0.928-0.93-1.86-1.86-2.81-2.82-1.04-1.05-2.09-2.09-3.13-3.14-1.2-1.21-2.4-2.41-3.61-3.62-0.637-0.639-1.27-1.28-1.93-1.94-14.7-14.7-29.3-29.4-44-44.1-8.48-8.49-17-17-25.4-25.5-7.4-7.42-14.8-14.8-22.2-22.2-3.92-3.92-7.83-7.84-11.7-11.8-3.67-3.69-7.35-7.37-11-11-1.35-1.35-2.71-2.71-4.06-4.07-1.84-1.85-3.68-3.69-5.52-5.52-0.809-0.818-0.809-0.818-1.63-1.65-2.49-2.81-2.49-2.81-5.93-3.67v-2c-1.38-1.4-1.38-1.4-3.24-2.87-5.34-4.55-10.2-9.51-15.2-14.5-1.7-1.72-3.41-3.44-5.12-5.16-4.85-4.88-9.7-9.76-14.5-14.6-2.97-3-5.95-6-8.94-8.99-1.13-1.14-2.26-2.28-3.39-3.42-1.57-1.59-3.15-3.17-4.72-4.75-0.895-0.903-1.79-1.81-2.71-2.74-1.93-2.15-1.93-2.15-4.16-1.93z" fill="#000100"/>
<path transform="translate(390 824)" d="m0 0c2.07 1.24 4.02 2.45 5.8 4.08v2h2v2h2v2h2c1.62 1.38 1.62 1.38 3 3v2h2v2h2c2.62 2.38 2.62 2.38 5 5v2h2v2h2c2.62 2.38 2.62 2.38 5 5v2h2v2h2c2.62 2.38 2.62 2.38 5 5v2h2v2h2c1.62 1.38 1.62 1.38 3 3v2h2v2h2v2h2c1.62 1.38 1.62 1.38 3 3v2h2v2h2v2h2v2c1.49 0.495 1.49 0.495 3 1v2h2v2h2v2c1.49 0.495 1.49 0.495 3 1v2h2v2h2v2h2v2c0.639 0.268 1.28 0.536 1.94 0.812 2.06 1.19 2.06 1.19 3.06 4.19h2v2c0.582 0.256 1.16 0.513 1.76 0.777 2.45 1.34 4.07 2.82 6.04 4.8 0.743 0.741 1.49 1.48 2.25 2.25 0.805 0.814 1.61 1.63 2.44 2.47 0.856 0.857 1.71 1.71 2.59 2.6 1.86 1.86 3.72 3.73 5.57 5.6 2.94 2.96 5.88 5.91 8.83 8.87 4.67 4.68 9.33 9.36 14 14 8.32 8.37 16.7 16.7 25 25.1 2.92 2.93 5.84 5.86 8.75 8.8 2.25 2.27 4.51 4.53 6.77 6.79 0.797 0.804 1.59 1.61 2.42 2.44 4.18 4.19 8.43 8.2 12.9 12 2.14 1.9 3.88 3.98 5.59 6.28 0.566 0.749 1.13 1.5 1.71 2.27 3.41 4.86 3 10.2 2.35 15.9-1.79 4.51-4.62 8.74-9 11-5.49 1.6-10.5 2.29-16.2 2.26-0.786 0.00383-1.57 0.00765-2.38 0.0116-2.61 0.0103-5.22 0.00635-7.84 0.00237-1.88 0.00435-3.76 0.00954-5.64 0.0155-5.09 0.0134-10.2 0.014-15.3 0.0114-4.26-0.00107-8.51 0.00382-12.8 0.00861-10 0.0111-20.1 0.0115-30.1 0.00549-10.4-0.00604-20.7 0.00629-31.1 0.0276-8.9 0.0176-17.8 0.0236-26.7 0.0204-5.31-0.00181-10.6 8.2e-4 -15.9 0.0147-4.99 0.0126-9.99 0.0106-15-0.00241-1.83-0.00237-3.66 3.7e-4 -5.49 0.00862-2.5 0.0105-5 0.00237-7.51-0.0103-0.721 0.00737-1.44 0.0147-2.19 0.0223-5.7-0.0606-10.4-1.28-14.8-5.05-0.686-0.855-0.686-0.855-1.39-1.73-0.706-0.847-0.706-0.847-1.43-1.71-3.16-4.8-3.55-9.23-3.54-14.9-0.00524-0.795-0.0105-1.59-0.0159-2.41-0.015-2.66-0.0157-5.32-0.0164-7.98-0.00762-1.91-0.016-3.82-0.0252-5.73-0.0219-5.18-0.0307-10.4-0.0358-15.6-0.00364-3.24-0.00988-6.48-0.017-9.72-0.0245-11.3-0.0375-22.6-0.0411-33.9-0.00364-10.5-0.0335-21.1-0.0754-31.6-0.0347-9.05-0.0501-18.1-0.0508-27.1-7.93e-4 -5.4-0.00954-10.8-0.038-16.2-0.0262-5.08-0.0284-10.2-0.0123-15.2 0.00181-1.86-0.00488-3.72-0.0208-5.59-0.14-17.4-0.14-17.4 5.62-24 7.15-6.79 14.6-7.82 23.2-3.08zm8.8 62.1v121h123c-4.59-5.41-4.59-5.41-9.4-10.5-0.603-0.607-1.21-1.21-1.83-1.84-0.639-0.639-1.28-1.28-1.94-1.94-0.69-0.694-1.38-1.39-2.09-2.1-2.26-2.27-4.52-4.54-6.79-6.8-1.58-1.58-3.16-3.16-4.74-4.75-3.3-3.3-6.6-6.6-9.89-9.9-4.24-4.24-8.47-8.48-12.7-12.7-3.25-3.26-6.51-6.52-9.76-9.78-1.56-1.56-3.12-3.13-4.68-4.7-2.17-2.18-4.35-4.36-6.53-6.53-0.647-0.653-1.29-1.31-1.96-1.98-2.82-3.28-2.82-3.28-6.69-4.43-0.258-0.583-0.516-1.17-0.781-1.77-1.32-2.41-2.77-4.05-4.72-5.98-0.608-0.614-1.22-1.23-1.84-1.86-1.55-1.6-1.55-1.6-3.66-1.39-0.266-0.592-0.531-1.18-0.805-1.79-3.2-5.92-9.36-10.3-14.4-14.6-1.45-1.27-2.82-2.63-4.17-4.02-1.49-1.79-1.49-1.79-3.62-1.56v-2h-2v-2h-2c-0.33-0.99-0.66-1.98-1-3h-2v-2c-0.99-0.33-1.98-0.66-3-1z" fill="#000100"/>
<path transform="translate(624,113)" d="m0 0h37v37c-3.06 1.53-6.25 1.14-9.6 1.13-0.749 9.57e-4 -1.5 0.00191-2.27 0.0029-1.58 6.81e-4 -3.17-0.00117-4.75-0.00534-2.43-0.00536-4.87-4.76e-5 -7.3 0.00635-1.54-6.61e-4 -3.07-0.00194-4.61-0.00391-0.732 0.00202-1.46 0.00405-2.22 0.00613-5.13-0.024-5.13-0.024-6.25-1.14-0.0886-2.74-0.115-5.45-0.0977-8.19 0.00151-1.09 0.00151-1.09 0.00305-2.2 0.00525-2.72 0.0192-5.45 0.0321-8.17 0.0206-6.08 0.0412-12.2 0.0625-18.4z" fill="#000100"/>
<path transform="translate(553 113)" d="m0 0c1.52 1.59e-4 3.04 0.00585 4.55 0.0159 0.798 0.00141 1.6 0.00283 2.42 0.00429 2.56 0.00562 5.12 0.0182 7.67 0.0309 1.73 0.00501 3.46 0.00958 5.19 0.0137 4.25 0.011 8.5 0.0283 12.7 0.0488 0.0246 5.25 0.0428 10.5 0.0549 15.8 0.00504 1.79 0.0119 3.58 0.0205 5.36 0.0121 2.56 0.0178 5.13 0.0222 7.69 0.00516 0.804 0.0103 1.61 0.0156 2.44 1.96e-4 1.92-0.0513 3.84-0.113 5.75-1 1-1 1-4.33 1.11-1.48-1.59e-4 -2.95-0.00585-4.43-0.0159-0.775-0.00141-1.55-0.00283-2.35-0.00429-2.49-0.00562-4.97-0.0182-7.46-0.0309-1.68-0.00501-3.36-0.00958-5.04-0.0137-4.13-0.011-8.26-0.0283-12.4-0.0488-1.55-3.11-1.14-6.4-1.13-9.82-9.57e-4 -0.772-0.00191-1.54-0.0029-2.34-6.81e-4 -1.63 0.00117-3.26 0.00534-4.89 0.00536-2.51 4.79e-5 -5.01-0.00635-7.52 6.61e-4 -1.58 0.00194-3.17 0.00391-4.75-0.00202-0.754-0.00405-1.51-0.00613-2.29 0.0289-6.36 0.0289-6.36 4.56-6.51z" fill="#000100"/>
<path transform="translate(478 113)" d="m0 0c1.52 1.59e-4 3.04 0.00585 4.55 0.0159 0.798 0.00141 1.6 0.00283 2.42 0.00429 2.56 0.00562 5.12 0.0182 7.67 0.0309 1.73 0.00501 3.46 0.00958 5.19 0.0137 4.25 0.011 8.5 0.0283 12.7 0.0488 0.0246 5.25 0.0428 10.5 0.0549 15.8 0.00504 1.79 0.0119 3.58 0.0205 5.36 0.0121 2.56 0.0178 5.13 0.0222 7.69 0.00516 0.804 0.0103 1.61 0.0156 2.44 1.96e-4 1.92-0.0513 3.84-0.113 5.75-1 1-1 1-4.33 1.11-1.48-1.59e-4 -2.95-0.00585-4.43-0.0159-0.775-0.00141-1.55-0.00283-2.35-0.00429-2.49-0.00562-4.97-0.0182-7.46-0.0309-1.68-0.00501-3.36-0.00958-5.04-0.0137-4.13-0.011-8.26-0.0283-12.4-0.0488-1.55-3.11-1.14-6.4-1.13-9.82-9.57e-4 -0.772-0.00191-1.54-0.0029-2.34-6.81e-4 -1.63 0.00117-3.26 0.00534-4.89 0.00536-2.51 4.79e-5 -5.01-0.00635-7.52 6.61e-4 -1.58 0.00194-3.17 0.00391-4.75-0.00202-0.754-0.00405-1.51-0.00613-2.29 0.0289-6.36 0.0289-6.36 4.56-6.51z" fill="#000100"/>
</svg>
