<?xml version="1.0" encoding="UTF-8"?>
<svg version="1.1" viewBox="0 0 1600 1192" width="150" height="150" xmlns="http://www.w3.org/2000/svg">
<path transform="translate(447 543)" d="m0 0c1.13-0.00782 1.13-0.00782 2.28-0.0158 2.52-0.0126 5.04 0.00331 7.57 0.0191 1.83-0.00318 3.66-0.00811 5.49-0.0146 5.02-0.0128 10-6.91e-4 15.1 0.0155 5.42 0.0132 10.8 0.00326 16.2-0.00376 10.6-0.0101 21.2 0.0012 31.8 0.0197 12.4 0.0208 24.7 0.0206 37.1 0.0197 22-1e-3 44.1 0.0173 66.1 0.0464 21.4 0.0282 42.8 0.0423 64.2 0.041 1.32-7.99e-5 2.63-1.6e-4 3.99-2.42e-4 1.32-8.07e-5 2.63-1.61e-4 3.99-2.45e-4 24.3-0.00138 48.7 0.0104 73 0.0283 8.61 0.00603 17.2 0.00816 25.8 0.00906 10.5 0.00136 21 0.0103 31.5 0.0287 5.36 0.00924 10.7 0.0153 16.1 0.0128 4.9-0.00219 9.8 0.00484 14.7 0.0193 1.77 0.00363 3.55 0.00389 5.32 4.65e-4 2.41-0.00413 4.82 4e-3 7.23 0.0152 0.69-0.00411 1.38-0.00822 2.09-0.0125 5.35 0.0455 10.6 0.563 14.8 4 0.55 0.665 1.1 1.33 1.67 2.02 0.563 0.655 1.13 1.31 1.71 1.98 3.12 4.77 3.73 9.38 3.73 15 0.00231 0.654 0.00462 1.31 0.00699 1.98 0.00529 2.19-0.00367 4.37-0.0126 6.56 8.72e-4 1.58 0.00262 3.17 0.00518 4.75 0.00447 4.35-0.00353 8.71-0.0136 13.1-0.00863 4.7-0.00571 9.39-0.0042 14.1 0.00105 8.13-0.00523 16.3-0.0165 24.4-0.0163 11.8-0.0215 23.5-0.024 35.3-0.00438 19.1-0.0177 38.2-0.0366 57.2-0.0184 18.5-0.0325 37.1-0.041 55.6-7.88e-4 1.71-7.88e-4 1.71-0.00159 3.46-0.00261 5.73-0.00514 11.5-0.00762 17.2-0.0207 47.5-0.056 95.1-0.101 143 0.62-0.0296 1.24-0.0592 1.88-0.0897 18-0.834 35.9-1.06 53.9-1.04 3.87 0.00231 7.75-0.00125 11.6-0.00398 7.55-0.0044 15.1-0.00351 22.6-5.87e-4 6.14 0.00228 12.3 0.00256 18.4 0.00148 0.88-1.53e-4 1.76-3.06e-4 2.67-4.64e-4 1.79-3.2e-4 3.58-6.44e-4 5.36-9.73e-4 16.7-0.00284 33.4 4.06e-4 50.1 0.0058 14.3 0.00447 28.6 0.00368 42.8-9.19e-4 16.6-0.00536 33.3-0.00745 49.9-0.00439 1.78 3.19e-4 3.56 6.33e-4 5.33 9.43e-4 0.874 1.54e-4 1.75 3.09e-4 2.65 4.68e-4 6.13 8.59e-4 12.3-5.85e-4 18.4-0.00295 7.47-0.00282 14.9-0.00202 22.4 0.00328 3.8 0.00261 7.61 0.00369 11.4 3.51e-4 38.5-0.0308 73.1 2.55 104 27.1 0.88 0.655 1.76 1.31 2.67 1.98 4.71 3.54 4.71 3.54 6.33 5.02v2h2v2h2c22.6 20.6 34.1 52.7 35.9 82.4 1.43 34.2-10.1 65.3-32.9 90.6-1.66 1.68-3.32 3.34-5 5-0.637 0.695-1.27 1.39-1.93 2.11-10.5 11.2-24.1 18.7-38.1 24.9-0.755 0.345-1.51 0.69-2.29 1.05-19.4 8.55-38.6 8.1-59.3 7.99-5.1-0.0196-10.2 0.00765-15.3 0.0286-8.92 0.0303-17.8 0.0312-26.7 0.0122-13.3-0.0281-26.5-0.0102-39.8 0.0163-23.7 0.0459-47.4 0.0461-71.1 0.0264-20.7-0.0172-41.5-0.0198-62.2-0.00805-1.39 7.67e-4 -2.78 0.00153-4.17 0.00229-5.59 0.00307-11.2 0.00619-16.8 0.00939-15.6 0.00889-31.2 0.015-46.9 0.0189-0.711 1.76e-4 -1.42 3.52e-4 -2.16 5.34e-4 -22.7 0.0054-45.3-0.00169-68-0.0172-0.734-5e-4 -1.47-9.99e-4 -2.22-0.00151-11.9-0.00814-23.8-0.0168-35.8-0.0256-47.3-0.0347-94.5-0.0258-142 0.0222-11.9 0.0121-23.8 0.024-35.7 0.0353-0.734 6.96e-4 -1.47 0.00139-2.22 0.00211-22.6 0.0213-45.3 0.0315-67.9 0.0297-0.711-5.51e-5 -1.42-1.1e-4 -2.15-1.67e-4 -15.6-0.00133-31.2-0.00551-46.8-0.0123-5.58-0.0024-11.2-0.00464-16.8-0.00683-1.39-5.5e-4 -2.78-0.00111-4.17-0.00168-22.1-0.00906-44.2 0.00657-66.3 0.0341-22.9 0.0283-45.8 0.0226-68.6-0.021-13.2-0.0242-26.3-0.0239-39.5 0.0125-8.81 0.0218-17.6 0.0105-26.4-0.027-5.01-0.0204-10-0.0272-15 0.0063-22 0.137-40.7-0.685-61-10.2-0.86-0.398-1.72-0.795-2.61-1.2-16.8-7.89-33-20-44.4-34.8v-2h-2c-21.5-26-28.4-59.7-25.8-92.6 3.06-28.5 17.1-52.3 35.8-73.4 0.57-0.655 1.14-1.31 1.73-1.98 15.6-16.9 38.4-27.8 60.5-32.9 0.865-0.203 1.73-0.406 2.62-0.616 11.8-2.55 23.8-2.66 35.8-2.62 1.28-1.46e-4 2.56-2.92e-4 3.88-4.43e-4 3.46-2.83e-4 6.92 0.00554 10.4 0.0126 3.63 0.00631 7.27 0.00684 10.9 0.00803 6.86 0.00309 13.7 0.0113 20.6 0.0213 7.82 0.0112 15.6 0.0167 23.5 0.0217 16.1 0.0104 32.1 0.028 48.2 0.0503-0.00114-0.806-0.00228-1.61-0.00345-2.44-0.0671-47.7-0.119-95.5-0.15-143-0.00375-5.73-0.00764-11.5-0.0116-17.2-7.87e-4 -1.14-0.00157-2.28-0.00238-3.46-0.0131-18.5-0.0367-37-0.0643-55.4-0.028-19-0.0447-37.9-0.0508-56.9-0.00412-11.7-0.0171-23.4-0.0415-35.1-0.0158-8.02-0.0207-16-0.0168-24.1 0.00192-4.63-0.00106-9.26-0.0171-13.9-0.0146-4.24-0.0153-8.47-0.00508-12.7 0.00127-1.53-0.00255-3.07-0.012-4.6-0.012-2.08-0.00555-4.17 0.00551-6.25-0.00114-1.16-0.00228-2.32-0.00345-3.51 0.671-5.98 3.16-11 7.37-15.3 5.01-3.36 8.68-4.59 14.8-4.5zm14.2 37.5c-0.0986 1.92-0.126 3.84-0.126 5.76-0.00261 1.26-0.00522 2.52-0.0079 3.81 0.00216 1.42 0.00442 2.83 0.00676 4.25-0.00115 1.49-0.00274 2.98-0.00473 4.47-0.0042 4.11-0.0021 8.22 9.86e-4 12.3 0.00225 4.43-0.00122 8.85-0.00398 13.3-0.00446 8.68-0.00348 17.4-5.87e-4 26 0.00225 7.05 0.00257 14.1 0.00148 21.2-1.53e-4 1-3.06e-4 2-4.64e-4 3.03-3.2e-4 2.03-6.44e-4 4.07-9.73e-4 6.1-0.00286 19.1 4.33e-4 38.2 0.0058 57.3 0.00447 16.4 0.00369 32.8-9.19e-4 49.2-0.00535 19-0.00746 38.1-0.00439 57.1 3.19e-4 2.03 6.33e-4 4.05 9.43e-4 6.08 1.54e-4 0.997 3.09e-4 1.99 4.68e-4 3.02 8.65e-4 7.05-5.98e-4 14.1-0.00295 21.1-0.0028 8.58-0.00206 17.2 0.00328 25.7 0.00264 4.38 0.00364 8.77 3.51e-4 13.1-0.00296 4.01-0.00137 8.01 0.00398 12 0.00112 1.46 5.32e-4 2.91-0.00188 4.37-3e-3 1.97 6.49e-4 3.93 0.00472 5.9 1.62e-4 1.1 3.25e-4 2.19 4.92e-4 3.32-0.15 2.39-0.15 2.39 1.13 3.44 2.1 0.0998 4.2 0.127 6.3 0.129 0.669 0.00175 1.34 0.00351 2.03 0.00531 2.27 0.0047 4.54 0.00218 6.8-2.34e-4 1.63 0.00187 3.26 0.00417 4.89 0.00687 4.51 0.00615 9.01 0.00598 13.5 0.00481 4.85-2.03e-4 9.7 0.00531 14.6 0.0101 9.51 0.00832 19 0.0111 28.5 0.0116 7.73 4.74e-4 15.5 0.00252 23.2 0.0057 21.9 0.00881 43.8 0.0134 65.7 0.0127 1.18-4e-5 2.36-7.99e-5 3.58-1.21e-4 1.18-4.09e-5 2.37-8.18e-5 3.58-1.24e-4 19.2-4.07e-4 38.3 0.00916 57.5 0.0233 19.7 0.0143 39.3 0.0213 59 0.0204 11-3.33e-4 22.1 0.00244 33.1 0.0132 9.41 0.00908 18.8 0.0113 28.2 0.00449 4.8-0.00328 9.6-0.00328 14.4 0.00535 4.39 0.00782 8.78 0.00648 13.2-0.00228 1.59-0.00155 3.19 3.21e-4 4.78 0.00586 2.16 0.00701 4.32 0.00181 6.47-0.00656 1.8 3.26e-4 1.8 3.26e-4 3.64 6.59e-4 2.91-0.24 4.58-0.722 7.03-2.25 0.0229-45.8 0.0405-91.7 0.0511-138 0.00125-5.41 0.00255-10.8 0.00387-16.2 2.62e-4 -1.08 5.25e-4 -2.15 7.95e-4 -3.26 0.00436-17.5 0.0122-34.9 0.0214-52.4 0.00934-17.9 0.0149-35.8 0.0169-53.7 0.00138-11.1 0.00573-22.1 0.0138-33.2 0.00527-7.57 0.00689-15.1 0.00558-22.7-6.44e-4 -4.37 3.77e-4 -8.75 0.0057-13.1 0.00483-4 0.00513-7.99 0.00169-12-4.26e-4 -1.45 8.7e-4 -2.9 0.00398-4.36 0.00396-1.96 0.00127-3.92-0.00184-5.88 3.8e-4 -1.09 7.59e-4 -2.19 0.00115-3.31 0.151-2.38 0.151-2.38-1.12-3.43-2.12-0.0989-4.23-0.126-6.35-0.126-0.675-0.00145-1.35-0.00291-2.04-0.0044-2.29-0.00369-4.58-1.62e-4 -6.87 0.00326-1.65-0.00115-3.29-0.00274-4.94-0.00473-4.55-0.0042-9.09-0.0021-13.6 9.86e-4 -4.89 0.00225-9.79-0.00122-14.7-0.00398-9.59-0.00446-19.2-0.00348-28.8-5.87e-4 -7.79 0.00225-15.6 0.00257-23.4 0.00148-1.11-1.53e-4 -2.21-3.06e-4 -3.35-4.64e-4 -2.25-3.2e-4 -4.5-6.44e-4 -6.75-9.73e-4 -21.1-0.00286-42.2 4.33e-4 -63.3 0.0058-18.1 0.00447-36.3 0.00369-54.4-9.19e-4 -21-0.00534-42.1-0.00746-63.1-0.00439-2.24 3.19e-4 -4.48 6.33e-4 -6.72 9.43e-4 -1.1 1.54e-4 -2.2 3.09e-4 -3.34 4.68e-4 -7.79 8.65e-4 -15.6-5.98e-4 -23.4-0.00295-9.49-0.0028-19-0.00206-28.5 0.00328-4.84 0.00264-9.69 0.00364-14.5 3.51e-4 -4.43-0.00296-8.85-0.00137-13.3 0.00398-1.61 0.00112-3.22 5.31e-4 -4.83-0.00188-2.17-3e-3 -4.35 3.94e-5 -6.52 0.00472-1.21 1.62e-4 -2.42 3.25e-4 -3.67 4.92e-4 -2.6-0.18-2.6-0.18-3.68 1.13zm-219 416c-0.986 0.824-1.97 1.65-2.99 2.5-17.2 14.9-29.1 34.7-32 57.5-1.69 28.3 5.18 51.4 24 73 0.53 0.615 1.06 1.23 1.61 1.86 14.8 15.9 35.9 25.4 57.4 27.1 5.33 0.15 10.7 0.138 16 0.131 1.65 0.00165 3.29 0.00374 4.94 0.00622 4.54 0.00556 9.07 0.0049 13.6 0.00322 4.93-7.31e-4 9.86 0.00429 14.8 0.00858 9.78 0.00758 19.6 0.00977 29.4 0.0103 11.7 9.14e-4 23.4 0.00758 35.2 0.0143 27.6 0.0157 55.3 0.0217 82.9 0.0264 14.1 0.00238 28.1 0.00609 42.2 0.01 45.1 0.0127 90.3 0.0234 135 0.0268 2.16 1.62e-4 4.31 3.28e-4 6.47 4.94e-4 4.33 3.34e-4 8.65 6.64e-4 13 9.95e-4 5.06 3.87e-4 10.1 7.77e-4 15.2 0.00117 1.45 1.12e-4 2.9 2.24e-4 4.35 3.34e-4 46.5 0.00355 93.1 0.0186 140 0.0419 33.4 0.0167 66.9 0.0322 100 0.0367 0.688 9.35e-5 1.38 1.87e-4 2.09 2.83e-4 15.1 0.00202 30.2 0.00318 45.3 0.00353 5.41 1.36e-4 10.8 3.45e-4 16.2 5.93e-4 1.34 6.16e-5 2.69 1.2e-4 4.03 1.75e-4 22.1 9.48e-4 44.2 0.0118 66.2 0.0268 21.5 0.0144 43 0.0176 64.5 0.00956 12.8-0.00446 25.6-5.89e-4 38.3 0.0152 8.54 0.00975 17.1 0.00857 25.6-0.00144 4.86-0.00539 9.73-0.0061 14.6 0.00651 4.43 0.0114 8.86 0.00876 13.3-0.00467 1.59-0.00242 3.17 9.67e-5 4.76 0.0084 13.5 0.0659 27-1.08 39.5-6.63 0.707-0.305 1.41-0.61 2.14-0.925 22.7-10.1 39.6-28 49-50.8 9.35-24.9 7.21-49.3-3.46-73.3-4.23-8.51-12.1-22.2-21.5-25.7v-2c-15.9-13.4-36-22.1-57-22.1-0.678-0.00178-1.36-0.00355-2.06-0.00538-2.27-0.00473-4.54-0.00237-6.81-4.11e-5 -1.65-0.00195-3.3-0.00434-4.96-0.00713-4.55-0.0064-9.11-0.00656-13.7-0.00572-4.95-1.7e-4 -9.9-0.00608-14.8-0.0112-9.82-0.00933-19.6-0.0132-29.5-0.0155-11.8-0.00296-23.5-0.0117-35.3-0.0204-28.4-0.0208-56.9-0.0313-85.3-0.0401-9.42-0.00293-18.8-0.0063-28.3-0.00997-0.664-2.58e-4 -1.33-5.17e-4 -2.01-7.83e-4 -2.69-0.00105-5.38-0.00209-8.07-0.00315-46-0.018-92-0.0333-138-0.0408-3.61-5.84e-4 -7.22-0.00118-10.8-0.00178-0.716-1.18e-4 -1.43-2.36e-4 -2.17-3.58e-4 -7.26-0.0012-14.5-0.00241-21.8-0.00363-1.46-2.45e-4 -2.91-4.89e-4 -4.37-7.32e-4 -46.7-0.00779-93.5-0.0302-140-0.0627-33.6-0.0234-67.2-0.0449-101-0.052-0.691-1.47e-4 -1.38-2.94e-4 -2.09-4.46e-4 -15.2-0.00319-30.3-0.00524-45.5-0.00623-6.1-4.15e-4 -12.2-9.7e-4 -18.3-0.00156-0.668-6.07e-5 -1.34-1.21e-4 -2.02-1.84e-4 -22.2-0.00208-44.3-0.0175-66.5-0.0387-21.6-0.0203-43.2-0.0257-64.8-0.0162-12.8 0.00522-25.7-6.68e-4 -38.5-0.0225-8.58-0.0135-17.2-0.0124-25.7 4.02e-4 -4.88 0.0069-9.77 0.00757-14.6-0.00956-4.45-0.0155-8.9-0.0122-13.4 0.00541-1.59 0.00312-3.18-3e-4 -4.77-0.0115-21.9-0.144-42.9 5.24-60 19.5z"/>
<path transform="translate(1269,43)" d="m0 0c0.749 0.498 1.5 0.996 2.27 1.51 9.4 6.29 18 13 26.1 20.9 1.7 1.67 3.42 3.31 5.14 4.96 7.93 7.66 15 15.7 21.5 24.6 0.593 0.81 0.593 0.81 1.2 1.64 23.5 32.4 38.4 69.6 43.8 109 0.103 0.729 0.206 1.46 0.312 2.21 6.81 56.2-7.36 116-40.3 162-0.435 0.611-0.871 1.22-1.32 1.85-6.17 8.59-12.7 16.6-20 24.3-1.86 1.98-3.6 3.94-5.32 6.03-3.13 3.74-6.65 6.7-10.4 9.84-0.877 0.764-1.75 1.53-2.66 2.32-38.1 32.8-86.7 51-136 55.7-0.874 0.0827-1.75 0.165-2.65 0.25-51.1 4.46-103-10.5-146-38.3-1.06-0.677-2.12-1.35-3.22-2.05-21.4-13.9-40.8-32.3-55.8-52.9-0.392-0.537-0.785-1.07-1.19-1.63-36.5-50.3-52.2-113-43.2-174 6.34-39.7 21.9-78.5 47.5-110 1.96-2.41 3.86-4.85 5.76-7.31 14.9-18.1 32.3-32.4 52.1-44.7 1.89-1.18 3.78-2.38 5.66-3.58 24.6-15.5 51.9-25.4 80.4-30.7 0.847-0.164 1.69-0.327 2.57-0.496 60.6-11.2 124 4.57 174 38.5zm-226 16c-1.9 1.04-3.82 2.04-5.74 3.03-7.82 4.14-15.1 8.89-22.2 14.1-0.785 0.574-1.57 1.15-2.38 1.74-4.32 3.24-8.24 6.63-12 10.5-1.69 1.71-3.48 3.25-5.33 4.79-35.4 30.7-57.3 80.5-60.9 127-3.39 50.8 11.3 102 44.2 141 2.13 2.37 4.3 4.69 6.48 7 1.21 1.39 2.42 2.79 3.62 4.19 28.9 33 71.6 53.7 114 60.8 1.93 0.336 1.93 0.336 3.9 0.68 52.9 7.7 106-7.64 149-39.1 42.3-31.8 69.7-78.7 77.6-131 3.6-26.3 2.63-54.2-5.27-79.6-0.275-0.905-0.549-1.81-0.833-2.74-4.01-13.1-8.6-25.3-15.2-37.3-0.77-1.48-0.77-1.48-1.55-3-22.1-42-60.4-74.2-104-91-0.841-0.323-1.68-0.647-2.55-0.98-51.3-19.3-112-16.5-161 9.96z"/>
<path transform="translate(1218 185)" d="m0 0c4.91 3.98 6.82 8.68 7.81 14.8-0.546 9.37-8.99 17.1-15.3 23.2-1.27 1.28-1.27 1.28-2.56 2.58-2.3 2.3-4.6 4.6-6.91 6.88-2.42 2.4-4.83 4.82-7.25 7.23-4.04 4.04-8.1 8.08-12.2 12.1-4.69 4.66-9.38 9.33-14.1 14-4.99 4.99-9.98 9.97-15 15-1.44 1.43-2.88 2.87-4.31 4.31-2.67 2.66-5.34 5.32-8.02 7.98-0.797 0.798-1.59 1.6-2.41 2.42-0.726 0.718-1.45 1.44-2.2 2.17-0.632 0.629-1.26 1.26-1.91 1.9-1.59 1.33-1.59 1.33-3.59 1.33v2c-5.13 3.4-9.35 5.55-15.6 5.57-10-2.33-16.4-9.92-23.3-16.9-1.23-1.23-2.47-2.46-3.7-3.69-2.58-2.57-5.15-5.15-7.72-7.74-3.28-3.3-6.57-6.58-9.87-9.86-2.55-2.54-5.09-5.08-7.63-7.63-1.21-1.21-2.42-2.42-3.64-3.63-14.5-14.4-14.5-14.4-15-23.2 0.784-6.95 4.07-11.6 9.44-15.9 5.91-1.97 12.7-2.1 18.3 0.562 3.35 3.04 6.55 6.18 9.69 9.44 1.67 1.67 3.33 3.33 5 5 1.6 1.61 3.2 3.22 4.79 4.83 1.8 1.81 3.6 3.61 5.39 5.42 0.915 0.923 1.83 1.85 2.77 2.8 0.873 0.877 1.75 1.75 2.65 2.66 1.19 1.2 1.19 1.2 2.41 2.43 1.85 1.92 1.85 1.92 3.98 2.87v2h2v2h2v2h2c0.33 0.66 0.66 1.32 1 2 2.95-1.33 5.01-2.77 7.28-5.06 0.626-0.628 1.25-1.26 1.9-1.9 0.676-0.688 1.35-1.38 2.05-2.08 1.08-1.09 1.08-1.09 2.18-2.2 1.56-1.58 3.13-3.15 4.69-4.73 2.47-2.5 4.95-5 7.43-7.49 7.05-7.09 14.1-14.2 21.1-21.3 4.3-4.35 8.61-8.69 12.9-13 1.64-1.65 3.28-3.31 4.91-4.96 2.29-2.32 4.59-4.63 6.89-6.94 1-1.03 1-1.03 2.03-2.07 8.09-8.07 18.5-14.2 29.4-7.17z"/>
<path transform="translate(1263 1036)" d="m0 0c8.57 6.12 14.1 14 16.2 24.4 1.36 11.5-1.15 20.5-7.82 29.8-7.24 8.79-15.8 12.1-27 13.6-9.07 0.446-17.4-2.82-24.6-8.2-8.06-7.33-12.5-16.7-13.3-27.4-0.0161-10.9 3.94-20 11.2-28 12.8-11.7 30.5-13.1 45.2-4.16z"/>
<path transform="translate(320 1038)" d="m0 0c7.33 5.93 12.3 13.4 14.1 22.7 1.01 12.1-1.23 21.6-9.08 31-8.05 8.41-16.2 11.4-27.7 12-9.65 0.0238-17.2-3.6-24.4-9.96-7.39-7.66-11-16-11.3-26.7 0.416-11.6 5.23-20.7 13.5-28.7 13.4-10.9 31.2-10.1 44.9-0.402z"/>
<path transform="translate(1028 1037)" d="m0 0c7.49 5.6 13.2 13.6 14.8 22.9 0.936 11.2 0.0439 21.2-7.28 30.1-8.54 9.31-16.9 13.3-29.6 13.9-9.63-0.0849-17.2-3.63-24.4-10.1-7.7-8.07-11.1-17.6-10.9-28.6 0.654-10.2 5.41-19.6 12.8-26.6 13.3-10.1 30.6-10.6 44.5-1.7z"/>
<path transform="translate(555 1037)" d="m0 0c1.98 1.25 1.98 1.25 3.38 2.44v2h2c7.34 7.51 10.4 16.2 10.5 26.5-0.127 10.4-3.21 18.9-10.5 26.5-7.12 6.23-16.8 10.1-26.3 10.4-10.2-1.04-19.6-4.6-26.7-12.4-6.85-9.81-10-19.1-8.64-31.2 2.18-10.3 7.62-18.2 16.2-24.4 12.9-7.76 27.2-7.54 40.1 0.0898z"/>
<path transform="translate(790 1036)" d="m0 0c8.78 6.2 13.9 13.7 16.3 24.2 1.64 9.69-0.324 19.5-5.71 27.7-6.22 8.15-13.8 13.6-23.9 15.2-11.8 1.22-20.7-0.746-30.1-8.18-6.85-6.27-11.4-14.8-12-24.2-0.185-12.8 2.45-20.9 11.2-30.2 12.4-12 29.5-13.4 44.2-4.51z"/>
<path transform="translate(630 688)" d="m0 0c0.76-0.00511 1.52-0.0102 2.3-0.0155 2.5-0.0139 5.01-0.0129 7.51-0.0106 1.75-0.00389 3.49-0.00822 5.24-0.013 3.66-0.00746 7.32-0.00718 11-0.00191 4.68 0.00579 9.36-0.0111 14-0.0343 3.61-0.0148 7.22-0.0156 10.8-0.0125 1.72-5.12e-4 3.45-0.00572 5.17-0.0158 2.42-0.0124 4.83-0.00555 7.25 0.00601 0.706-0.00764 1.41-0.0153 2.14-0.0232 5.69 0.0598 10.2 1.41 14.8 4.83 4.12 4.3 5.82 7.34 6.51 13.4-0.161 6.08-3.65 10.3-7.69 14.6-8.46 5-19 3.94-28.5 3.93-1.63 0.00389-3.25 0.00823-4.88 0.013-3.4 0.00743-6.79 0.00719-10.2 0.00191-4.34-0.0058-8.67 0.0112-13 0.0343-3.36 0.0148-6.71 0.0156-10.1 0.0125-1.6 5.11e-4 -3.2 0.0057-4.79 0.0158-18.1 0.101-18.1 0.101-24.3-5.1-0.455-0.588-0.91-1.18-1.38-1.78-0.473-0.588-0.946-1.18-1.43-1.78-3.07-4.68-2.68-10.3-2.13-15.7 2.52-5.14 6.06-8.53 11.2-11.1 3.54-1.14 6.85-1.2 10.5-1.18z"/>
</svg>
